<svg width="32" height="32" viewBox="0 0 32 32" fill="none" xmlns="http://www.w3.org/2000/svg">
<path fill-rule="evenodd" clip-rule="evenodd" d="M16.0003 30.6667C24.1003 30.6667 30.667 24.1001 30.667 16.0001C30.667 7.90008 24.1003 1.33341 16.0003 1.33341C7.90033 1.33341 1.33366 7.90008 1.33366 16.0001C1.33366 24.1001 7.90033 30.6667 16.0003 30.6667ZM13.0577 20.3907C12.8148 20.6422 12.6804 20.979 12.6834 21.3286C12.6865 21.6782 12.8267 22.0126 13.0739 22.2598C13.3211 22.507 13.6555 22.6473 14.0051 22.6503C14.3547 22.6534 14.6915 22.519 14.943 22.2761L20.2763 16.9427C20.5263 16.6927 20.6667 16.3536 20.6667 16.0001C20.6667 15.6465 20.5263 15.3075 20.2763 15.0574L14.943 9.72408C14.6915 9.4812 14.3547 9.34681 14.0051 9.34985C13.6555 9.35289 13.3211 9.49311 13.0739 9.74032C12.8267 9.98753 12.6865 10.322 12.6834 10.6715C12.6804 11.0211 12.8148 11.3579 13.0577 11.6094L17.4483 16.0001L13.0577 20.3907Z" fill="#97D80F"/>
</svg>
