<svg width="25" height="25" viewBox="0 0 25 25" fill="none" xmlns="http://www.w3.org/2000/svg">
<g clip-path="url(#clip0_484_3324)">
<path d="M12.7695 0.786133C6.29745 0.786133 1.05078 6.0328 1.05078 12.5049C1.05078 18.977 6.29745 24.2236 12.7695 24.2236C19.2416 24.2236 24.4883 18.977 24.4883 12.5049C24.4883 6.0328 19.2416 0.786133 12.7695 0.786133ZM8.87661 19.4939H5.87919V10.1248H8.87661V19.4939ZM7.37792 8.77157C7.05595 8.77158 6.7412 8.67611 6.47348 8.49724C6.20576 8.31836 5.9971 8.06411 5.87388 7.76665C5.75066 7.46918 5.71842 7.14186 5.78123 6.82607C5.84404 6.51028 5.99909 6.22021 6.22676 5.99253C6.45443 5.76486 6.7445 5.60982 7.0603 5.547C7.37609 5.48419 7.70341 5.51643 8.00088 5.63965C8.29834 5.76287 8.55259 5.97154 8.73146 6.23925C8.91034 6.50697 9.00581 6.82172 9.0058 7.1437C9.0058 7.57543 8.83429 7.98949 8.529 8.29478C8.22372 8.60006 7.80966 8.77157 7.37792 8.77157ZM19.7854 19.4939H16.844V14.9773C16.844 13.8988 16.8219 12.5199 15.3124 12.5199C13.7807 12.5199 13.5476 13.6889 13.5476 14.8977V19.4939H10.6063V10.2145H13.4328V11.4812C14.15 10.7349 15.1847 9.98282 16.2594 9.98282C19.2414 9.98282 19.7891 11.9047 19.7891 14.3984L19.7854 19.4939Z" fill="url(#paint0_linear_484_3324)"/>
</g>
<defs>
<linearGradient id="paint0_linear_484_3324" x1="2.02589" y1="1.13279" x2="21.9459" y2="22.8392" gradientUnits="userSpaceOnUse">
<stop stop-color="#333CEF"/>
<stop offset="0.333333" stop-color="#0B98FF"/>
<stop offset="0.666667" stop-color="#9CE600"/>
<stop offset="1" stop-color="#ACD64E"/>
</linearGradient>
<clipPath id="clip0_484_3324">
<rect width="24" height="24" fill="white" transform="translate(0.769531 0.504883)"/>
</clipPath>
</defs>
</svg>
