<svg width="40" height="40" viewBox="0 0 40 40" fill="none" xmlns="http://www.w3.org/2000/svg">
<path d="M25 31.3282H22.2184L21.0973 28.3386C20.9258 27.8812 20.4886 27.5782 20 27.5782C19.5115 27.5782 19.0743 27.8812 18.9028 28.3386L17.7817 31.3282H15C14.5118 31.3282 14.0747 31.6309 13.903 32.0879C13.7314 32.545 13.861 33.0605 14.2283 33.382L16.3281 35.2193L15.1501 38.4239C14.9831 38.8782 15.1127 39.3885 15.4761 39.7082C15.8396 40.0279 16.3623 40.0911 16.7914 39.8676L20 38.1964L23.2087 39.8676C23.638 40.0911 24.1606 40.0279 24.524 39.7082C24.8874 39.3885 25.017 38.8782 24.85 38.4239L23.672 35.2193L25.7718 33.382C26.1391 33.0605 26.2687 32.5449 26.0971 32.0879C25.9253 31.6309 25.4882 31.3282 25 31.3282ZM21.1943 35.2721L21.6052 36.3898L20.5414 35.8357C20.3718 35.7474 20.1859 35.7032 20 35.7032C19.8142 35.7032 19.6283 35.7474 19.4587 35.8357L18.3949 36.3898L18.8058 35.2721C18.9732 34.8167 18.8427 34.3053 18.4776 33.9858L18.1189 33.672H18.5938C19.0823 33.672 19.5196 33.369 19.6911 32.9116L20 32.0877L20.309 32.9116C20.4805 33.369 20.9178 33.672 21.4063 33.672H21.8811L21.5225 33.9858C21.1574 34.3053 21.0268 34.8167 21.1943 35.2721Z" fill="#97D80F"/>
<path d="M11.25 31.3282H8.4684L7.34731 28.3386C7.17582 27.8812 6.73856 27.5782 6.25004 27.5782C5.76152 27.5782 5.32426 27.8812 5.15277 28.3386L4.03168 31.3282H1.17192C0.680665 31.3282 0.241603 31.6347 0.0720714 32.0957C-0.0974598 32.5567 0.0384777 33.0746 0.412696 33.3929L2.57387 35.2308L1.40012 38.4239C1.23309 38.8782 1.3627 39.3885 1.72606 39.7082C2.08957 40.0279 2.61223 40.0911 3.04137 39.8676L6.25004 38.1964L9.45871 39.8676C9.88801 40.0911 10.4106 40.0279 10.774 39.7082C11.1374 39.3885 11.267 38.8782 11.1 38.4239L9.92199 35.2193L12.0218 33.382C12.3891 33.0605 12.5187 32.5449 12.3471 32.0879C12.1753 31.6309 11.7382 31.3282 11.25 31.3282ZM7.44426 35.2721L7.8552 36.3898L6.79137 35.8357C6.62176 35.7474 6.4359 35.7032 6.25004 35.7032C6.06418 35.7032 5.87832 35.7474 5.70871 35.8357L4.64488 36.3898L5.05582 35.2721C5.22527 34.8111 5.08926 34.2932 4.71512 33.975L4.35871 33.672H4.84379C5.33231 33.672 5.76957 33.369 5.94106 32.9116L6.25004 32.0877L6.55902 32.9116C6.73051 33.369 7.16777 33.672 7.65629 33.672H8.13113L7.77246 33.9858C7.40738 34.3053 7.27684 34.8167 7.44426 35.2721Z" fill="#97D80F"/>
<path d="M38.8282 31.3282H35.9684L34.8473 28.3386C34.6758 27.8812 34.2386 27.5782 33.75 27.5782C33.2615 27.5782 32.8243 27.8812 32.6528 28.3386L31.5317 31.3282H28.75C28.2618 31.3282 27.8247 31.6309 27.653 32.0879C27.4814 32.545 27.611 33.0605 27.9783 33.382L30.0781 35.2193L28.9001 38.4239C28.7331 38.8782 28.8627 39.3885 29.2261 39.7082C29.5896 40.0279 30.1123 40.0911 30.5414 39.8676L33.75 38.1964L36.9587 39.8676C37.388 40.0911 37.9106 40.0279 38.274 39.7082C38.6374 39.3885 38.767 38.8782 38.6 38.4239L37.4262 35.2308L39.5874 33.3929C39.9616 33.0746 40.0975 32.5568 39.928 32.0957C39.7585 31.6346 39.3194 31.3282 38.8282 31.3282ZM34.9443 35.2721L35.3552 36.3898L34.2914 35.8357C34.1218 35.7474 33.9359 35.7032 33.75 35.7032C33.5642 35.7032 33.3783 35.7474 33.2087 35.8357L32.1449 36.3898L32.5558 35.2721C32.7232 34.8167 32.5927 34.3053 32.2276 33.9858L31.8689 33.672H32.3438C32.8323 33.672 33.2696 33.369 33.4411 32.9116L33.75 32.0877L34.059 32.9116C34.2305 33.369 34.6678 33.672 35.1563 33.672H35.6414L35.285 33.975C34.9108 34.2932 34.7748 34.8111 34.9443 35.2721Z" fill="#97D80F"/>
<path d="M36.4843 0.00012207H3.51562C1.57711 0.00012207 0 1.57723 0 3.51574V18.9063C0 20.8448 1.57711 22.422 3.51562 22.422H16.3896L19.1713 25.2037C19.4001 25.4325 19.7 25.5469 19.9999 25.5469C20.2997 25.5469 20.5997 25.4326 20.8285 25.2037L23.6102 22.422H36.4841C38.4227 22.422 39.9998 20.8448 39.9998 18.9063V3.51574C39.9999 1.57723 38.4228 0.00012207 36.4843 0.00012207ZM37.6562 18.9063C37.6562 19.5525 37.1305 20.0782 36.4843 20.0782H23.125C22.8141 20.0782 22.516 20.2017 22.2964 20.4215L20 22.7178L17.7036 20.4215C17.4839 20.2017 17.1857 20.0782 16.875 20.0782H3.51562C2.86945 20.0782 2.34375 19.5525 2.34375 18.9063V3.51574C2.34375 2.86957 2.86945 2.34387 3.51562 2.34387H36.4843C37.1305 2.34387 37.6562 2.86957 37.6562 3.51574V18.9063Z" fill="#97D80F"/>
<path d="M33.125 5.07825H6.875C6.22781 5.07825 5.70312 5.60293 5.70312 6.25012C5.70312 6.89731 6.22781 7.422 6.875 7.422H33.125C33.7722 7.422 34.2969 6.89731 34.2969 6.25012C34.2969 5.60293 33.7722 5.07825 33.125 5.07825Z" fill="#97D80F"/>
<path d="M33.125 10.0782H6.875C6.22781 10.0782 5.70312 10.6029 5.70312 11.2501C5.70312 11.8973 6.22781 12.422 6.875 12.422H33.125C33.7722 12.422 34.2969 11.8973 34.2969 11.2501C34.2969 10.6029 33.7722 10.0782 33.125 10.0782Z" fill="#97D80F"/>
<path d="M15.625 15.0782H6.875C6.22781 15.0782 5.70312 15.6029 5.70312 16.2501C5.70312 16.8973 6.22781 17.422 6.875 17.422H15.625C16.2722 17.422 16.7969 16.8973 16.7969 16.2501C16.7969 15.6029 16.2722 15.0782 15.625 15.0782Z" fill="#97D80F"/>
</svg>
