<svg width="40" height="40" viewBox="0 0 40 40" fill="none" xmlns="http://www.w3.org/2000/svg">
<g clip-path="url(#clip0_114_6048)">
<path d="M29.2641 3.65425C29.0448 3.43489 28.7474 3.3117 28.4373 3.3117H20.5304V3.07812C20.5304 1.38083 19.1495 0 17.4523 0H12.5484C10.8512 0 9.47032 1.38083 9.47032 3.07812V3.3117H1.56335C0.917851 3.3117 0.394531 3.83502 0.394531 4.48052V38.8309C0.394531 39.4764 0.917851 39.9998 1.56335 39.9998H28.4373C29.1552 40.0073 29.721 39.3326 29.5873 38.6275L29.6061 4.48114C29.6064 4.17101 29.4833 3.87353 29.2641 3.65425ZM11.808 3.07812C11.808 2.66987 12.1401 2.33771 12.5484 2.33771H17.4522C17.8605 2.33771 18.1926 2.66987 18.1926 3.07812V5.41185H11.808V3.07812ZM10.6391 7.74957H19.3615C20.007 7.74957 20.5303 7.22625 20.5303 6.58075V5.64934H27.2678L27.2656 9.60732H2.73217V5.64934H9.47025V6.58075C9.47032 7.22625 9.99364 7.74957 10.6391 7.74957ZM2.73217 11.945H27.2644L27.2501 37.6621H2.73217V11.945Z" fill="#97D80F"/>
<path d="M9.81285 20.2267C10.2693 20.6831 11.0094 20.6831 11.4658 20.2267C11.9224 19.7702 11.9224 19.0301 11.4658 18.5737L10.6577 17.7655L11.4658 16.9574C11.9224 16.5009 11.9224 15.7608 11.4658 15.3044C11.0094 14.8479 10.2693 14.8479 9.81285 15.3044L9.00471 16.1125L8.19657 15.3044C7.74012 14.8479 7.00002 14.8479 6.54357 15.3044C6.08704 15.7608 6.08704 16.5009 6.54357 16.9574L7.35171 17.7655L6.54357 18.5737C6.08704 19.0301 6.08704 19.7702 6.54357 20.2267C7.00002 20.6831 7.74012 20.6831 8.19657 20.2267L9.00471 19.4185L9.81285 20.2267Z" fill="#97D80F"/>
<path d="M22.3472 31.7597L23.1553 30.9515C23.6118 30.4951 23.6118 29.755 23.1553 29.2985C22.6989 28.8421 21.9588 28.8421 21.5023 29.2985L20.6942 30.1067L19.886 29.2985C19.4296 28.8421 18.6895 28.8421 18.233 29.2985C17.7765 29.755 17.7765 30.4951 18.233 30.9515L19.0412 31.7597L18.2331 32.5679C17.7766 33.0243 17.7766 33.7644 18.2331 34.2209C18.6895 34.6773 19.4296 34.6773 19.8861 34.2209L20.6942 33.4127L21.5024 34.2209C21.9588 34.6773 22.6989 34.6773 23.1554 34.2209C23.6119 33.7644 23.6119 33.0243 23.1554 32.5679L22.3472 31.7597Z" fill="#97D80F"/>
<path d="M20.3572 19.0626L20.6114 19.3312C21.0557 19.8006 21.7956 19.8199 22.2637 19.3767C22.7326 18.933 22.753 18.1932 22.3093 17.7244L20.0409 15.3274C19.6302 14.8834 18.8268 14.818 18.3665 15.3034L15.9695 17.6946C15.5124 18.1505 15.5115 18.8905 15.9675 19.3476C16.4233 19.8046 17.1634 19.8056 17.6205 19.3496L18.0198 18.9513L18.0178 20.532C18.0147 23.1525 16.5663 25.5275 14.2379 26.7299L13.0518 27.3425C10.3984 28.7128 8.74781 31.4192 8.74414 34.4057C8.74336 35.0512 9.26598 35.5751 9.91155 35.5759C10.5569 35.5768 11.0812 35.054 11.0819 34.4085C11.0844 32.299 12.2504 30.3875 14.1244 29.4196L15.3106 28.807C18.4182 27.2021 20.3513 24.0323 20.3555 20.5349L20.3572 19.0626Z" fill="#97D80F"/>
<path d="M39.6058 29.6148V10.1313C39.6068 10.1181 39.6068 10.1051 39.6058 10.092V4.61137C39.6058 3.96392 39.0809 3.43904 38.4334 3.43904H37.4982V1.17522C37.4362 -0.380283 35.2148 -0.379111 35.1534 1.17522V3.43896H34.2173C33.5698 3.43896 33.0449 3.96384 33.0449 4.61129V33.5123C33.0449 34.917 33.424 36.2976 34.141 37.5054L35.2814 39.4261C35.491 39.7791 35.87 39.9967 36.2806 39.9998H36.2894C36.6967 39.9998 37.075 39.7885 37.2884 39.4411L38.4488 37.5522C39.2057 36.32 39.6058 34.9043 39.6058 33.4582V29.6538C39.6068 29.6409 39.6068 29.6279 39.6058 29.6148ZM35.3896 11.284H37.261V28.4621H35.3896V11.284ZM37.261 5.78378V8.93924H35.3896V5.78378H37.261ZM36.4508 36.325L36.3065 36.56L36.157 36.3084C35.655 35.4628 35.3896 34.4959 35.3896 33.5124V30.8068H37.261V33.4584C37.261 34.471 36.9809 35.4622 36.4508 36.325Z" fill="#97D80F"/>
</g>
<defs>
<clipPath id="clip0_114_6048">
<rect width="40" height="40" fill="white"/>
</clipPath>
</defs>
</svg>
