<svg width="40" height="40" viewBox="0 0 40 40" fill="none" xmlns="http://www.w3.org/2000/svg">
<path d="M35.2344 29.5703C35.8816 29.5703 36.4062 29.0456 36.4062 28.3984V22.5391C36.4062 19.7934 34.8241 17.4106 32.5237 16.2535C32.9995 15.6063 33.2812 14.8083 33.2812 13.9453C33.2812 11.7914 31.5289 10.0391 29.375 10.0391C27.2211 10.0391 25.4688 11.7914 25.4688 13.9453C25.4688 14.8073 25.75 15.6046 26.2247 16.2514C25.9149 16.407 25.6164 16.5859 25.3309 16.7877C24.7586 16.1224 24.0641 15.5654 23.2827 15.151C23.9148 14.4027 24.2969 13.4367 24.2969 12.3828C24.2969 10.0135 22.3693 8.08594 20 8.08594C17.6307 8.08594 15.7031 10.0135 15.7031 12.3828C15.7031 13.4367 16.0852 14.4027 16.7172 15.151C15.9359 15.5653 15.2415 16.1223 14.6692 16.7874C14.3837 16.5859 14.0847 16.4075 13.7748 16.252C14.2498 15.6051 14.5312 14.8076 14.5312 13.9453C14.5312 11.7914 12.7788 10.0391 10.6249 10.0391C8.47101 10.0391 6.71867 11.7914 6.71867 13.9453C6.71867 14.8083 7.00047 15.6064 7.47617 16.2535C5.17594 17.4106 3.59375 19.7934 3.59375 22.5391V28.3984C3.59375 29.0456 4.11844 29.5703 4.76562 29.5703H12.9688V30.7422C12.9688 31.3894 13.4934 31.9141 14.1406 31.9141H25.8594C26.5066 31.9141 27.0312 31.3894 27.0312 30.7422V29.5703H35.2344ZM27.8125 13.9453C27.8125 13.0837 28.5134 12.3828 29.375 12.3828C30.2366 12.3828 30.9375 13.0837 30.9375 13.9453C30.9375 14.8069 30.2366 15.5078 29.375 15.5078C28.5134 15.5078 27.8125 14.8069 27.8125 13.9453ZM29.375 17.8516C31.9597 17.8516 34.0625 19.9544 34.0625 22.5391V27.2266H27.0312V21.3672C27.0312 20.4622 26.8593 19.5966 26.5465 18.8013C27.3566 18.1856 28.3399 17.8516 29.375 17.8516ZM18.0469 12.3828C18.0469 11.3059 18.923 10.4297 20 10.4297C21.077 10.4297 21.9531 11.3059 21.9531 12.3828C21.9531 13.4598 21.077 14.3359 20 14.3359C18.923 14.3359 18.0469 13.4598 18.0469 12.3828ZM9.0625 13.9453C9.0625 13.0837 9.76344 12.3828 10.625 12.3828C11.4866 12.3828 12.1875 13.0837 12.1875 13.9453C12.1875 14.8069 11.4866 15.5078 10.625 15.5078C9.76344 15.5078 9.0625 14.8069 9.0625 13.9453ZM5.9375 27.2266V22.5391C5.9375 19.9544 8.04031 17.8516 10.625 17.8516C11.6572 17.8516 12.6425 18.1865 13.4533 18.802C13.1406 19.5971 12.9688 20.4624 12.9688 21.3672V27.2266H5.9375ZM24.6875 29.5703H15.3125V21.3672C15.3125 18.7825 17.4153 16.6797 20 16.6797C22.5847 16.6797 24.6875 18.7825 24.6875 21.3672V29.5703Z" fill="#97D80F"/>
<path d="M38.8281 28.9844C38.1809 28.9844 37.6562 29.5091 37.6562 30.1562V36.0938H31.7188C31.0716 36.0938 30.5469 36.6184 30.5469 37.2656C30.5469 37.9128 31.0716 38.4375 31.7188 38.4375H38.8281C39.4753 38.4375 40 37.9128 40 37.2656V30.1562C40 29.5091 39.4753 28.9844 38.8281 28.9844Z" fill="#97D80F"/>
<path d="M8.28125 36.0938H2.34375V30.1562C2.34375 29.5091 1.81906 28.9844 1.17188 28.9844C0.524687 28.9844 0 29.5091 0 30.1562V37.2656C0 37.9128 0.524687 38.4375 1.17188 38.4375H8.28125C8.92844 38.4375 9.45312 37.9128 9.45312 37.2656C9.45312 36.6184 8.92844 36.0938 8.28125 36.0938Z" fill="#97D80F"/>
<path d="M1.17188 11.0156C1.81906 11.0156 2.34375 10.4909 2.34375 9.84375V3.90625H8.28125C8.92844 3.90625 9.45312 3.38156 9.45312 2.73438C9.45312 2.08719 8.92844 1.5625 8.28125 1.5625H1.17188C0.524687 1.5625 0 2.08719 0 2.73438V9.84375C0 10.4909 0.524687 11.0156 1.17188 11.0156Z" fill="#97D80F"/>
<path d="M38.8281 1.5625H31.6406C30.9934 1.5625 30.4688 2.08719 30.4688 2.73438C30.4688 3.38156 30.9934 3.90625 31.6406 3.90625H37.6562V9.84375C37.6562 10.4909 38.1809 11.0156 38.8281 11.0156C39.4753 11.0156 40 10.4909 40 9.84375V2.73438C40 2.08719 39.4753 1.5625 38.8281 1.5625Z" fill="#97D80F"/>
</svg>
