<svg width="40" height="40" viewBox="0 0 40 40" fill="none" xmlns="http://www.w3.org/2000/svg">
<path d="M14.1218 18.0111L15.0505 18.1967C15.0806 18.2723 15.1118 18.3475 15.1441 18.4223L14.6185 19.2106C14.3086 19.6754 14.3699 20.2943 14.7649 20.6893L17.4279 23.352C17.823 23.747 18.4419 23.8081 18.9066 23.4983L19.6945 22.973C19.7693 23.0053 19.8447 23.0365 19.9205 23.0668L20.1061 23.9952C20.2156 24.543 20.6966 24.9373 21.2552 24.9373H25.0209C25.5795 24.9373 26.0605 24.543 26.17 23.9952L26.3556 23.0667C26.4314 23.0365 26.5067 23.0053 26.5816 22.9729L27.3695 23.4983C27.8343 23.8082 28.4532 23.747 28.8483 23.3519L31.5112 20.6893C31.9062 20.2943 31.9675 19.6754 31.6576 19.2105L31.132 18.4223C31.1643 18.3475 31.1955 18.2722 31.2257 18.1965L32.1543 18.0109C32.7021 17.9014 33.0965 17.4204 33.0965 16.8618V13.0961C33.0965 12.5375 32.7022 12.0565 32.1544 11.947L31.2256 11.7613C31.1955 11.6857 31.1643 11.6104 31.132 11.5357L31.6576 10.7474C31.9675 10.2826 31.9062 9.66363 31.5112 9.26863L28.8483 6.6059C28.4532 6.2109 27.8343 6.14973 27.3695 6.45957L26.5816 6.98488C26.5068 6.95254 26.4314 6.92129 26.3556 6.89105L26.17 5.96262C26.0605 5.4148 25.5795 5.02051 25.0209 5.02051H21.2552C20.6966 5.02051 20.2156 5.4148 20.1061 5.96262L19.9205 6.89113C19.8448 6.92129 19.7695 6.95254 19.6946 6.98488L18.9066 6.45949C18.442 6.14957 17.823 6.21082 17.4279 6.60582L14.7649 9.26856C14.3698 9.66356 14.3086 10.2825 14.6185 10.7473L15.1441 11.5355C15.1118 11.6104 15.0806 11.6856 15.0505 11.7612L14.1218 11.9469C13.574 12.0564 13.1797 12.5375 13.1797 13.0961V16.8617C13.1797 17.4206 13.574 17.9016 14.1218 18.0111ZM15.5234 14.0571L16.1635 13.9291C16.5866 13.8445 16.9289 13.5343 17.0547 13.1216C17.1731 12.7331 17.3307 12.3532 17.5231 11.9923C17.7263 11.6114 17.7036 11.1499 17.4641 10.7908L17.1015 10.2469L18.4056 8.94285L18.9494 9.30543C19.3084 9.54481 19.77 9.56754 20.1509 9.36449C20.5121 9.17184 20.8922 9.0141 21.2807 8.89559C21.6932 8.76973 22.0033 8.42746 22.0879 8.00449L22.2159 7.36465H24.0599L24.1879 8.00449C24.2725 8.42746 24.5826 8.76973 24.9951 8.89559C25.3846 9.01441 25.7646 9.17215 26.1245 9.36426C26.5053 9.56754 26.9672 9.54504 27.3265 9.30551L27.8702 8.94293L29.1743 10.2469L28.8116 10.7908C28.5723 11.1499 28.5496 11.6114 28.7526 11.9921C28.9452 12.3533 29.1027 12.7334 29.2211 13.1217C29.3469 13.5343 29.6892 13.8445 30.1123 13.9291L30.7524 14.0571V15.9012L30.1123 16.0292C29.6892 16.1138 29.3469 16.424 29.2211 16.8367C29.1026 17.2256 28.945 17.6054 28.7527 17.9658C28.5495 18.3467 28.5721 18.8084 28.8116 19.1675L29.1743 19.7114L27.8702 21.0154L27.3265 20.6529C26.9673 20.4136 26.5059 20.3907 26.1249 20.5939C25.764 20.7864 25.3838 20.9441 24.995 21.0628C24.5825 21.1886 24.2725 21.5309 24.1879 21.9539L24.0599 22.5937H22.2159L22.0879 21.9539C22.0034 21.5309 21.6933 21.1886 21.2808 21.0628C20.891 20.9439 20.511 20.7861 20.1515 20.5941C19.7705 20.3907 19.3086 20.4132 18.9494 20.6528L18.4056 21.0154L17.1016 19.7114L17.4642 19.1675C17.7035 18.8086 17.7262 18.3471 17.5234 17.9663C17.3306 17.6048 17.173 17.2247 17.0548 16.8368C16.929 16.424 16.5866 16.1139 16.1636 16.0293L15.5235 15.9013V14.0571H15.5234Z" fill="#97D80F"/>
<path d="M23.1374 18.6615C25.1678 18.6615 26.8197 17.0097 26.8197 14.9793C26.6345 10.1009 19.6395 10.1023 19.4551 14.9794C19.4551 17.0097 21.107 18.6615 23.1374 18.6615ZM23.1374 13.6407C23.8755 13.6407 24.4759 14.2412 24.4759 14.9792C24.4087 16.7526 21.8659 16.752 21.7988 14.9792C21.7988 14.2412 22.3994 13.6407 23.1374 13.6407Z" fill="#97D80F"/>
<path d="M36.9453 29.9584C37.5925 29.9584 38.1172 29.4337 38.1172 28.7865V1.17188C38.1172 0.524687 37.5925 0 36.9453 0H8.07547C4.66078 0 1.88281 2.77805 1.88281 6.19273V33.8073C1.88281 37.222 4.66078 40 8.07547 40H36.9453C38.4985 39.9423 38.4973 37.7134 36.9453 37.6562H36.2032C34.3202 35.5409 34.3202 32.0736 36.2032 29.9584H36.9453ZM4.22656 6.19273C4.22656 4.07039 5.95312 2.34375 8.07547 2.34375H8.15883V27.6146H8.07422C6.68125 27.6146 5.31344 28.0973 4.22648 28.9565L4.22656 6.19273ZM8.07547 37.6562C2.975 37.4621 2.97891 30.1506 8.07547 29.9584H33.3841C32.9455 30.7907 32.6539 31.6938 32.5211 32.6355H8.07547C6.52227 32.6931 6.52344 34.9221 8.07547 34.9792H32.5211C32.6539 35.9208 32.9455 36.824 33.3841 37.6563H8.07547V37.6562ZM35.7734 27.6146H10.5027V2.34375H35.7734V27.6146Z" fill="#97D80F"/>
</svg>
