<svg width="40" height="40" viewBox="0 0 40 40" fill="none" xmlns="http://www.w3.org/2000/svg">
<g clip-path="url(#clip0_114_6106)">
<path d="M26.2455 17.6727C26.5055 18.3877 26.6406 19.1448 26.6406 19.9219C26.6406 20.5691 27.1653 21.0938 27.8125 21.0938H38.75C39.3972 21.0938 39.9219 20.5691 39.9219 19.9219C39.9219 14.6006 37.8497 9.59781 34.0869 5.835C30.3241 2.07219 25.3213 0 20 0C14.6788 0 9.67594 2.07219 5.9132 5.835C2.15031 9.59781 0.078125 14.6006 0.078125 19.9219C0.078125 20.5691 0.602812 21.0938 1.25 21.0938H12.1875C12.8347 21.0938 13.3594 20.5691 13.3594 19.9219C13.3594 16.2602 16.3384 13.2812 20 13.2812C20.7772 13.2812 21.5342 13.4164 22.2493 13.6764C19.9554 14.8955 17.6302 16.215 16.9617 16.8836C15.2864 18.5589 15.2864 21.2849 16.9617 22.9602C17.7994 23.798 18.8998 24.2168 20.0001 24.2168C21.1004 24.2168 22.2008 23.798 23.0384 22.9602C23.7069 22.2917 25.0263 19.9666 26.2455 17.6727ZM20 10.9375C15.443 10.9375 11.6676 14.3475 11.0917 18.75H2.46047C2.5107 17.9905 2.61047 17.2445 2.75453 16.5141L5.35875 17.212C5.98391 17.3795 6.62648 17.0085 6.79398 16.3834C6.96148 15.7582 6.59055 15.1156 5.96539 14.9481L3.36102 14.2502C3.94148 12.5522 4.77492 10.9704 5.81625 9.55008L7.8757 11.2782C8.37148 11.6942 9.11063 11.6295 9.52664 11.1337C9.94266 10.638 9.87797 9.89883 9.38219 9.48281L7.32477 7.75625C8.55062 6.47953 9.96656 5.3868 11.5271 4.52461L12.6646 6.96414C12.9381 7.5507 13.6354 7.80445 14.222 7.53094C14.8085 7.25742 15.0623 6.56016 14.7888 5.97359L13.65 3.53141C15.2738 2.90008 17.0137 2.50352 18.8281 2.38344V5.07812C18.8281 5.72531 19.3528 6.25 20 6.25C20.6472 6.25 21.1719 5.72531 21.1719 5.07812V2.38344C22.9863 2.50352 24.7262 2.90008 26.35 3.53141L25.2113 5.97359C24.9377 6.56016 25.1915 7.25742 25.778 7.53094C26.3646 7.80445 27.0619 7.5507 27.3354 6.96414L28.4729 4.52461C30.0334 5.3868 31.4494 6.47953 32.6752 7.75625L30.6177 9.48273C30.122 9.89875 30.0573 10.6379 30.4733 11.1337C30.8893 11.6295 31.6284 11.6941 32.1242 11.2781L34.1837 9.55C35.2251 10.9703 36.0585 12.5521 36.6389 14.2502L34.0345 14.948C33.4094 15.1155 33.0384 15.7581 33.2059 16.3833C33.3735 17.0084 34.016 17.3794 34.6412 17.2119L37.2454 16.5141C37.3895 17.2444 37.4892 17.9905 37.5395 18.7499H28.9085C28.7394 17.4547 28.2881 16.2212 27.578 15.1102C28.1363 14.0156 28.5788 13.1241 28.7849 12.7063C29.0071 12.2559 28.9177 11.7142 28.5626 11.3591C28.2076 11.0041 27.6656 10.9148 27.2155 11.1368C26.7978 11.3429 25.9066 11.7852 24.8125 12.3433C23.3707 11.4216 21.7217 10.9375 20 10.9375ZM18.6189 21.303C17.8574 20.5414 17.8574 19.3024 18.6189 18.5409C19.1281 18.0316 21.9349 16.4668 25.0812 14.8408C23.4552 17.987 21.8902 20.7938 21.3811 21.303C20.6195 22.0645 19.3805 22.0645 18.6189 21.303Z" fill="#97D80F"/>
<path d="M31.3281 22.8125C26.5895 22.8125 22.7344 26.6677 22.7344 31.4062C22.7344 36.1448 26.5895 40 31.3281 40C36.0667 40 39.9219 36.1448 39.9219 31.4062C39.9219 26.6677 36.0667 22.8125 31.3281 22.8125ZM31.3281 37.6562C27.8819 37.6562 25.0781 34.8525 25.0781 31.4062C25.0781 27.96 27.8819 25.1562 31.3281 25.1562C34.7744 25.1562 37.5781 27.96 37.5781 31.4062C37.5781 34.8525 34.7744 37.6562 31.3281 37.6562Z" fill="#97D80F"/>
<path d="M34.0625 30.625C34.7097 30.625 35.2344 30.1003 35.2344 29.4531C35.2344 28.8059 34.7097 28.2812 34.0625 28.2812C33.4153 28.2812 32.8906 28.8059 32.8906 29.4531C32.8906 30.1003 33.4153 30.625 34.0625 30.625Z" fill="#97D80F"/>
<path d="M28.5938 30.625C29.241 30.625 29.7656 30.1003 29.7656 29.4531C29.7656 28.8059 29.241 28.2812 28.5938 28.2812C27.9465 28.2812 27.4219 28.8059 27.4219 29.4531C27.4219 30.1003 27.9465 30.625 28.5938 30.625Z" fill="#97D80F"/>
<path d="M33.2198 32.9356C32.7122 33.4608 32.0404 33.75 31.3281 33.75C30.6157 33.75 29.944 33.4608 29.4364 32.9356C28.9865 32.4702 28.2447 32.4576 27.7793 32.9074C27.314 33.3571 27.3013 34.099 27.7511 34.5644C28.7043 35.5507 29.9747 36.0938 31.3281 36.0938C32.6815 36.0938 33.9519 35.5507 34.9051 34.5645C35.3549 34.0991 35.3422 33.3572 34.8768 32.9075C34.4115 32.4577 33.6696 32.4703 33.2198 32.9356Z" fill="#97D80F"/>
<path d="M8.3869 22.8171C3.88378 22.9636 0.229248 26.6182 0.0827637 31.1213C-0.0786425 36.0847 3.99347 40.1568 8.9569 39.9954C13.46 39.8489 17.1146 36.1944 17.261 31.6914C17.4225 26.7278 13.3503 22.6557 8.3869 22.8171ZM8.37854 37.6496C5.17245 37.5022 2.57604 34.9057 2.42862 31.6996C2.25956 28.0223 5.28784 24.994 8.96518 25.1631C12.1713 25.3104 14.7677 27.9069 14.9151 31.113C15.0842 34.7903 12.0559 37.8185 8.37854 37.6496Z" fill="#97D80F"/>
<path d="M11.4062 30.625C12.0535 30.625 12.5781 30.1003 12.5781 29.4531C12.5781 28.8059 12.0535 28.2812 11.4062 28.2812C10.759 28.2812 10.2344 28.8059 10.2344 29.4531C10.2344 30.1003 10.759 30.625 11.4062 30.625Z" fill="#97D80F"/>
<path d="M5.9375 30.625C6.58471 30.625 7.10938 30.1003 7.10938 29.4531C7.10938 28.8059 6.58471 28.2812 5.9375 28.2812C5.29029 28.2812 4.76562 28.8059 4.76562 29.4531C4.76562 30.1003 5.29029 30.625 5.9375 30.625Z" fill="#97D80F"/>
<path d="M8.67187 31.7969C7.31843 31.7969 6.04804 32.34 5.09484 33.3262C4.64507 33.7916 4.65773 34.5334 5.12312 34.9832C5.58851 35.433 6.33039 35.4204 6.78015 34.955C7.28773 34.4298 7.95953 34.1406 8.67187 34.1406C9.38421 34.1406 10.056 34.4298 10.5636 34.9551C11.0134 35.4205 11.7553 35.433 12.2206 34.9833C12.6859 34.5335 12.6987 33.7916 12.2489 33.3262C11.2957 32.34 10.0253 31.7969 8.67187 31.7969Z" fill="#97D80F"/>
</g>
<defs>
<clipPath id="clip0_114_6106">
<rect width="40" height="40" fill="white"/>
</clipPath>
</defs>
</svg>
