<svg width="40" height="40" viewBox="0 0 40 40" fill="none" xmlns="http://www.w3.org/2000/svg">
<path d="M32.3438 2.1918H27.9434C26.7822 0.850703 25.0709 0 23.1641 0H16.8359C14.9291 0 13.2178 0.850703 12.0566 2.1918H7.65625C5.71773 2.1918 4.14062 3.77203 4.14062 5.7143V36.4775C4.14062 38.4198 5.71773 40 7.65625 40H32.3438C34.2823 40 35.8594 38.4198 35.8594 36.4775V5.7143C35.8594 3.77195 34.2823 2.1918 32.3438 2.1918ZM16.8359 2.34836H23.1641C24.9748 2.34836 26.4785 3.56047 26.9727 5.16633H13.0273C13.5206 3.56328 15.0224 2.34836 16.8359 2.34836ZM33.5156 36.4775C33.5156 37.1249 32.9899 37.6516 32.3438 37.6516H7.65625C7.01008 37.6516 6.48438 37.1249 6.48438 36.4775V5.7143C6.48438 5.06687 7.01008 4.54016 7.65625 4.54016H10.7692C10.6001 5.11125 10.5078 5.71516 10.5078 6.34055C10.5078 6.98898 11.0325 7.51469 11.6797 7.51469H28.3203C28.9675 7.51469 29.4922 6.98898 29.4922 6.34055C29.4922 5.71516 29.3999 5.11125 29.2308 4.54016H32.3438C32.9899 4.54016 33.5156 5.06687 33.5156 5.7143V36.4775Z" fill="#97D80F"/>
<path d="M14.2235 23.3315L12.5 25.0582L12.0786 24.636C11.6211 24.1774 10.879 24.1774 10.4214 24.636C9.96371 25.0946 9.96371 25.838 10.4214 26.2965L11.6714 27.5489C12.1289 28.0074 12.871 28.0075 13.3286 27.5489L15.8807 24.9919C16.3383 24.5334 16.3383 23.7899 15.8807 23.3314C15.4231 22.8729 14.6811 22.8729 14.2235 23.3315Z" fill="#97D80F"/>
<path d="M28.6719 24.2661H19.2188C18.5716 24.2661 18.0469 24.7918 18.0469 25.4403C18.0469 26.0887 18.5716 26.6144 19.2188 26.6144H28.6719C29.3191 26.6144 29.8438 26.0887 29.8438 25.4403C29.8438 24.7918 29.3191 24.2661 28.6719 24.2661Z" fill="#97D80F"/>
<path d="M14.2235 30.0634L12.5 31.7902L12.0786 31.368C11.6211 30.9094 10.879 30.9094 10.4214 31.368C9.96371 31.8265 9.96371 32.5699 10.4214 33.0284L11.6714 34.2809C12.1289 34.7394 12.871 34.7395 13.3286 34.2809L15.8807 31.7238C16.3383 31.2653 16.3383 30.5219 15.8807 30.0634C15.4231 29.6048 14.6811 29.6048 14.2235 30.0634Z" fill="#97D80F"/>
<path d="M28.6719 30.998H19.2188C18.5716 30.998 18.0469 31.5237 18.0469 32.1722C18.0469 32.8206 18.5716 33.3463 19.2188 33.3463H28.6719C29.3191 33.3463 29.8438 32.8206 29.8438 32.1722C29.8438 31.5237 29.3191 30.998 28.6719 30.998Z" fill="#97D80F"/>
<path d="M22.2349 18.8341L25.8594 15.2026V15.3425C25.8594 15.9909 26.3841 16.5166 27.0313 16.5166C27.6785 16.5166 28.2032 15.9909 28.2032 15.3425C28.2032 12.0211 28.2086 12.3304 28.1897 12.1992C28.1068 11.6247 27.6153 11.1936 27.0309 11.1937H24.0625C23.4154 11.1937 22.8907 11.7194 22.8907 12.3679C22.8907 13.0163 23.4154 13.542 24.0625 13.542H24.2021L21.4063 16.3433L17.8599 12.7901C17.4023 12.3315 16.6603 12.3315 16.2026 12.7901L11.9839 17.0171C11.5262 17.4756 11.5262 18.219 11.9839 18.6776C12.4414 19.1361 13.1835 19.1361 13.6411 18.6776L17.0313 15.2808L20.5777 18.8341C21.0352 19.2926 21.7773 19.2927 22.2349 18.8341Z" fill="#97D80F"/>
</svg>
