<svg width="40" height="40" viewBox="0 0 40 40" fill="none" xmlns="http://www.w3.org/2000/svg">
<g clip-path="url(#clip0_114_6298)">
<path d="M36.4844 0H3.51562C1.57715 0 0 1.57715 0 3.51562V36.4844C0 38.4229 1.57715 40 3.51562 40H36.4844C38.4229 40 40 38.4229 40 36.4844V3.51562C40 1.57715 38.4229 0 36.4844 0ZM3.51562 2.34375H36.4844C37.1304 2.34375 37.6562 2.86957 37.6562 3.51562V9.375H2.34375V3.51562C2.34375 2.86957 2.86957 2.34375 3.51562 2.34375ZM36.4844 37.6562H3.51562C2.86957 37.6562 2.34375 37.1304 2.34375 36.4844V11.7188H37.6562V36.4844C37.6562 37.1304 37.1304 37.6562 36.4844 37.6562Z" fill="#97D80F"/>
<path d="M20 7.03125H34.1406C34.7879 7.03125 35.3125 6.50665 35.3125 5.85938C35.3125 5.2121 34.7879 4.6875 34.1406 4.6875H20C19.3527 4.6875 18.8281 5.2121 18.8281 5.85938C18.8281 6.50665 19.3527 7.03125 20 7.03125Z" fill="#97D80F"/>
<path d="M7.10742 5.85938C7.10742 6.50665 6.58252 7.03125 5.93555 7.03125C5.28827 7.03125 4.76367 6.50665 4.76367 5.85938C4.76367 5.2121 5.28827 4.6875 5.93555 4.6875C6.58252 4.6875 7.10742 5.2121 7.10742 5.85938Z" fill="#97D80F"/>
<path d="M11.7949 5.85938C11.7949 6.50665 11.27 7.03125 10.623 7.03125C9.97577 7.03125 9.45117 6.50665 9.45117 5.85938C9.45117 5.2121 9.97577 4.6875 10.623 4.6875C11.27 4.6875 11.7949 5.2121 11.7949 5.85938Z" fill="#97D80F"/>
<path d="M16.4824 5.85938C16.4824 6.50665 15.9575 7.03125 15.3105 7.03125C14.6633 7.03125 14.1387 6.50665 14.1387 5.85938C14.1387 5.2121 14.6633 4.6875 15.3105 4.6875C15.9575 4.6875 16.4824 5.2121 16.4824 5.85938Z" fill="#97D80F"/>
<path d="M32.6581 25.3885C32.9681 24.9725 32.9681 24.4025 32.6581 23.9868C32.4295 23.6804 26.9797 16.4844 20 16.4844C13.0203 16.4844 7.5705 23.6804 7.34192 23.9865C7.03186 24.4025 7.03186 24.9725 7.34192 25.3882C7.5705 25.6946 13.0203 32.8906 20 32.8906C26.9797 32.8906 32.4295 25.6946 32.6581 25.3885ZM20 30.5469C15.3558 30.5469 11.2653 26.3776 9.79706 24.6863C11.2622 22.9935 15.3415 18.8281 20 18.8281C24.6439 18.8281 28.7341 22.9965 30.2029 24.6887C28.7378 26.3815 24.6585 30.5469 20 30.5469Z" fill="#97D80F"/>
<path d="M5.9375 21.1719C6.58478 21.1719 7.10938 20.6473 7.10938 20V16.4844H10.625C11.2723 16.4844 11.7969 15.9598 11.7969 15.3125C11.7969 14.6652 11.2723 14.1406 10.625 14.1406H5.9375C5.29022 14.1406 4.76562 14.6652 4.76562 15.3125V20C4.76562 20.6473 5.29022 21.1719 5.9375 21.1719Z" fill="#97D80F"/>
<path d="M10.625 32.8906H7.10938V29.375C7.10938 28.7277 6.58478 28.2031 5.9375 28.2031C5.29022 28.2031 4.76562 28.7277 4.76562 29.375V34.0625C4.76562 34.7098 5.29022 35.2344 5.9375 35.2344H10.625C11.2723 35.2344 11.7969 34.7098 11.7969 34.0625C11.7969 33.4152 11.2723 32.8906 10.625 32.8906Z" fill="#97D80F"/>
<path d="M34.1406 14.1406H29.375C28.7277 14.1406 28.2031 14.6652 28.2031 15.3125C28.2031 15.9598 28.7277 16.4844 29.375 16.4844H32.9688V20C32.9688 20.6473 33.4933 21.1719 34.1406 21.1719C34.7879 21.1719 35.3125 20.6473 35.3125 20V15.3125C35.3125 14.6652 34.7879 14.1406 34.1406 14.1406Z" fill="#97D80F"/>
<path d="M34.1406 28.2031C33.4933 28.2031 32.9688 28.7277 32.9688 29.375V32.8906H29.375C28.7277 32.8906 28.2031 33.4152 28.2031 34.0625C28.2031 34.7098 28.7277 35.2344 29.375 35.2344H34.1406C34.7879 35.2344 35.3125 34.7098 35.3125 34.0625V29.375C35.3125 28.7277 34.7879 28.2031 34.1406 28.2031Z" fill="#97D80F"/>
<path d="M20 21.1719C18.0615 21.1719 16.4844 22.749 16.4844 24.6875C16.4844 26.626 18.0615 28.2031 20 28.2031C21.9385 28.2031 23.5156 26.626 23.5156 24.6875C23.5156 22.749 21.9385 21.1719 20 21.1719ZM20 25.8594C19.3539 25.8594 18.8281 25.3336 18.8281 24.6875C18.8281 24.0414 19.3539 23.5156 20 23.5156C20.6461 23.5156 21.1719 24.0414 21.1719 24.6875C21.1719 25.3336 20.6461 25.8594 20 25.8594Z" fill="#97D80F"/>
</g>
<defs>
<clipPath id="clip0_114_6298">
<rect width="40" height="40" fill="white"/>
</clipPath>
</defs>
</svg>
