<svg width="40" height="40" viewBox="0 0 40 40" fill="none" xmlns="http://www.w3.org/2000/svg">
<g clip-path="url(#clip0_114_6279)">
<path d="M36.4844 0.078125H3.51562C1.57711 0.078125 0 1.65523 0 3.59375V36.4062C0 38.3448 1.57711 39.9219 3.51562 39.9219H36.4844C38.4229 39.9219 40 38.3448 40 36.4062V3.59375C40 1.65523 38.4229 0.078125 36.4844 0.078125ZM3.51562 2.42188H36.4844C37.1305 2.42188 37.6562 2.94758 37.6562 3.59375V9.45312H2.34375V3.59375C2.34375 2.94758 2.86945 2.42188 3.51562 2.42188ZM36.4844 37.5781H3.51562C2.86945 37.5781 2.34375 37.0524 2.34375 36.4062V11.7969H37.6562V36.4062C37.6562 37.0524 37.1305 37.5781 36.4844 37.5781Z" fill="#97D80F"/>
<path d="M34.0625 14.1406H24.6875C24.0403 14.1406 23.5156 14.6653 23.5156 15.3125V20C23.5156 20.6472 24.0403 21.1719 24.6875 21.1719H34.0625C34.7097 21.1719 35.2344 20.6472 35.2344 20V15.3125C35.2344 14.6653 34.7097 14.1406 34.0625 14.1406ZM32.8906 18.8281H25.8594V16.4844H32.8906V18.8281Z" fill="#97D80F"/>
<path d="M34.0625 23.5156H24.6875C24.0403 23.5156 23.5156 24.0403 23.5156 24.6875C23.5156 25.3347 24.0403 25.8594 24.6875 25.8594H34.0625C34.7097 25.8594 35.2344 25.3347 35.2344 24.6875C35.2344 24.0403 34.7097 23.5156 34.0625 23.5156Z" fill="#97D80F"/>
<path d="M34.0625 28.2031H24.6875C24.0403 28.2031 23.5156 28.7278 23.5156 29.375C23.5156 30.0222 24.0403 30.5469 24.6875 30.5469H34.0625C34.7097 30.5469 35.2344 30.0222 35.2344 29.375C35.2344 28.7278 34.7097 28.2031 34.0625 28.2031Z" fill="#97D80F"/>
<path d="M34.0625 32.8906H24.6875C24.0403 32.8906 23.5156 33.4153 23.5156 34.0625C23.5156 34.7097 24.0403 35.2344 24.6875 35.2344H34.0625C34.7097 35.2344 35.2344 34.7097 35.2344 34.0625C35.2344 33.4153 34.7097 32.8906 34.0625 32.8906Z" fill="#97D80F"/>
<path d="M20 14.0625H5.85938C5.21219 14.0625 4.6875 14.5872 4.6875 15.2344C4.6875 15.8816 5.21219 16.4062 5.85938 16.4062H20C20.6472 16.4062 21.1719 15.8816 21.1719 15.2344C21.1719 14.5872 20.6472 14.0625 20 14.0625Z" fill="#97D80F"/>
<path d="M19.9999 32.8907H7.1093V29.961L10.6648 27.2944L13.4905 29.1782C13.9152 29.4613 14.4741 29.4371 14.8727 29.1182L20.732 24.4307C21.2374 24.0265 21.3194 23.289 20.915 22.7836C20.5108 22.2784 19.7734 22.1963 19.2679 22.6007L14.0777 26.7529L11.275 24.8844C10.8616 24.6088 10.3193 24.624 9.92188 24.922L7.10938 27.0314V20.0001C7.10938 19.3529 6.58469 18.8282 5.9375 18.8282C5.29031 18.8282 4.76562 19.3529 4.76562 20.0001V34.0626C4.76562 34.7098 5.29031 35.2345 5.9375 35.2345H20C20.6472 35.2345 21.1719 34.7098 21.1719 34.0626C21.1719 33.4154 20.6471 32.8907 19.9999 32.8907Z" fill="#97D80F"/>
<path d="M5.9375 7.10938C6.58471 7.10938 7.10938 6.58471 7.10938 5.9375C7.10938 5.29029 6.58471 4.76562 5.9375 4.76562C5.29029 4.76562 4.76562 5.29029 4.76562 5.9375C4.76562 6.58471 5.29029 7.10938 5.9375 7.10938Z" fill="#97D80F"/>
<path d="M10.625 7.10938C11.2722 7.10938 11.7969 6.58471 11.7969 5.9375C11.7969 5.29029 11.2722 4.76562 10.625 4.76562C9.97779 4.76562 9.45312 5.29029 9.45312 5.9375C9.45312 6.58471 9.97779 7.10938 10.625 7.10938Z" fill="#97D80F"/>
<path d="M15.3125 7.10938C15.9597 7.10938 16.4844 6.58471 16.4844 5.9375C16.4844 5.29029 15.9597 4.76562 15.3125 4.76562C14.6653 4.76562 14.1406 5.29029 14.1406 5.9375C14.1406 6.58471 14.6653 7.10938 15.3125 7.10938Z" fill="#97D80F"/>
<path d="M27.0312 7.10938H34.0625C34.7097 7.10938 35.2344 6.58469 35.2344 5.9375C35.2344 5.29031 34.7097 4.76562 34.0625 4.76562H27.0312C26.3841 4.76562 25.8594 5.29031 25.8594 5.9375C25.8594 6.58469 26.3841 7.10938 27.0312 7.10938Z" fill="#97D80F"/>
</g>
<defs>
<clipPath id="clip0_114_6279">
<rect width="40" height="40" fill="white"/>
</clipPath>
</defs>
</svg>
