<svg width="40" height="40" viewBox="0 0 40 40" fill="none" xmlns="http://www.w3.org/2000/svg">
<g clip-path="url(#clip0_114_6291)">
<path d="M38.8646 9.54329C38.7893 9.5407 37.2445 9.48855 34.9767 9.53866V4.88909C34.9767 4.20368 34.3915 3.66008 33.7024 3.7167C29.1806 4.09419 23.4278 6.09223 20 9.73655C16.5722 6.09223 10.8194 4.09419 6.29765 3.7167C5.6098 3.6607 5.02329 4.20188 5.02329 4.88909V9.66439C3.73482 9.61576 2.51608 9.58149 1.21137 9.54314C0.553333 9.52235 0 10.0524 0 10.7191V32.1442C0 32.7633 0.479765 33.2765 1.09749 33.318C5.77733 33.6329 13.6165 33.6684 19.5385 36.1942C20.0663 36.4196 20.5401 36.1607 20.4616 36.1942C26.3835 33.6685 34.2213 33.6331 38.9027 33.318C39.5203 33.2765 40.0002 32.7633 40.0002 32.1442V10.7191C40 10.0853 39.498 9.56541 38.8646 9.54329ZM32.6238 6.21231V26.3761C29.2311 27.135 24.9316 28.7544 21.1765 32.1882C21.1765 31.1525 21.1765 12.5259 21.1765 11.9657C23.7506 8.75396 28.6256 6.81811 32.6238 6.21231ZM7.37624 6.21231C11.3744 6.81811 16.2494 8.75396 18.8235 11.9657V32.1882C15.0684 28.7544 10.7689 27.135 7.37624 26.3761V6.21231ZM2.35294 31.0371V11.9307C3.19537 11.9556 4.09639 11.9838 5.02329 12.0191V27.335C5.02329 27.901 5.42643 28.3868 5.98275 28.4912C8.6691 28.9955 12.1624 30.0899 15.4183 32.4464C10.7732 31.4046 5.91106 31.2372 2.35294 31.0371ZM37.6471 31.0371C34.0947 31.2369 29.2286 31.4042 24.5816 32.4464C27.8375 30.0899 31.3309 28.9955 34.0172 28.4912C34.5735 28.3868 34.9766 27.901 34.9766 27.335V11.8924C36.0595 11.8682 36.9817 11.8678 37.647 11.8739V31.0371H37.6471Z" fill="#97D80F"/>
<path d="M15.7735 14.6757C14.8623 14.0409 13.2914 13.2617 11.6149 12.9784C10.9745 12.8697 10.3671 13.3018 10.2588 13.9424C10.1506 14.583 10.5822 15.1902 11.2229 15.2984C12.5172 15.5172 13.7587 16.1397 14.4285 16.6063C14.9614 16.9776 15.6947 16.8468 16.0663 16.3135C16.4376 15.7805 16.3066 15.0471 15.7735 14.6757Z" fill="#97D80F"/>
<path d="M15.6557 21.3009C14.8173 20.789 13.1776 19.8906 11.6149 19.6266C10.9745 19.518 10.3671 19.9499 10.2588 20.5906C10.1506 21.2313 10.5822 21.8383 11.2229 21.9466C12.4402 22.1523 13.8707 22.9678 14.4292 23.309C14.9845 23.6479 15.7082 23.4721 16.0465 22.9182C16.3852 22.3637 16.2102 21.6397 15.6557 21.3009Z" fill="#97D80F"/>
<path d="M25.5717 16.6064C26.2415 16.1397 27.4829 15.5172 28.7773 15.2985C29.4179 15.1902 29.8495 14.5831 29.7414 13.9425C29.6331 13.3018 29.0257 12.8695 28.3853 12.9785C26.7088 13.2617 25.1379 14.041 24.2267 14.6758C23.6936 15.0472 23.5625 15.7805 23.9339 16.3136C24.3055 16.847 25.0391 16.9775 25.5717 16.6064Z" fill="#97D80F"/>
<path d="M28.3855 19.6265C26.8228 19.8905 25.183 20.7889 24.3447 21.3009C23.7902 21.6396 23.6152 22.3636 23.9539 22.9182C24.2925 23.4726 25.0165 23.6476 25.5711 23.309C26.1296 22.9678 27.5601 22.1523 28.7775 21.9465C29.4181 21.8383 29.8497 21.2313 29.7416 20.5905C29.6332 19.9498 29.0259 19.5176 28.3855 19.6265Z" fill="#97D80F"/>
</g>
<defs>
<clipPath id="clip0_114_6291">
<rect width="40" height="40" fill="white"/>
</clipPath>
</defs>
</svg>
