<svg width="134" height="40" viewBox="0 0 134 40" fill="none" xmlns="http://www.w3.org/2000/svg">
<path d="M130.154 30.3208C129.604 30.3208 129.045 30.2676 128.475 30.1611C127.906 30.0546 127.385 29.8562 126.912 29.5657C126.439 29.2753 126.058 28.8493 125.768 28.2878C125.479 27.7263 125.334 26.9858 125.334 26.0661C125.334 25.8531 125.334 25.6401 125.334 25.4271C125.334 25.2045 125.334 24.9769 125.334 24.7446V17.6581H121.7V14.6086H123.177C123.679 14.6086 124.074 14.5893 124.364 14.5505C124.653 14.5021 124.866 14.3956 125.001 14.2311C125.136 14.0665 125.223 13.81 125.261 13.4614C125.31 13.1032 125.334 12.6095 125.334 11.9802V9.52612H129.156V14.6086H133.73V17.6581H129.156V23.8443C129.156 24.0282 129.156 24.2122 129.156 24.3961C129.156 24.5703 129.156 24.7398 129.156 24.9043C129.156 25.6207 129.242 26.1968 129.416 26.6324C129.59 27.068 130 27.2859 130.647 27.2859C130.955 27.2859 131.245 27.2568 131.515 27.1987C131.795 27.1406 132.003 27.0826 132.138 27.0245V30.0159C131.954 30.0837 131.689 30.1514 131.342 30.2192C130.994 30.287 130.598 30.3208 130.154 30.3208Z" fill="#F0F0F7"/>
<path d="M115.965 30.0305V24.4688C115.965 24.2365 115.965 23.946 115.965 23.5975C115.965 23.249 115.965 22.8957 115.965 22.5375C115.965 22.1793 115.965 21.884 115.965 21.6517C115.965 20.3738 115.714 19.396 115.213 18.7183C114.72 18.031 113.876 17.6873 112.679 17.6873C111.878 17.6873 111.193 17.847 110.624 18.1665C110.064 18.4763 109.634 18.9119 109.335 19.4734C109.036 20.0349 108.886 20.6836 108.886 21.4193L107.497 20.6787C107.497 19.4492 107.772 18.3601 108.322 17.4114C108.881 16.453 109.654 15.7027 110.638 15.1606C111.622 14.6184 112.752 14.3474 114.026 14.3474C115.888 14.3474 117.312 14.904 118.296 16.0173C119.281 17.121 119.773 18.6602 119.773 20.6351C119.773 21.1386 119.773 21.7388 119.773 22.4358C119.773 23.1232 119.773 23.8976 119.773 24.7592V30.0305H115.965ZM105.079 30.0305V7.3335H108.886V30.0305H105.079Z" fill="#F0F0F7"/>
<path d="M97.3761 28.5056C98.2833 28.5927 99.0795 28.7621 99.7647 29.0138C100.45 29.2655 100.986 29.6383 101.372 30.132C101.758 30.6354 101.951 31.3034 101.951 32.1359C101.951 33.0653 101.637 33.8688 101.01 34.5465C100.382 35.2242 99.4607 35.747 98.2447 36.1148C97.0383 36.4827 95.552 36.6666 93.7859 36.6666C91.2187 36.6666 89.245 36.2939 87.8649 35.5485C86.4848 34.8127 85.7948 33.8108 85.7948 32.5425C85.7948 32.1844 85.8382 31.86 85.9251 31.5696C86.0119 31.2792 86.1181 31.0372 86.2436 30.8435L89.7324 31.3518C89.6745 31.4292 89.6166 31.5503 89.5587 31.7148C89.5008 31.8891 89.4718 32.0972 89.4718 32.3392C89.4718 32.9395 89.8724 33.3703 90.6734 33.6317C91.4841 33.9027 92.5602 34.0383 93.9017 34.0383C94.8861 34.0383 95.7064 33.9705 96.3627 33.835C97.0286 33.6994 97.5305 33.5058 97.8683 33.2541C98.2157 33.0024 98.3894 32.7071 98.3894 32.3683C98.3894 31.8649 98.1626 31.5406 97.709 31.3954C97.2554 31.2501 96.715 31.1533 96.0876 31.1049L90.2536 30.5676C89.2113 30.4611 88.3523 30.1513 87.6768 29.6383C87.0108 29.1252 86.6779 28.4475 86.6779 27.6053C86.6779 27.0922 86.813 26.6178 87.0832 26.1822C87.3631 25.7465 87.6816 25.3835 88.0387 25.093C88.3958 24.7929 88.6998 24.609 88.9507 24.5412L91.1222 25.6158C90.9195 25.6449 90.6782 25.7756 90.3984 26.0079C90.1281 26.2402 89.993 26.5161 89.993 26.8356C89.993 27.1357 90.1281 27.3874 90.3984 27.5907C90.6686 27.7844 91.1897 27.9199 91.9618 27.9973L97.3761 28.5056ZM99.0988 14.6086H102.515L101.125 20.5914C100.865 21.7144 100.445 22.7212 99.866 23.6119C99.287 24.5025 98.5149 25.2044 97.5498 25.7175C96.5847 26.2306 95.3686 26.4871 93.9017 26.4871C92.3768 26.4871 91.0594 26.2402 89.9496 25.7465C88.8494 25.2431 88.0001 24.5412 87.4017 23.6409C86.8033 22.7309 86.5041 21.6853 86.5041 20.5043C86.5041 19.2941 86.8082 18.2292 87.4162 17.3095C88.0338 16.3802 88.8783 15.6541 89.9496 15.1313C91.0305 14.6086 92.2514 14.3472 93.6122 14.3472C94.7124 14.3472 95.7016 14.5311 96.5799 14.899C97.4581 15.2572 98.1578 15.7267 98.679 16.3076C99.2098 16.8884 99.4945 17.508 99.5331 18.1663L98.679 18.326L99.0988 14.6086ZM93.8872 23.5392C94.6303 23.5392 95.2721 23.4182 95.8126 23.1762C96.3531 22.9342 96.7729 22.5857 97.0721 22.1307C97.3712 21.666 97.5208 21.1045 97.5208 20.4462C97.5208 19.7976 97.3712 19.2409 97.0721 18.7762C96.7729 18.3115 96.3531 17.9582 95.8126 17.7161C95.2721 17.4644 94.6352 17.3386 93.9017 17.3386C93.1875 17.3386 92.5554 17.4644 92.0052 17.7161C91.4551 17.9679 91.0208 18.3309 90.7024 18.8053C90.3935 19.2699 90.2391 19.8266 90.2391 20.4752C90.2391 21.1238 90.3887 21.6805 90.6879 22.1452C90.9967 22.6002 91.4214 22.9487 91.9618 23.1907C92.5119 23.4231 93.1537 23.5392 93.8872 23.5392Z" fill="#F0F0F7"/>
<path d="M79.5029 30.0304V14.6086H83.2668V30.0304H79.5029ZM81.3994 11.7624C80.7817 11.7624 80.2412 11.5978 79.778 11.2687C79.3244 10.9298 79.0976 10.4603 79.0976 9.86008C79.0976 9.26955 79.3244 8.8097 79.778 8.48055C80.2412 8.15139 80.7817 7.98682 81.3994 7.98682C82.0074 7.98682 82.5382 8.15139 82.9918 8.48055C83.4454 8.8097 83.6722 9.26955 83.6722 9.86008C83.6722 10.4603 83.4454 10.9298 82.9918 11.2687C82.5382 11.5978 82.0074 11.7624 81.3994 11.7624Z" fill="#F0F0F7"/>
<path d="M75.6816 7.3335V30.0305H71.9321V7.3335H75.6816Z" fill="#F0F0F7"/>
<path d="M64.2367 30.0303V23.1907C64.2367 22.8035 64.2367 22.4647 64.2367 22.1742C64.2367 21.8741 64.2367 21.6031 64.2367 21.361C64.2367 20.664 64.1354 20.0396 63.9327 19.4878C63.7397 18.9263 63.4019 18.4858 62.9193 18.1663C62.4464 17.8468 61.7902 17.6871 60.9505 17.6871C60.2171 17.6871 59.5656 17.8662 58.9962 18.2244C58.4268 18.5729 57.978 19.057 57.6499 19.6765C57.3314 20.2864 57.1721 20.9932 57.1721 21.7967L55.8837 20.998C55.8837 19.7104 56.1733 18.5681 56.7523 17.5709C57.341 16.5641 58.1276 15.7751 59.112 15.2039C60.0964 14.6328 61.187 14.3472 62.3837 14.3472C63.6191 14.3472 64.6565 14.5892 65.4962 15.0732C66.3455 15.5573 66.9824 16.2446 67.4071 17.1353C67.8414 18.0259 68.0585 19.0715 68.0585 20.2719C68.0585 20.7366 68.0585 21.2594 68.0585 21.8402C68.0585 22.4211 68.0585 22.9923 68.0585 23.5538V30.0303H64.2367ZM53.3648 30.0303V14.6086H57.1721V30.0303H53.3648Z" fill="#F0F0F7"/>
<path d="M39.1771 11.6606L40.8998 9.75828V18.9068L40.0023 17.7596H47.9934V20.8091H40.0023L40.8998 19.6764V28.883L39.1771 26.9807H49.6003V30.0302H37.0635V8.61108H49.6003V11.6606H39.1771Z" fill="#F0F0F7"/>
<path fill-rule="evenodd" clip-rule="evenodd" d="M1.11019 8.06317C0.479137 9.46757 0.0934901 10.9836 0 12.5467L1.81137 13.0344L22.9284 18.7225C22.436 19.4779 21.9485 20.1833 21.4779 20.8641C19.8768 23.1806 18.4726 25.2122 17.7456 27.9597C16.5536 28.1066 15.3557 28.2065 14.1579 28.2124C12.9601 28.2124 11.7739 28.1184 10.5936 27.9715C9.86808 25.2207 8.46139 23.1864 6.85867 20.8686C6.38321 20.181 5.8905 19.4684 5.39321 18.7048C5.16533 18.3581 4.95497 18.0115 4.76215 17.6706L0.409019 16.4954C1.07236 18.8201 2.39587 20.6863 3.7249 22.5602C5.48652 25.0441 7.25782 27.5416 7.51427 31.1387C9.7405 31.5089 11.9025 31.8027 14.1696 31.7969C16.4192 31.791 18.6104 31.4854 20.8249 31.1387C21.0808 27.5399 22.852 25.0429 24.6131 22.5603C25.9891 20.6205 27.3588 18.6895 27.9944 16.2486L24.5528 15.3202L4.22458 9.84364C4.26548 9.74375 4.30639 9.64385 4.35313 9.54396C7.92328 1.64057 20.3692 1.52892 23.986 9.54396C24.2665 10.1727 24.4827 10.8308 24.6171 11.5007L28.3333 12.4997C28.2282 10.9542 27.8484 9.44994 27.2231 8.06317C22.3032 -2.83704 5.89572 -2.53736 1.11019 8.06317ZM9.13281 36.2804C9.08022 36.8093 9.46003 37.2852 9.98591 37.3381C11.3883 37.485 12.7848 37.5555 14.1813 37.5555C15.5603 37.5555 16.9568 37.485 18.365 37.3381C18.8908 37.2794 19.2706 36.8093 19.2181 36.2804C19.1596 35.7516 18.6922 35.3696 18.1663 35.4225C16.8516 35.5576 15.5252 35.6282 14.1754 35.6282C12.8257 35.6282 11.4934 35.5576 10.1846 35.4225C9.65869 35.3696 9.1854 35.7516 9.13281 36.2804ZM14.1696 40C13.1529 40 12.253 39.3301 11.955 38.3488C12.6504 38.3841 13.3866 38.4017 14.1696 38.4017C14.9526 38.4017 15.6888 38.3841 16.3841 38.3488C16.0861 39.3301 15.1863 40 14.1696 40ZM7.53179 33.3423C7.45583 33.8653 7.81811 34.353 8.34399 34.4294C10.2839 34.7115 12.2297 34.8525 14.1637 34.8525C16.0978 34.8525 18.0436 34.7115 19.9835 34.4294C20.5035 34.3589 20.8717 33.8712 20.7957 33.3423C20.7256 32.8194 20.2406 32.4492 19.7147 32.5256C17.88 32.79 16.0277 32.9251 14.1637 32.9251C12.2998 32.9251 10.4475 32.79 8.61277 32.5256C8.09273 32.4492 7.60775 32.8135 7.53179 33.3423Z" fill="url(#paint0_linear_204_1034)"/>
<defs>
<linearGradient id="paint0_linear_204_1034" x1="1.1788" y1="0.59163" x2="34.1881" y2="26.0701" gradientUnits="userSpaceOnUse">
<stop stop-color="#333CEF"/>
<stop offset="0.333333" stop-color="#0B98FF"/>
<stop offset="0.666667" stop-color="#9CE600"/>
<stop offset="1" stop-color="#ACD64E"/>
</linearGradient>
</defs>
</svg>
