<svg width="103" height="33" viewBox="0 0 103 33" fill="none" xmlns="http://www.w3.org/2000/svg">
<path d="M1.76 3.8L2.992 2.248V12.904L2.32 11.96H11.376V14.36H2.32L2.992 13.416V24.152L1.76 22.6H13.152V25H0.256V1.4H13.152V3.8H1.76ZM30.0143 25V16.856C30.0143 16.3653 30.0143 15.9653 30.0143 15.656C30.0143 15.336 30.0143 15.032 30.0143 14.744C30.0143 13.8587 29.8649 13.0853 29.5663 12.424C29.2676 11.7627 28.7983 11.2507 28.1583 10.888C27.5183 10.5253 26.6809 10.344 25.6463 10.344C24.7396 10.344 23.8969 10.5787 23.1183 11.048C22.3503 11.5067 21.7316 12.1307 21.2623 12.92C20.8036 13.6987 20.5743 14.5733 20.5743 15.544L19.0223 14.952C19.0223 13.6187 19.3476 12.408 19.9983 11.32C20.6596 10.232 21.5343 9.368 22.6223 8.728C23.7209 8.07733 24.9156 7.752 26.2063 7.752C27.5183 7.752 28.6649 8.00267 29.6463 8.504C30.6276 9.00533 31.3849 9.72533 31.9183 10.664C32.4623 11.592 32.7343 12.712 32.7343 14.024C32.7343 14.4933 32.7343 15.0053 32.7343 15.56C32.7343 16.1147 32.7343 16.632 32.7343 17.112V25H30.0143ZM17.8543 25V8.008H20.5743V25H17.8543ZM40.4073 -0.00800133V25H37.7193V-0.00800133H40.4073ZM45.5455 25V8.008H48.2335V25H45.5455ZM46.9055 4.104C46.4042 4.104 45.9668 3.96533 45.5935 3.688C45.2308 3.4 45.0495 3.01067 45.0495 2.52C45.0495 2.04 45.2308 1.66133 45.5935 1.384C45.9668 1.096 46.4042 0.952 46.9055 0.952C47.4068 0.952 47.8388 1.096 48.2015 1.384C48.5642 1.66133 48.7455 2.04 48.7455 2.52C48.7455 3.01067 48.5642 3.4 48.2015 3.688C47.8388 3.96533 47.4068 4.104 46.9055 4.104ZM64.1398 23.96C65.0571 24.0347 65.8624 24.2053 66.5558 24.472C67.2598 24.728 67.8091 25.1067 68.2038 25.608C68.5984 26.12 68.7958 26.7867 68.7958 27.608C68.7958 28.5147 68.4864 29.3147 67.8678 30.008C67.2491 30.712 66.3104 31.2613 65.0518 31.656C63.7931 32.0507 62.2091 32.248 60.2998 32.248C57.6011 32.248 55.5638 31.8533 54.1878 31.064C52.8118 30.2853 52.1238 29.2187 52.1238 27.864C52.1238 27.4373 52.1718 27.0587 52.2678 26.728C52.3744 26.408 52.4918 26.1467 52.6198 25.944L55.2118 26.328C55.1264 26.4453 55.0411 26.6213 54.9557 26.856C54.8811 27.1013 54.8438 27.384 54.8438 27.704C54.8438 28.5573 55.3291 29.1547 56.2998 29.496C57.2704 29.848 58.6464 30.024 60.4278 30.024C61.7611 30.024 62.8544 29.9333 63.7078 29.752C64.5611 29.5707 65.1958 29.3093 65.6118 28.968C66.0278 28.6267 66.2358 28.2267 66.2358 27.768C66.2358 27.0747 65.9424 26.6427 65.3558 26.472C64.7798 26.312 64.0651 26.2 63.2118 26.136L56.7478 25.656C55.6704 25.5707 54.7904 25.24 54.1078 24.664C53.4358 24.0773 53.0998 23.368 53.0998 22.536C53.0998 22.024 53.2224 21.5387 53.4678 21.08C53.7238 20.6213 54.0171 20.2373 54.3478 19.928C54.6891 19.608 54.9931 19.416 55.2598 19.352L57.4038 20.328C57.1371 20.3707 56.8064 20.5573 56.4118 20.888C56.0278 21.208 55.8358 21.5867 55.8358 22.024C55.8358 22.4187 55.9904 22.744 56.2998 23C56.6091 23.2453 57.2224 23.4053 58.1398 23.48L64.1398 23.96ZM66.4918 8.008H69.0518L67.9958 14.696C67.8038 15.944 67.4038 17.0747 66.7958 18.088C66.1878 19.0907 65.3558 19.8907 64.2998 20.488C63.2544 21.0747 61.9584 21.368 60.4118 21.368C58.8011 21.368 57.4251 21.0747 56.2838 20.488C55.1424 19.9013 54.2678 19.1013 53.6598 18.088C53.0518 17.064 52.7478 15.912 52.7478 14.632C52.7478 13.3307 53.0624 12.1627 53.6918 11.128C54.3318 10.0827 55.2171 9.26133 56.3478 8.664C57.4784 8.056 58.7744 7.752 60.2358 7.752C61.5478 7.752 62.6944 7.98133 63.6758 8.44C64.6571 8.888 65.4304 9.45333 65.9958 10.136C66.5718 10.8187 66.8918 11.5067 66.9558 12.2L65.9318 12.264L66.4918 8.008ZM60.3958 18.936C61.4304 18.936 62.3158 18.7653 63.0518 18.424C63.7984 18.0827 64.3691 17.5867 64.7638 16.936C65.1691 16.2853 65.3718 15.496 65.3718 14.568C65.3718 13.672 65.1691 12.8987 64.7638 12.248C64.3691 11.5867 63.7984 11.08 63.0518 10.728C62.3158 10.3653 61.4358 10.184 60.4118 10.184C59.4304 10.184 58.5611 10.3707 57.8038 10.744C57.0571 11.1067 56.4704 11.6187 56.0438 12.28C55.6278 12.9413 55.4198 13.72 55.4198 14.616C55.4198 15.5227 55.6171 16.3013 56.0118 16.952C56.4171 17.592 56.9878 18.0827 57.7238 18.424C58.4704 18.7653 59.3611 18.936 60.3958 18.936ZM84.9678 25V18.68C84.9678 18.3813 84.9678 18.0293 84.9678 17.624C84.9678 17.208 84.9678 16.792 84.9678 16.376C84.9678 15.9493 84.9678 15.5867 84.9678 15.288C84.9678 13.656 84.6158 12.424 83.9118 11.592C83.2184 10.76 82.1144 10.344 80.5998 10.344C79.5864 10.344 78.6958 10.5413 77.9278 10.936C77.1704 11.3307 76.5784 11.8693 76.1518 12.552C75.7251 13.2347 75.5118 14.008 75.5118 14.872L73.7838 14.344C73.7838 13.128 74.0984 12.024 74.7278 11.032C75.3678 10.0293 76.2371 9.23467 77.3358 8.648C78.4451 8.05067 79.6984 7.752 81.0958 7.752C83.1331 7.752 84.7384 8.36533 85.9118 9.592C87.0958 10.8187 87.6878 12.5147 87.6878 14.68C87.6878 15.2453 87.6878 15.896 87.6878 16.632C87.6878 17.368 87.6878 18.1413 87.6878 18.952V25H84.9678ZM72.7918 25V-0.00800133H75.5118V25H72.7918ZM98.668 25.256C98.1453 25.256 97.6333 25.1973 97.132 25.08C96.6307 24.9627 96.1773 24.7547 95.772 24.456C95.3773 24.1467 95.0627 23.7147 94.828 23.16C94.5933 22.5947 94.476 21.8693 94.476 20.984C94.476 20.76 94.476 20.5307 94.476 20.296C94.476 20.0507 94.476 19.7947 94.476 19.528V10.408H90.332V8.008H92.988C93.3507 8.008 93.6333 7.99733 93.836 7.976C94.0387 7.944 94.1827 7.87467 94.268 7.768C94.364 7.65067 94.4227 7.47467 94.444 7.24C94.4653 6.99467 94.476 6.65867 94.476 6.232V2.376H97.212V8.008H102.524V10.408H97.212V18.648C97.212 18.8827 97.212 19.112 97.212 19.336C97.212 19.56 97.212 19.768 97.212 19.96C97.212 20.8667 97.3187 21.576 97.532 22.088C97.756 22.6 98.252 22.856 99.02 22.856C99.3293 22.856 99.6227 22.8293 99.9 22.776C100.177 22.7227 100.385 22.6693 100.524 22.616V24.984C100.343 25.048 100.087 25.1067 99.756 25.16C99.436 25.224 99.0733 25.256 98.668 25.256Z" fill="#F0F0F7"/>
</svg>
