<svg width="65" height="64" viewBox="0 0 65 64" fill="none" xmlns="http://www.w3.org/2000/svg">
<g clip-path="url(#clip0_99_3102)">
<path d="M62.4058 0H31.2709C30.2354 0 29.3959 0.841125 29.3959 1.87863V6.6355H2.15576C1.12026 6.6355 0.280762 7.47662 0.280762 8.51412V57.601C0.280762 58.6385 1.12026 59.4796 2.15576 59.4796H15.486V62.1211C15.486 63.1586 16.3255 63.9997 17.361 63.9997H54.9506C55.9861 63.9997 56.8256 63.1586 56.8256 62.1211V33.9528H62.4058C63.4413 33.9528 64.2808 33.1116 64.2808 32.0741V1.87863C64.2808 0.841125 63.4413 0 62.4058 0ZM53.0755 26.7516V57.0171L45.4423 48.035C45.086 47.6157 44.5643 47.3742 44.0148 47.3742C43.4653 47.3742 42.9434 47.6157 42.5871 48.035L38.4378 52.9176L31.9336 44.8426C31.5789 44.4021 31.0446 44.1454 30.4796 44.1437C30.4779 44.1437 30.4763 44.1437 30.4745 44.1437C29.9114 44.1437 29.3781 44.3973 29.0219 44.8346L19.236 56.8483V26.7516H53.0755ZM44.3378 60.2426L40.8344 55.8931L44.0148 52.1507L50.8914 60.2425H44.3378V60.2426ZM39.5188 60.2426H21.3114L30.4663 49.0037L39.5188 60.2426ZM4.03076 55.7225V10.3929H29.3959V14.8146H9.68139C8.64589 14.8146 7.80639 15.6558 7.80639 16.6933C7.80639 17.7308 8.64589 18.5719 9.68139 18.5719H29.396V22.9942L9.68139 22.9936C8.64589 22.9936 7.80639 23.8347 7.80639 24.8722C7.80639 25.9097 8.64589 26.7509 9.68139 26.7509H15.486V31.1725H9.68139C8.64589 31.1725 7.80639 32.0136 7.80639 33.0511C7.80639 34.0886 8.64589 34.9297 9.68139 34.9297H15.486V39.3514H9.68139C8.64589 39.3514 7.80639 40.1925 7.80639 41.23C7.80639 42.2675 8.64589 43.1086 9.68139 43.1086H15.486V47.5304H9.68139C8.64589 47.5304 7.80639 48.3715 7.80639 49.409C7.80639 50.4465 8.64589 51.2876 9.68139 51.2876H15.486V55.7221H4.03076V55.7225ZM60.5308 30.1955H56.8255V24.873C56.8255 23.8355 55.986 22.9944 54.9505 22.9944H46.0391L53.9939 18.074C54.5641 17.7212 54.9031 17.0903 54.883 16.4191C54.8629 15.7479 54.4868 15.1384 53.8964 14.8205L41.5479 8.172C40.9668 7.85913 40.2644 7.87537 39.6983 8.21437C39.132 8.5535 38.7854 9.16587 38.7854 9.82687V22.9944H33.146V3.75738H60.5308V30.1955ZM42.5354 20.746V12.9691L49.2571 16.5882L42.5354 20.746Z" fill="#97D80F"/>
<path d="M44.0147 44.0606C47.0232 44.0606 49.4708 41.6083 49.4708 38.5939C49.4708 35.5795 47.0232 33.1271 44.0147 33.1271C41.0062 33.1271 38.5586 35.5795 38.5586 38.5939C38.5586 41.6081 41.0062 44.0606 44.0147 44.0606ZM44.0147 36.8844C44.9555 36.8844 45.7208 37.6513 45.7208 38.5939C45.7208 39.5365 44.9555 40.3034 44.0147 40.3034C43.074 40.3034 42.3086 39.5365 42.3086 38.5939C42.3086 37.6513 43.074 36.8844 44.0147 36.8844Z" fill="#97D80F"/>
</g>
<defs>
<clipPath id="clip0_99_3102">
<rect width="64" height="64" fill="white" transform="translate(0.280762)"/>
</clipPath>
</defs>
</svg>
