<svg width="65" height="64" viewBox="0 0 65 64" fill="none" xmlns="http://www.w3.org/2000/svg">
<g clip-path="url(#clip0_99_3086)">
<path d="M60.588 28.3077C59.2243 28.3077 58.0318 29.0513 57.3924 30.1538H51.2676C50.8936 26.2769 49.3551 22.7355 47.0059 19.8852L51.5903 15.3008C52.4415 15.7465 53.4085 16 54.4341 16C57.8274 16 60.588 13.2394 60.588 9.84615C60.588 6.45292 57.8274 3.69231 54.4341 3.69231C51.0409 3.69231 48.2803 6.45292 48.2803 9.84615C48.2803 10.8718 48.5338 11.8388 48.9795 12.69L44.3951 17.2743C41.9646 15.2713 39.0312 13.858 35.8162 13.2529C35.7929 13.2478 35.7694 13.2437 35.7459 13.2394C35.2134 13.1413 34.6733 13.0654 34.1264 13.0127V6.88788C35.229 6.24849 35.9726 5.056 35.9726 3.69231C35.9726 1.65637 34.3162 0 32.2803 0C30.2443 0 28.588 1.65637 28.588 3.69231C28.588 5.056 29.3316 6.24849 30.4341 6.88788V13.0127C29.8885 13.0654 29.3496 13.1409 28.8184 13.2388C28.7931 13.2433 28.7679 13.2476 28.7428 13.2533C25.5283 13.8585 22.5956 15.2715 20.1654 17.2743L15.5811 12.69C16.0267 11.8388 16.2803 10.8718 16.2803 9.84615C16.2803 6.45292 13.5197 3.69231 10.1264 3.69231C6.7332 3.69231 3.97258 6.45292 3.97258 9.84615C3.97258 13.2394 6.7332 16 10.1264 16C11.152 16 12.119 15.7465 12.9702 15.3008L17.5546 19.8852C15.2056 22.7355 13.667 26.2769 13.2929 30.1538H7.16815C6.52877 29.0513 5.33627 28.3077 3.97258 28.3077C1.93664 28.3077 0.280273 29.9641 0.280273 32C0.280273 34.0359 1.93664 35.6923 3.97258 35.6923C5.33627 35.6923 6.52877 34.9487 7.16815 33.8462H13.2929C13.667 37.7231 15.2054 41.2645 17.5546 44.1148L12.9702 48.6992C12.119 48.2535 11.152 48 10.1264 48C6.7332 48 3.97258 50.7606 3.97258 54.1538C3.97258 57.5471 6.7332 60.3077 10.1264 60.3077C13.5197 60.3077 16.2803 57.5471 16.2803 54.1538C16.2803 53.1282 16.0267 52.1612 15.5811 51.31L20.1654 46.7257C22.5936 48.7269 25.5237 50.1393 28.7353 50.7454C28.7763 50.7547 28.8176 50.7626 28.8592 50.7691C29.3773 50.8633 29.9027 50.936 30.4341 50.9873V57.1121C29.3316 57.7515 28.588 58.944 28.588 60.3077C28.588 62.3436 30.2443 64 32.2803 64C34.3162 64 35.9726 62.3436 35.9726 60.3077C35.9726 58.944 35.229 57.7515 34.1264 57.1121V50.9873C34.658 50.936 35.1833 50.8633 35.7013 50.7691C35.7429 50.7626 35.7843 50.7546 35.8254 50.7454C39.0368 50.1393 41.9669 48.7269 44.3951 46.7257L48.9795 51.31C48.5338 52.1612 48.2803 53.1282 48.2803 54.1538C48.2803 57.5471 51.0409 60.3077 54.4341 60.3077C57.8274 60.3077 60.588 57.5471 60.588 54.1538C60.588 50.7606 57.8274 48 54.4341 48C53.4085 48 52.4415 48.2535 51.5903 48.6992L47.0059 44.1148C49.355 41.2645 50.8936 37.7231 51.2676 33.8462H57.3924C58.0318 34.9487 59.2243 35.6923 60.588 35.6923C62.6239 35.6923 64.2803 34.0359 64.2803 32C64.2803 29.9641 62.6239 28.3077 60.588 28.3077ZM38.5198 46.0612C39.1461 43.947 39.6211 41.4688 39.9188 38.7692H46.0931C44.5042 41.9983 41.8162 44.5926 38.5198 46.0612ZM32.2803 47.3846C31.6393 47.3846 31.0077 47.3446 30.3871 47.2681C29.4637 45.1559 28.7621 42.1769 28.3594 38.7692H36.2011C35.7984 42.1769 35.097 45.1561 34.1734 47.2681C33.5529 47.3446 32.9213 47.3846 32.2803 47.3846ZM18.4675 38.7692H24.6418C24.9395 41.4688 25.4144 43.947 26.0408 46.0612C22.7445 44.5926 20.0564 41.9983 18.4675 38.7692ZM26.0409 17.9388C25.4145 20.053 24.9396 22.5312 24.6418 25.2308H18.4675C20.0564 22.0017 22.7445 19.4073 26.0409 17.9388ZM32.2803 16.6154C32.9213 16.6154 33.5529 16.6554 34.1734 16.7319C35.0969 18.8439 35.7983 21.8231 36.2011 25.2308H28.3594C28.7621 21.823 29.4637 18.8439 30.3871 16.7319C31.0077 16.6554 31.6393 16.6154 32.2803 16.6154ZM46.0931 25.2308H39.9188C39.6211 22.5312 39.1461 20.053 38.5197 17.9388C41.816 19.4073 44.5042 22.0017 46.0931 25.2308ZM36.588 32C36.588 33.0404 36.5615 34.069 36.5103 35.0769H28.0502C27.999 34.069 27.9726 33.0404 27.9726 32C27.9726 30.9596 27.999 29.931 28.0502 28.9231H36.5103C36.5615 29.931 36.588 30.9596 36.588 32ZM24.3535 28.9231C24.3056 29.9316 24.2803 30.9589 24.2803 32C24.2803 33.0411 24.3056 34.0684 24.3535 35.0769H17.205C17.0022 34.0825 16.8957 33.0535 16.8957 32C16.8957 30.9465 17.0024 29.9175 17.205 28.9231H24.3535ZM40.207 35.0769C40.2549 34.0684 40.2803 33.0411 40.2803 32C40.2803 30.9589 40.2549 29.9316 40.207 28.9231H47.3556C47.5583 29.9175 47.6649 30.9465 47.6649 32C47.6649 33.0535 47.5582 34.0825 47.3556 35.0769H40.207ZM54.4341 7.38462C55.7914 7.38462 56.8957 8.48886 56.8957 9.84615C56.8957 11.2034 55.7914 12.3077 54.4341 12.3077C53.0768 12.3077 51.9726 11.2034 51.9726 9.84615C51.9726 8.48886 53.0768 7.38462 54.4341 7.38462ZM7.66489 9.84615C7.66489 8.48886 8.76914 7.38462 10.1264 7.38462C11.4837 7.38462 12.588 8.48886 12.588 9.84615C12.588 11.2034 11.4837 12.3077 10.1264 12.3077C8.76914 12.3077 7.66489 11.2034 7.66489 9.84615ZM10.1264 56.6154C8.76914 56.6154 7.66489 55.5111 7.66489 54.1538C7.66489 52.7966 8.76914 51.6923 10.1264 51.6923C11.4837 51.6923 12.588 52.7966 12.588 54.1538C12.588 55.5111 11.4837 56.6154 10.1264 56.6154ZM56.8957 54.1538C56.8957 55.5111 55.7914 56.6154 54.4341 56.6154C53.0768 56.6154 51.9726 55.5111 51.9726 54.1538C51.9726 52.7966 53.0768 51.6923 54.4341 51.6923C55.7914 51.6923 56.8957 52.7966 56.8957 54.1538Z" fill="#97D80F"/>
</g>
<defs>
<clipPath id="clip0_99_3086">
<rect width="64" height="64" fill="white" transform="translate(0.280273)"/>
</clipPath>
</defs>
</svg>
