<svg width="65" height="64" viewBox="0 0 65 64" fill="none" xmlns="http://www.w3.org/2000/svg">
<g clip-path="url(#clip0_99_3090)">
<path d="M63.3429 19.1514C63.923 18.8164 64.2803 18.1975 64.2803 17.5277V7.09241C64.2803 6.42254 63.9229 5.80354 63.3428 5.46866L54.3053 0.250912C53.725 -0.0839629 53.0105 -0.0839629 52.4303 0.250912L43.3928 5.46866C42.8126 5.80354 42.4553 6.42254 42.4553 7.09241V9.03729H22.1053V7.09241C22.1053 6.42254 21.7479 5.80354 21.1678 5.46866L12.1303 0.250912C11.55 -0.0839629 10.8355 -0.0839629 10.2553 0.250912L1.21777 5.46866C0.637648 5.80354 0.280273 6.42254 0.280273 7.09241V17.5277C0.280273 18.1974 0.637523 18.8164 1.21765 19.1514L9.31777 23.8288V40.1705L1.21777 44.847C0.637648 45.1819 0.280273 45.8009 0.280273 46.4708V56.906C0.280273 57.5758 0.637523 58.1948 1.21765 58.5298L10.2551 63.7485C10.8353 64.0835 11.5503 64.0835 12.1304 63.7485L21.1679 58.5298C21.748 58.1948 22.1053 57.5759 22.1053 56.906V54.9623H42.4553V56.906C42.4553 57.5758 42.8125 58.1948 43.3926 58.5298L52.4301 63.7485C53.0103 64.0835 53.7253 64.0835 54.3054 63.7485L63.3429 58.5298C63.923 58.1948 64.2803 57.5759 64.2803 56.906V46.4708C64.2803 45.8009 63.9229 45.1819 63.3428 44.847L55.2428 40.1705V23.8288L63.3429 19.1514ZM60.5303 16.4453L55.2428 19.4985V13.3927L60.5303 10.3399V16.4453ZM53.3678 4.03979L58.6553 7.09241L53.3678 10.145L48.0804 7.09241L53.3678 4.03979ZM46.2053 10.34L51.4928 13.3927V19.4985L46.2053 16.4453V10.34ZM18.3553 16.4453L13.0678 19.4985V13.3927L18.3553 10.34V16.4453ZM11.1928 4.03979L16.4803 7.09241L11.1928 10.145L5.9054 7.09241L11.1928 4.03979ZM4.03027 10.34L9.31777 13.3927V19.4985L4.03027 16.4453V10.34ZM9.31777 58.8769L4.03027 55.8237V49.7184L9.31777 52.771V58.8769ZM11.1928 49.5234L5.9054 46.4708L11.1928 43.4182L16.4801 46.4708L11.1928 49.5234ZM18.3553 55.8237L13.0678 58.8769V52.771L18.3553 49.7184V55.8237ZM22.1053 51.2123V46.4708C22.1053 45.8009 21.7479 45.1819 21.1678 44.847L13.0678 40.1705V23.8289L21.1679 19.1515C21.748 18.8165 22.1053 18.1977 22.1053 17.5278V12.7873H42.4553V17.5278C42.4553 18.1975 42.8125 18.8165 43.3926 19.1515L51.4928 23.8289V40.1707L43.3928 44.8472C42.8126 45.182 42.4553 45.801 42.4553 46.4709V51.2123H22.1053ZM51.4928 58.8769L46.2053 55.8237V49.7184L51.4928 52.771V58.8769ZM60.5303 55.8237L55.2428 58.8769V52.771L60.5303 49.7184V55.8237ZM53.3678 49.5234L48.0804 46.4708L53.3678 43.4182L58.6553 46.4708L53.3678 49.5234Z" fill="#97D80F"/>
<path d="M43.1927 37.2171V26.7819C43.1927 26.112 42.8353 25.493 42.2552 25.1581L33.2177 19.9404C32.6374 19.6055 31.9229 19.6055 31.3427 19.9404L22.3052 25.1581C21.7251 25.493 21.3677 26.112 21.3677 26.7819V37.2171C21.3677 37.8869 21.7249 38.5059 22.3051 38.8409L31.3426 44.0596C31.9227 44.3946 32.6377 44.3946 33.2178 44.0596L42.2553 38.8409C42.8354 38.5059 43.1927 37.8869 43.1927 37.2171ZM30.4052 39.1879L25.1177 36.1346V30.0294L30.4052 33.082V39.1879ZM32.2802 29.8344L26.9928 26.7817L32.2802 23.7291L37.5676 26.7817L32.2802 29.8344ZM39.4427 36.1346L34.1552 39.1879V33.082L39.4427 30.0294V36.1346Z" fill="#97D80F"/>
</g>
<defs>
<clipPath id="clip0_99_3090">
<rect width="64" height="64" fill="white" transform="translate(0.280273)"/>
</clipPath>
</defs>
</svg>
