<svg width="64" height="64" viewBox="0 0 64 64" fill="none" xmlns="http://www.w3.org/2000/svg">
<g clip-path="url(#clip0_99_3080)">
<path d="M32 15.0625C22.6606 15.0625 15.0625 22.6606 15.0625 32C15.0625 34.3727 15.5441 36.6687 16.494 38.8242C16.9116 39.7719 18.0183 40.2016 18.9659 39.784C19.9135 39.3664 20.3431 38.2598 19.9256 37.3121C19.187 35.6361 18.8125 33.8489 18.8125 32.0001C18.8125 24.7285 24.7284 18.8126 32 18.8126C39.2716 18.8126 45.1875 24.7285 45.1875 32.0001C45.1875 33.849 44.813 35.6362 44.0744 37.3124C43.6567 38.26 44.0864 39.3666 45.034 39.7842C45.28 39.8926 45.5365 39.944 45.7891 39.944C46.5096 39.944 47.1966 39.5262 47.5059 38.8246C48.4559 36.6691 48.9375 34.3731 48.9375 32.0003C48.9376 22.6608 41.3395 15.0625 32 15.0625Z" fill="#97D80F"/>
<path d="M51.5506 46.7161C54.7682 42.4478 56.4689 37.359 56.4689 32C56.4689 18.5079 45.4922 7.53125 32.0001 7.53125C18.508 7.53125 7.53125 18.508 7.53125 32.0001C7.53125 37.3594 9.232 42.4481 12.4499 46.7165C12.8184 47.2055 13.38 47.463 13.9485 47.463C14.3415 47.463 14.7378 47.3399 15.0759 47.0851C15.9028 46.4618 16.0677 45.2861 15.4444 44.4593C12.7209 40.8465 11.2814 36.5383 11.2814 32.0003C11.2814 20.5759 20.5758 11.2815 32.0001 11.2815C43.4245 11.2815 52.7189 20.5759 52.7189 32.0003C52.7189 36.5381 51.2794 40.8462 48.5561 44.459C47.9328 45.2859 48.0978 46.4616 48.9248 47.0849C49.7515 47.7082 50.9272 47.5431 51.5506 46.7161Z" fill="#97D80F"/>
<path d="M54.6274 9.37261C48.5834 3.32862 40.5475 0 31.9999 0C23.4523 0 15.4166 3.32862 9.37248 9.37248C3.32862 15.4166 0 23.4526 0 32.0001C0 41.7792 4.38549 50.8939 12.0321 57.0071C12.3779 57.2834 12.7911 57.4176 13.2017 57.4176C13.752 57.4176 14.2972 57.1765 14.6675 56.7134C15.3141 55.9045 15.1826 54.7246 14.3737 54.078C7.62223 48.6805 3.74999 40.6333 3.74999 32.0001C3.74999 16.423 16.4228 3.74999 31.9999 3.74999C47.577 3.74999 60.2499 16.4228 60.2499 31.9999C60.2499 40.6332 56.3776 48.6803 49.6262 54.078C48.8173 54.7246 48.6859 55.9045 49.3325 56.7134C49.979 57.522 51.1588 57.6536 51.9679 57.0071C59.6144 50.8939 63.9999 41.7792 63.9999 32.0001C64 23.4526 60.6714 15.4166 54.6274 9.37261Z" fill="#97D80F"/>
<path d="M38.096 39.1549C40.1195 37.4282 41.4061 34.8623 41.4061 32C41.4061 26.8134 37.1865 22.5938 31.9999 22.5938C26.8133 22.5938 22.5936 26.8134 22.5936 32C22.5936 34.8623 23.8802 37.4282 25.9037 39.1549C21.7017 41.3582 18.8281 45.7636 18.8281 50.8281V62.1249C18.8281 63.1604 19.6676 63.9999 20.7031 63.9999H43.2969C44.3324 63.9999 45.1719 63.1604 45.1719 62.1249V50.828C45.1716 45.7635 42.298 41.3581 38.096 39.1549ZM26.3435 32C26.3435 28.8811 28.8809 26.3438 31.9998 26.3438C35.1186 26.3438 37.656 28.8811 37.656 32C37.656 35.1189 35.1186 37.6562 31.9998 37.6562C28.8809 37.6562 26.3435 35.1189 26.3435 32ZM41.4216 60.2499H22.5779V50.828C22.5779 45.6327 26.8045 41.4061 31.9998 41.4061C37.195 41.4061 41.4216 45.6327 41.4216 50.828V60.2499Z" fill="#97D80F"/>
</g>
<defs>
<clipPath id="clip0_99_3080">
<rect width="64" height="64" fill="white"/>
</clipPath>
</defs>
</svg>
