<svg width="65" height="64" viewBox="0 0 65 64" fill="none" xmlns="http://www.w3.org/2000/svg">
<g clip-path="url(#clip0_99_3094)">
<path d="M2.15576 26.25H22.1558C23.1913 26.25 24.0308 25.4105 24.0308 24.375V20.625C24.0308 16.7065 21.6133 13.3436 18.1921 11.9447C19.1113 10.6999 19.6558 9.16263 19.6558 7.5C19.6558 3.3645 16.2913 0 12.1558 0C8.02026 0 4.65576 3.3645 4.65576 7.5C4.65576 9.1625 5.20039 10.6999 6.11939 11.9447C2.69826 13.3436 0.280762 16.7065 0.280762 20.625V24.375C0.280762 25.4105 1.12026 26.25 2.15576 26.25ZM12.1558 3.75C14.2235 3.75 15.9058 5.43225 15.9058 7.5C15.9058 9.56775 14.2235 11.25 12.1558 11.25C10.088 11.25 8.40576 9.56775 8.40576 7.5C8.40576 5.43225 10.088 3.75 12.1558 3.75ZM4.03076 20.625C4.03076 17.5234 6.55414 15 9.65576 15H14.6558C17.7574 15 20.2808 17.5234 20.2808 20.625V22.5H4.03076V20.625Z" fill="#97D80F"/>
<path d="M38.3171 49.6948C39.2363 48.4499 39.7808 46.9126 39.7808 45.25C39.7808 41.1145 36.4163 37.75 32.2808 37.75C28.1453 37.75 24.7808 41.1145 24.7808 45.25C24.7808 46.9125 25.3254 48.4499 26.2444 49.6948C22.8233 51.0936 20.4058 54.4565 20.4058 58.375V62.125C20.4058 63.1605 21.2453 64 22.2808 64H42.2808C43.3163 64 44.1558 63.1605 44.1558 62.125V58.375C44.1558 54.4565 41.7383 51.0936 38.3171 49.6948ZM32.2808 41.5C34.3485 41.5 36.0308 43.1823 36.0308 45.25C36.0308 47.3177 34.3485 49 32.2808 49C30.213 49 28.5308 47.3177 28.5308 45.25C28.5308 43.1823 30.213 41.5 32.2808 41.5ZM40.4058 60.25H24.1558V58.375C24.1558 55.2734 26.6791 52.75 29.7808 52.75H34.7808C37.8824 52.75 40.4058 55.2734 40.4058 58.375V60.25Z" fill="#97D80F"/>
<path d="M58.4421 11.9447C59.3611 10.6999 59.9058 9.16263 59.9058 7.5C59.9058 3.3645 56.5413 0 52.4058 0C48.2703 0 44.9058 3.3645 44.9058 7.5C44.9058 9.1625 45.4504 10.6999 46.3694 11.9447C42.9483 13.3436 40.5308 16.7065 40.5308 20.625V24.375C40.5308 25.4105 41.3703 26.25 42.4058 26.25H62.4058C63.4413 26.25 64.2808 25.4105 64.2808 24.375V20.625C64.2808 16.7065 61.8633 13.3436 58.4421 11.9447ZM52.4058 3.75C54.4735 3.75 56.1558 5.43225 56.1558 7.5C56.1558 9.56775 54.4735 11.25 52.4058 11.25C50.338 11.25 48.6558 9.56775 48.6558 7.5C48.6558 5.43225 50.338 3.75 52.4058 3.75ZM60.5308 22.5H44.2808V20.625C44.2808 17.5234 46.8041 15 49.9058 15H54.9058C58.0074 15 60.5308 17.5234 60.5308 20.625V22.5Z" fill="#97D80F"/>
<path d="M62.4057 30C61.3702 30 60.5307 30.8395 60.5307 31.875V55.25H54.3073L56.1066 53.4507C56.8388 52.7185 56.8388 51.5314 56.1066 50.7991C55.3743 50.0669 54.1872 50.0669 53.4549 50.7991L48.4549 55.7991C47.7227 56.5314 47.7227 57.7185 48.4549 58.4507L53.4549 63.4507C54.1872 64.183 55.3743 64.183 56.1066 63.4507C56.8388 62.7185 56.8388 61.5314 56.1066 60.7991L54.3073 59H62.4057C63.4412 59 64.2807 58.1605 64.2807 57.125V31.875C64.2807 30.8395 63.4412 30 62.4057 30Z" fill="#97D80F"/>
<path d="M14.7808 55.2499H9.03082V36.4017L10.8299 38.2008C11.5622 38.9331 12.7493 38.9331 13.4816 38.2008C14.2138 37.4686 14.2138 36.2814 13.4816 35.5492L8.48158 30.5492C7.74932 29.8169 6.5622 29.8169 5.82995 30.5492L0.829949 35.5492C0.0976992 36.2814 0.0976992 37.4686 0.829949 38.2008C1.5622 38.9331 2.74932 38.9331 3.48157 38.2008L5.28082 36.4017V57.1249C5.28082 58.1604 6.12032 58.9999 7.15582 58.9999H14.7808C15.8163 58.9999 16.6558 58.1604 16.6558 57.1249C16.6558 56.0894 15.8163 55.2499 14.7808 55.2499Z" fill="#97D80F"/>
<path d="M25.2808 8.74994H34.7541L32.9549 10.5491C32.2226 11.2813 32.2226 12.4684 32.9549 13.2007C33.6871 13.9329 34.8743 13.9329 35.6065 13.2007L40.6065 8.20069C41.3388 7.46844 41.3388 6.28132 40.6065 5.54907L35.6065 0.549065C34.8743 -0.183185 33.6871 -0.183185 32.9549 0.549065C32.2226 1.28132 32.2226 2.46844 32.9549 3.20069L34.7541 4.99994H25.2808C24.2453 4.99994 23.4058 5.83944 23.4058 6.87494C23.4058 7.91044 24.2453 8.74994 25.2808 8.74994Z" fill="#97D80F"/>
</g>
<defs>
<clipPath id="clip0_99_3094">
<rect width="64" height="64" fill="white" transform="translate(0.280762)"/>
</clipPath>
</defs>
</svg>
