<svg width="25" height="24" viewBox="0 0 25 24" fill="none" xmlns="http://www.w3.org/2000/svg">
<path fill-rule="evenodd" clip-rule="evenodd" d="M12.3691 1.25C6.43214 1.25 1.61914 6.063 1.61914 12C1.61914 17.937 6.43214 22.75 12.3691 22.75C18.3061 22.75 23.1191 17.937 23.1191 12C23.1191 6.063 18.3061 1.25 12.3691 1.25ZM7.89914 11.97C7.75697 11.8375 7.56892 11.7654 7.37462 11.7688C7.18032 11.7723 6.99493 11.851 6.85752 11.9884C6.72011 12.1258 6.64139 12.3112 6.63797 12.5055C6.63454 12.6998 6.70666 12.8878 6.83914 13.03L9.83914 16.03C9.97977 16.1705 10.1704 16.2493 10.3691 16.2493C10.5679 16.2493 10.7585 16.1705 10.8991 16.03L17.8991 9.03C18.0316 8.88783 18.1037 8.69978 18.1003 8.50548C18.0969 8.31118 18.0182 8.12579 17.8808 7.98838C17.7433 7.85097 17.558 7.77225 17.3637 7.76883C17.1694 7.7654 16.9813 7.83752 16.8391 7.97L10.3691 14.44L7.89914 11.97Z" fill="#97D80F"/>
</svg>
