<svg width="25" height="24" viewBox="0 0 25 24" fill="none" xmlns="http://www.w3.org/2000/svg">
<path fill-rule="evenodd" clip-rule="evenodd" d="M12.3691 1.25C6.43214 1.25 1.61914 6.063 1.61914 12C1.61914 17.937 6.43214 22.75 12.3691 22.75C18.3061 22.75 23.1191 17.937 23.1191 12C23.1191 6.063 18.3061 1.25 12.3691 1.25ZM8.36914 11.25C8.17023 11.25 7.97946 11.329 7.83881 11.4697C7.69816 11.6103 7.61914 11.8011 7.61914 12C7.61914 12.1989 7.69816 12.3897 7.83881 12.5303C7.97946 12.671 8.17023 12.75 8.36914 12.75H16.3691C16.5681 12.75 16.7588 12.671 16.8995 12.5303C17.0401 12.3897 17.1191 12.1989 17.1191 12C17.1191 11.8011 17.0401 11.6103 16.8995 11.4697C16.7588 11.329 16.5681 11.25 16.3691 11.25H8.36914Z" fill="#F0F0F7"/>
</svg>
