<svg preserveAspectRatio="none" width="100%" height="100%" overflow="visible" style="display: block;" viewBox="0 0 56 56" fill="none" xmlns="http://www.w3.org/2000/svg">
<g id="CalendarDot">
<path id="Vector" d="M45.5 7.875H39.375V5.25C39.375 5.01794 39.2828 4.79538 39.1187 4.63128C38.9546 4.46719 38.7321 4.375 38.5 4.375C38.2679 4.375 38.0454 4.46719 37.8813 4.63128C37.7172 4.79538 37.625 5.01794 37.625 5.25V7.875H18.375V5.25C18.375 5.01794 18.2828 4.79538 18.1187 4.63128C17.9546 4.46719 17.7321 4.375 17.5 4.375C17.2679 4.375 17.0454 4.46719 16.8813 4.63128C16.7172 4.79538 16.625 5.01794 16.625 5.25V7.875H10.5C9.80381 7.875 9.13613 8.15156 8.64384 8.64384C8.15156 9.13613 7.875 9.80381 7.875 10.5V45.5C7.875 46.1962 8.15156 46.8639 8.64384 47.3562C9.13613 47.8484 9.80381 48.125 10.5 48.125H45.5C46.1962 48.125 46.8639 47.8484 47.3562 47.3562C47.8484 46.8639 48.125 46.1962 48.125 45.5V10.5C48.125 9.80381 47.8484 9.13613 47.3562 8.64384C46.8639 8.15156 46.1962 7.875 45.5 7.875ZM10.5 9.625H16.625V12.25C16.625 12.4821 16.7172 12.7046 16.8813 12.8687C17.0454 13.0328 17.2679 13.125 17.5 13.125C17.7321 13.125 17.9546 13.0328 18.1187 12.8687C18.2828 12.7046 18.375 12.4821 18.375 12.25V9.625H37.625V12.25C37.625 12.4821 37.7172 12.7046 37.8813 12.8687C38.0454 13.0328 38.2679 13.125 38.5 13.125C38.7321 13.125 38.9546 13.0328 39.1187 12.8687C39.2828 12.7046 39.375 12.4821 39.375 12.25V9.625H45.5C45.7321 9.625 45.9546 9.71719 46.1187 9.88128C46.2828 10.0454 46.375 10.2679 46.375 10.5V18.375H9.625V10.5C9.625 10.2679 9.71719 10.0454 9.88128 9.88128C10.0454 9.71719 10.2679 9.625 10.5 9.625ZM45.5 46.375H10.5C10.2679 46.375 10.0454 46.2828 9.88128 46.1187C9.71719 45.9546 9.625 45.7321 9.625 45.5V20.125H46.375V45.5C46.375 45.7321 46.2828 45.9546 46.1187 46.1187C45.9546 46.2828 45.7321 46.375 45.5 46.375ZM30.625 33.25C30.625 33.7692 30.471 34.2767 30.1826 34.7084C29.8942 35.1401 29.4842 35.4765 29.0045 35.6752C28.5249 35.8739 27.9971 35.9258 27.4879 35.8246C26.9787 35.7233 26.511 35.4733 26.1438 35.1062C25.7767 34.739 25.5267 34.2713 25.4254 33.7621C25.3242 33.2529 25.3761 32.7251 25.5748 32.2455C25.7735 31.7658 26.1099 31.3558 26.5416 31.0674C26.9733 30.779 27.4808 30.625 28 30.625C28.6962 30.625 29.3639 30.9016 29.8562 31.3938C30.3484 31.8861 30.625 32.5538 30.625 33.25Z" fill="var(--fill-0, #F0F0F7)"/>
</g>
</svg>
