<svg width="40" height="40" viewBox="0 0 40 40" fill="none" xmlns="http://www.w3.org/2000/svg">
<g clip-path="url(#clip0_148_2655)">
<path d="M33.1703 4.6875C33.6541 6.05141 34.9566 7.03125 36.4844 7.03125C38.4229 7.03125 40 5.45414 40 3.51562C40 1.57711 38.4229 0 36.4844 0C34.9566 0 33.6541 0.979844 33.1703 2.34375H29.375C29.003 2.34375 28.6533 2.52031 28.4323 2.81945L26.8884 4.91023C25.0391 3.31188 22.6305 2.34375 20 2.34375C17.3695 2.34375 14.9609 3.31188 13.1116 4.91031L11.5677 2.81953C11.3467 2.52031 10.997 2.34375 10.625 2.34375H6.82969C6.34594 0.979844 5.04336 0 3.51562 0C1.57711 0 0 1.57711 0 3.51562C0 5.45414 1.57711 7.03125 3.51562 7.03125C5.04336 7.03125 6.34594 6.05141 6.82969 4.6875H10.0337L11.4931 6.66383C10.4296 8.11289 9.72703 9.84219 9.51867 11.7188H6.82969C6.34594 10.3548 5.04336 9.375 3.51562 9.375C1.57711 9.375 0 10.9521 0 12.8906C0 14.8291 1.57711 16.4062 3.51562 16.4062C5.04336 16.4062 6.34594 15.4264 6.82969 14.0625H9.51859C9.72695 15.9391 10.4295 17.6684 11.493 19.1174L10.0337 21.0938H6.82969C6.34594 19.7298 5.04336 18.75 3.51562 18.75C1.57711 18.75 0 20.3271 0 22.2656C0 24.2041 1.57711 25.7812 3.51562 25.7812C5.04336 25.7812 6.34594 24.8014 6.82969 23.4375H10.625C10.997 23.4375 11.3467 23.2609 11.5677 22.9618L13.1116 20.871C14.6825 22.2287 16.657 23.1309 18.8281 23.3721V25.7812H17.6562C17.0091 25.7812 16.4844 26.3059 16.4844 26.9531V38.8281C16.4844 39.4753 17.0091 40 17.6562 40H22.3438C22.9909 40 23.5156 39.4753 23.5156 38.8281V26.9531C23.5156 26.3059 22.9909 25.7812 22.3438 25.7812H21.1719V23.372C23.343 23.1309 25.3175 22.2287 26.8884 20.8709L28.4323 22.9617C28.6533 23.2609 29.003 23.4375 29.375 23.4375H33.1703C33.6541 24.8014 34.9566 25.7812 36.4844 25.7812C38.4229 25.7812 40 24.2041 40 22.2656C40 20.3271 38.4229 18.75 36.4844 18.75C34.9566 18.75 33.6541 19.7298 33.1703 21.0938H29.9663L28.5069 19.1174C29.5704 17.6684 30.273 15.9391 30.4813 14.0625H33.1702C33.654 15.4264 34.9566 16.4062 36.4843 16.4062C38.4228 16.4062 39.9999 14.8291 39.9999 12.8906C39.9999 10.9521 38.4228 9.375 36.4843 9.375C34.9566 9.375 33.654 10.3548 33.1702 11.7188H30.4813C30.273 9.84219 29.5704 8.11289 28.5069 6.66383L29.9663 4.6875H33.1703ZM36.4844 2.34375C37.1305 2.34375 37.6562 2.86945 37.6562 3.51562C37.6562 4.1618 37.1305 4.6875 36.4844 4.6875C35.8382 4.6875 35.3125 4.1618 35.3125 3.51562C35.3125 2.86945 35.8382 2.34375 36.4844 2.34375ZM3.51562 4.6875C2.86945 4.6875 2.34375 4.1618 2.34375 3.51562C2.34375 2.86945 2.86945 2.34375 3.51562 2.34375C4.1618 2.34375 4.6875 2.86945 4.6875 3.51562C4.6875 4.1618 4.1618 4.6875 3.51562 4.6875ZM3.51562 23.4375C2.86945 23.4375 2.34375 22.9118 2.34375 22.2656C2.34375 21.6195 2.86945 21.0938 3.51562 21.0938C4.1618 21.0938 4.6875 21.6195 4.6875 22.2656C4.6875 22.9118 4.1618 23.4375 3.51562 23.4375ZM21.1719 28.125V30.4688H18.8281V28.125H21.1719ZM18.8281 37.6562V32.8125H21.1719V37.6562H18.8281ZM36.4844 21.0938C37.1305 21.0938 37.6562 21.6195 37.6562 22.2656C37.6562 22.9118 37.1305 23.4375 36.4844 23.4375C35.8382 23.4375 35.3125 22.9118 35.3125 22.2656C35.3125 21.6195 35.8382 21.0938 36.4844 21.0938ZM3.51562 14.0625C2.86945 14.0625 2.34375 13.5368 2.34375 12.8906C2.34375 12.2445 2.86945 11.7188 3.51562 11.7188C4.1618 11.7188 4.6875 12.2445 4.6875 12.8906C4.6875 13.5368 4.1618 14.0625 3.51562 14.0625ZM20 21.0938C15.4768 21.0938 11.7969 17.4138 11.7969 12.8906C11.7969 8.36742 15.4768 4.6875 20 4.6875C24.5232 4.6875 28.2031 8.36742 28.2031 12.8906C28.2031 17.4138 24.5232 21.0938 20 21.0938ZM36.4844 11.7188C37.1305 11.7188 37.6562 12.2445 37.6562 12.8906C37.6562 13.5368 37.1305 14.0625 36.4844 14.0625C35.8382 14.0625 35.3125 13.5368 35.3125 12.8906C35.3125 12.2445 35.8382 11.7188 36.4844 11.7188Z" fill="#97D80F"/>
</g>
<defs>
<clipPath id="clip0_148_2655">
<rect width="40" height="40" fill="white"/>
</clipPath>
</defs>
</svg>
