<svg width="40" height="40" viewBox="0 0 40 40" fill="none" xmlns="http://www.w3.org/2000/svg">
<g clip-path="url(#clip0_154_1144)">
<path d="M38.8281 31.3281H10.7031C10.0559 31.3281 9.53125 31.8528 9.53125 32.5V38.8281C9.53125 39.4753 10.0559 40 10.7031 40H38.8281C39.4753 40 40 39.4753 40 38.8281V32.5C40 31.8528 39.4753 31.3281 38.8281 31.3281ZM37.6562 37.6562H11.875V33.6719H14.2188V34.2188C14.2188 34.8659 14.7434 35.3906 15.3906 35.3906C16.0378 35.3906 16.5625 34.8659 16.5625 34.2188V33.6719H18.9062V35.2745C18.9062 35.9216 19.4309 36.4463 20.0781 36.4463C20.7253 36.4463 21.25 35.9216 21.25 35.2745V33.6719H23.5938V34.2188C23.5938 34.8659 24.1184 35.3906 24.7656 35.3906C25.4128 35.3906 25.9375 34.8659 25.9375 34.2188V33.6719H28.2812V35.2745C28.2812 35.9216 28.8059 36.4463 29.4531 36.4463C30.1003 36.4463 30.625 35.9216 30.625 35.2745V33.6719H32.9688V34.2188C32.9688 34.8659 33.4934 35.3906 34.1406 35.3906C34.7878 35.3906 35.3125 34.8659 35.3125 34.2188V33.6719H37.6562V37.6562Z" fill="#97D80F"/>
<path d="M6.6557 3.28125H1.17188C0.524687 3.28125 0 3.80594 0 4.45312V26.5224C0 26.7634 0.0742969 26.9984 0.212734 27.1957L2.95461 31.102C3.17398 31.4145 3.53195 31.6005 3.91375 31.6005C4.29555 31.6005 4.65352 31.4145 4.87289 31.102L7.61484 27.1957C7.75328 26.9985 7.82758 26.7634 7.82758 26.5224V4.45312C7.82758 3.80594 7.30289 3.28125 6.6557 3.28125ZM2.34375 10.3506H5.48383V23.75H2.34375V10.3506ZM2.34375 5.625H5.48383V8.00688H2.34375V5.625ZM5.48383 26.1523L3.91375 28.389L2.34375 26.1523V26.0938H5.48383V26.1523Z" fill="#97D80F"/>
<path d="M38.8281 0H11.3281C10.6809 0 10.1562 0.524687 10.1562 1.17188V27.7344C10.1562 28.3816 10.6809 28.9062 11.3281 28.9062H38.8281C39.4753 28.9062 40 28.3816 40 27.7344V1.17188C40 0.524687 39.4753 0 38.8281 0ZM37.6562 4.39586L35.5317 2.34375H37.6562V4.39586ZM33.8036 3.93305L35.9281 5.98523H33.8036V3.93305ZM12.5 26.5625V2.34375H31.4598V7.15711C31.4598 7.8043 31.9845 8.32898 32.6317 8.32898H37.6562V26.5625H12.5Z" fill="#97D80F"/>
<path d="M34.2356 11.3247L28.9604 10.0012L26.0716 5.3932C25.8572 5.05133 25.4821 4.84375 25.0787 4.84375C24.6753 4.84375 24.3001 5.05133 24.0858 5.39312L21.197 10.0011L15.9218 11.3246C15.5305 11.4227 15.2171 11.7154 15.0925 12.0991C14.9678 12.4829 15.0493 12.9037 15.3082 13.2132L18.798 17.3846L18.4266 22.8106C18.399 23.2131 18.5805 23.6016 18.9069 23.8387C19.2341 24.0766 19.6607 24.128 20.0332 23.9779L25.0788 21.948L30.1244 23.9779C30.4987 24.1285 30.9242 24.0759 31.2507 23.8387C31.5771 23.6016 31.7585 23.2132 31.731 22.8106L31.3596 17.3846L34.8493 13.2132C35.4046 12.5726 35.0616 11.5165 34.2356 11.3247ZM29.2593 16.2423C29.0652 16.4744 28.9682 16.7725 28.9889 17.0743L29.2649 21.1058C29.0639 21.0556 25.1593 19.3693 25.0786 19.5129C25.0068 19.3666 21.082 21.0598 20.8924 21.1058L21.1683 17.0743C21.189 16.7725 21.0921 16.4744 20.898 16.2423L18.3051 13.143L22.2245 12.1597C22.5179 12.0861 22.7714 11.9019 22.9322 11.6455L25.0787 8.22187L27.2251 11.6455C27.3858 11.9019 27.6394 12.0861 27.9328 12.1598L31.8522 13.1431L29.2593 16.2423Z" fill="#97D80F"/>
</g>
<defs>
<clipPath id="clip0_154_1144">
<rect width="40" height="40" fill="white"/>
</clipPath>
</defs>
</svg>
