<svg width="40" height="40" viewBox="0 0 40 40" fill="none" xmlns="http://www.w3.org/2000/svg">
<g clip-path="url(#clip0_148_2666)">
<path d="M8.20312 4.76562C6.26461 4.76562 4.6875 6.34273 4.6875 8.28125V12.9688C4.6875 13.6159 5.21219 14.1406 5.85938 14.1406C6.50656 14.1406 7.03125 13.6159 7.03125 12.9688V11.7969H9.375V12.9688C9.375 13.6159 9.89969 14.1406 10.5469 14.1406C11.1941 14.1406 11.7188 13.6159 11.7188 12.9688V8.28125C11.7188 6.34273 10.1416 4.76562 8.20312 4.76562ZM7.03125 9.45312V8.28125C7.03125 7.63508 7.55695 7.10938 8.20312 7.10938C8.8493 7.10938 9.375 7.63508 9.375 8.28125V9.45312H7.03125Z" fill="#97D80F"/>
<path d="M16.4062 4.76562H15.2344C14.5872 4.76562 14.0625 5.29031 14.0625 5.9375V12.9688C14.0625 13.6159 14.5872 14.1406 15.2344 14.1406H16.4062C18.9909 14.1406 21.0938 12.0378 21.0938 9.45312C21.0938 6.86844 18.9909 4.76562 16.4062 4.76562ZM16.4062 11.7969V7.10938C17.6986 7.10938 18.75 8.16078 18.75 9.45312C18.75 10.7455 17.6986 11.7969 16.4062 11.7969Z" fill="#97D80F"/>
<path d="M38.8281 18.8281C39.4753 18.8281 40 18.3034 40 17.6562V1.25C40 0.602812 39.4753 0.078125 38.8281 0.078125H1.17188C0.524687 0.078125 0 0.602812 0 1.25V17.6562C0 18.3034 0.524687 18.8281 1.17188 18.8281H20.7741L21.3755 21.1719H17.5781C16.9309 21.1719 16.4062 21.6966 16.4062 22.3438V38.75C16.4062 39.3972 16.9309 39.9219 17.5781 39.9219H38.8281C39.4753 39.9219 40 39.3972 40 38.75V22.3438C40 21.6966 39.4753 21.1719 38.8281 21.1719H34.3098L29.5175 18.8281H38.8281ZM2.34375 16.4844V2.42188H37.6562V16.4844H24.7253L21.8004 15.0538C20.9042 14.6155 19.9024 15.4311 20.1504 16.3978L20.1726 16.4843H2.34375V16.4844ZM37.6562 37.5781H18.75V23.5156H21.977L23.7251 30.3272C23.9391 31.1612 24.9523 31.4873 25.6127 30.9342L27.2802 29.5373L29.0565 31.6666C29.471 32.1635 30.212 32.2313 30.7097 31.8136L34.7508 28.4227C35.2455 28.0075 35.3111 27.2702 34.8973 26.7743L33.118 24.6412L34.4614 23.5156H37.6562V37.5781ZM30.569 25.2445L32.349 27.3784L30.1033 29.2627L28.3276 27.1341C27.9116 26.6355 27.1707 26.5713 26.6752 26.9865L25.5329 27.9434L23.0517 18.2749L31.9011 22.6029L30.7162 23.5955C30.2209 24.0105 30.155 24.7483 30.569 25.2445Z" fill="#97D80F"/>
<path d="M12.8906 21.1719H1.17188C0.524687 21.1719 0 21.6966 0 22.3438V38.75C0 39.3972 0.524687 39.9219 1.17188 39.9219H12.8906C13.5378 39.9219 14.0625 39.3972 14.0625 38.75V22.3438C14.0625 21.6966 13.5378 21.1719 12.8906 21.1719ZM11.7188 37.5781H2.34375V23.5156H11.7188V37.5781Z" fill="#97D80F"/>
<path d="M24.6094 8.28125H33.9844C34.6316 8.28125 35.1562 7.75656 35.1562 7.10938C35.1562 6.46219 34.6316 5.9375 33.9844 5.9375H24.6094C23.9622 5.9375 23.4375 6.46219 23.4375 7.10938C23.4375 7.75656 23.9622 8.28125 24.6094 8.28125Z" fill="#97D80F"/>
<path d="M24.6094 12.9688H33.9844C34.6316 12.9688 35.1562 12.4441 35.1562 11.7969C35.1562 11.1497 34.6316 10.625 33.9844 10.625H24.6094C23.9622 10.625 23.4375 11.1497 23.4375 11.7969C23.4375 12.4441 23.9622 12.9688 24.6094 12.9688Z" fill="#97D80F"/>
</g>
<defs>
<clipPath id="clip0_148_2666">
<rect width="40" height="40" fill="white"/>
</clipPath>
</defs>
</svg>
