<svg width="40" height="40" viewBox="0 0 40 40" fill="none" xmlns="http://www.w3.org/2000/svg">
<g clip-path="url(#clip0_114_6133)">
<path d="M39.6568 29.4095L35.5732 25.3261C34.0845 23.8373 33.265 21.8579 33.2656 19.7528C33.2665 17.9095 33.2793 17.9335 33.2316 17.7421C33.1674 17.4847 33.0814 17.2356 32.9762 16.9956C33.7126 16.123 34.0852 15.7761 39.4636 10.3973C39.9212 9.93967 39.9212 9.19771 39.4636 8.74005L31.0667 0.343127C30.6094 -0.114219 29.867 -0.114532 29.4094 0.343127C25.2939 4.45885 25.3343 4.41963 25.3261 4.42674C23.8379 5.91496 21.8597 6.73434 19.7554 6.73434C17.9768 6.73434 17.9508 6.71629 17.7421 6.76848C17.4848 6.8327 17.2359 6.91863 16.9958 7.02379C16.1412 6.30347 15.8611 5.9998 10.3974 0.536409C9.93972 0.0786723 9.19776 0.0788286 8.7401 0.536409L0.343098 8.93326C-0.114249 9.39045 -0.114483 10.1329 0.343098 10.5905L4.42672 14.6739C5.91547 16.1627 6.73493 18.1421 6.73431 20.2471L6.73353 21.9737C6.73345 22.2658 6.90728 22.7386 7.02376 23.0044C6.29212 23.8722 5.94321 24.1954 0.536302 29.6027C0.0787211 30.0603 0.0787211 30.8023 0.536302 31.2599L8.93323 39.6569C9.39049 40.1142 10.1329 40.1145 10.5905 39.6569C14.6542 35.5929 14.6666 35.579 14.6745 35.5726C16.1569 34.0904 18.1316 33.2657 20.2468 33.2657C20.2556 33.2657 21.9828 33.2664 21.9739 33.2664C22.2656 33.2664 22.7382 33.0927 23.005 32.975C23.8635 33.6995 24.2339 34.0955 29.6025 39.4638C30.06 39.9214 30.802 39.9216 31.2598 39.4638L39.6567 31.0669C40.1142 30.6095 40.1144 29.867 39.6568 29.4095ZM33.1337 26.1077L26.3465 32.8949C25.779 32.3314 25.3268 31.8939 24.8687 31.4879C25.8036 30.2285 26.0862 28.4839 25.23 27.0043C25.5098 26.6579 25.7182 26.2704 25.8543 25.8613C26.5334 25.639 27.1362 25.2153 27.6032 24.6204C27.684 24.5173 30.238 20.7718 30.9223 19.7806C30.9278 22.107 31.7052 24.3136 33.1337 26.1077ZM30.2381 2.82908L36.9778 9.56873L34.5517 11.9951L27.812 5.25534L30.2381 2.82908ZM26.1076 6.86629L32.895 13.6537C31.9083 14.6482 31.3287 15.2667 30.6446 16.1504C29.446 17.6759 25.9779 22.916 25.72 23.2207C25.3086 22.2866 24.5489 21.5825 23.6125 21.2481C23.444 20.7775 23.1823 20.3557 22.8529 20C23.1828 19.6443 23.4436 19.2215 23.6124 18.751C26.2252 17.8122 26.9891 14.2563 24.6205 12.3969C24.5243 12.3213 20.844 9.81115 19.7818 9.07771C22.1078 9.07177 24.3139 8.2945 26.1076 6.86629ZM9.5687 3.0222L11.995 5.44839L5.25531 12.188L2.82905 9.76193L9.5687 3.0222ZM6.86626 13.8923L13.6534 7.10512C16.0518 9.48576 16.2955 9.51646 23.1985 14.2608C24.1478 15.0353 23.641 16.4924 22.5142 16.6156C21.9678 16.6753 21.5363 17.1066 21.4764 17.6529C21.4349 18.0326 21.2354 18.3571 20.9498 18.5694C20.5788 17.5632 19.7792 16.7551 18.7505 16.387C17.8117 13.7752 14.2564 13.0112 12.397 15.3796C12.3207 15.4767 9.74909 19.2464 9.07768 20.2186C9.07198 17.8924 8.29463 15.6863 6.86626 13.8923ZM9.76182 37.1709L3.02218 30.4313L5.44867 28.0046L12.1883 34.7443L9.76182 37.1709ZM20.2477 30.9219C17.9202 30.9219 15.7025 31.6922 13.8923 33.1336L7.10517 26.3465C9.50659 23.9272 9.56464 23.6343 14.2609 16.8016C15.0352 15.8524 16.4922 16.3587 16.6153 17.4856C16.675 18.0321 17.1065 18.4636 17.6529 18.5233C18.3222 18.5964 18.8692 19.1664 18.8302 19.9393C18.8071 20.3844 19.0414 20.8136 19.4452 21.0312C19.7117 21.1743 19.945 21.1847 20.275 21.1741C20.8977 21.2293 21.4071 21.7097 21.4767 22.3472C21.5364 22.8936 21.9679 23.3251 22.5144 23.3848C23.6462 23.5085 24.1267 24.9501 23.2257 25.716C23.1899 25.7464 23.142 25.7872 23.0709 25.8491L21.134 26.4889C20.5195 26.692 20.1858 27.3547 20.3888 27.9692C20.5516 28.4618 21.0095 28.7738 21.5013 28.7738C21.7639 28.7738 21.7931 28.7395 23.2474 28.2591C23.6907 29.1338 23.1232 30.5168 21.815 30.9225L20.2477 30.9219ZM30.4312 36.9778L28.0049 34.5516L34.7446 27.812L37.1709 30.2381L30.4312 36.9778Z" fill="#97D80F"/>
</g>
<defs>
<clipPath id="clip0_114_6133">
<rect width="40" height="40" fill="white"/>
</clipPath>
</defs>
</svg>
