<svg width="40" height="40" viewBox="0 0 40 40" fill="none" xmlns="http://www.w3.org/2000/svg">
<g clip-path="url(#clip0_154_1131)">
<path d="M38.8281 0H1.17188C0.524687 0 0 0.524687 0 1.17188V31.7441C0 32.3913 0.524687 32.916 1.17188 32.916H15.9745C15.5049 34.2898 14.6229 36.1466 13.0211 37.6562H8.70336C8.05617 37.6562 7.53148 38.1809 7.53148 38.8281C7.53148 39.4753 8.05617 40 8.70336 40H31.2966C31.9438 40 32.4684 39.4753 32.4684 38.8281C32.4684 38.1809 31.9438 37.6562 31.2966 37.6562H26.9789C25.3771 36.1466 24.4951 34.2899 24.0255 32.916H38.8281C39.4753 32.916 40 32.3913 40 31.7441V1.17188C40 0.524687 39.4753 0 38.8281 0ZM2.34375 2.34375H37.6562V25.8848H25.3687V22.6866L27.8685 18.7173C28.1391 18.2877 28.1022 17.7326 27.7771 17.3424L20.9005 9.09234C20.4555 8.53508 19.5371 8.53781 19.0955 9.09781L12.2229 17.3423C11.8977 17.7324 11.8608 18.2877 12.1315 18.7173L14.632 22.6865V25.8846H2.34375V2.34375ZM20.0003 18.8327C20.6475 18.8327 21.1722 18.308 21.1722 17.6609V13.0791L25.4315 18.1891L23.5499 21.1765H16.4507L14.5687 18.189L18.8284 13.0788V17.6609C18.8284 18.308 19.3531 18.8327 20.0003 18.8327ZM16.9758 23.5202H23.0249V25.8848H16.9758V23.5202ZM23.8587 37.6562H16.1413C17.3748 35.9861 18.0584 34.2359 18.4323 32.916H21.5678C21.9416 34.2359 22.6253 35.9861 23.8587 37.6562ZM2.34375 30.5723V28.2285H37.6562V30.5723H2.34375Z" fill="#97D80F"/>
<path d="M19.9996 6.69141C23.5037 6.69141 26.3876 7.62445 28.3979 8.55914C28.3578 8.77125 28.3359 8.98977 28.3359 9.21344C28.3359 11.152 29.913 12.7291 31.8516 12.7291C33.7901 12.7291 35.3672 11.152 35.3672 9.21344C35.3672 7.27492 33.7901 5.69781 31.8516 5.69781C30.9889 5.69781 30.1984 6.01062 29.5859 6.52812C27.3325 5.45336 24.0342 4.34766 19.9996 4.34766C15.9652 4.34766 12.6671 5.4532 10.4137 6.52789C9.80141 6.01055 9.01094 5.69781 8.14844 5.69781C6.20992 5.69781 4.63281 7.27492 4.63281 9.21344C4.63281 11.152 6.20992 12.7291 8.14844 12.7291C10.087 12.7291 11.6641 11.152 11.6641 9.21344C11.6641 8.98969 11.6422 8.77109 11.602 8.55883C13.6123 7.6243 16.4959 6.69141 19.9996 6.69141ZM33.0234 9.21352C33.0234 9.85969 32.4977 10.3854 31.8515 10.3854C31.2053 10.3854 30.6796 9.85969 30.6796 9.21352C30.6796 8.56734 31.2053 8.04164 31.8515 8.04164C32.4977 8.04164 33.0234 8.56727 33.0234 9.21352ZM8.14844 10.3854C7.50227 10.3854 6.97656 9.85969 6.97656 9.21352C6.97656 8.56734 7.50227 8.04164 8.14844 8.04164C8.79461 8.04164 9.32031 8.56734 9.32031 9.21352C9.32031 9.85969 8.79461 10.3854 8.14844 10.3854Z" fill="#97D80F"/>
</g>
<defs>
<clipPath id="clip0_154_1131">
<rect width="40" height="40" fill="white"/>
</clipPath>
</defs>
</svg>
