<svg width="40" height="40" viewBox="0 0 40 40" fill="none" xmlns="http://www.w3.org/2000/svg">
<g clip-path="url(#clip0_154_970)">
<path d="M38.8281 0H19.3688C18.7216 0 18.197 0.525703 18.197 1.17414V4.14719H1.17188C0.524687 4.14719 0 4.67289 0 5.32133V36.0006C0 36.6491 0.524687 37.1748 1.17188 37.1748H9.50328V38.8257C9.50328 39.4741 10.028 39.9998 10.6752 39.9998H34.1687C34.8159 39.9998 35.3405 39.4741 35.3405 38.8257V21.2205H38.8281C39.4753 21.2205 40 20.6948 40 20.0463V1.17414C40 0.525703 39.4753 0 38.8281 0ZM32.9967 16.7198V35.6357L28.2259 30.0219C28.0033 29.7598 27.6772 29.6089 27.3338 29.6089C26.9903 29.6089 26.6641 29.7598 26.4415 30.0219L23.8481 33.0735L19.783 28.0266C19.5613 27.7513 19.2274 27.5909 18.8743 27.5898C18.8732 27.5898 18.8722 27.5898 18.8711 27.5898C18.5191 27.5898 18.1859 27.7483 17.9632 28.0216L11.847 35.5302V16.7198H32.9967ZM27.5356 37.6516L25.346 34.9332L27.3338 32.5942L31.6316 37.6516H27.5356V37.6516ZM24.5238 37.6516H13.1441L18.8659 30.6273L24.5238 37.6516ZM2.34375 34.8266V6.49555H18.197V9.25914H5.87539C5.2282 9.25914 4.70352 9.78484 4.70352 10.4333C4.70352 11.0817 5.2282 11.6074 5.87539 11.6074H18.197V14.3714L5.87539 14.371C5.2282 14.371 4.70352 14.8967 4.70352 15.5452C4.70352 16.1936 5.2282 16.7193 5.87539 16.7193H9.50328V19.4828H5.87539C5.2282 19.4828 4.70352 20.0085 4.70352 20.657C4.70352 21.3054 5.2282 21.8311 5.87539 21.8311H9.50328V24.5946H5.87539C5.2282 24.5946 4.70352 25.1203 4.70352 25.7687C4.70352 26.4172 5.2282 26.9429 5.87539 26.9429H9.50328V29.7065H5.87539C5.2282 29.7065 4.70352 30.2322 4.70352 30.8806C4.70352 31.5291 5.2282 32.0548 5.87539 32.0548H9.50328V34.8263H2.34375V34.8266ZM37.6562 18.8722H35.3405V15.5456C35.3405 14.8972 34.8158 14.3715 34.1686 14.3715H28.599L33.5707 11.2962C33.9271 11.0758 34.139 10.6814 34.1264 10.262C34.1138 9.84242 33.8787 9.46148 33.5098 9.26281L25.792 5.1075C25.4287 4.91195 24.9898 4.92211 24.6359 5.13398C24.282 5.34594 24.0654 5.72867 24.0654 6.1418V14.3715H20.5408V2.34836H37.6562V18.8722ZM26.4091 12.9663V8.1057L30.6102 10.3677L26.4091 12.9663Z" fill="#97D80F"/>
<path d="M27.3339 27.5379C29.2142 27.5379 30.744 26.0052 30.744 24.1212C30.744 22.2372 29.2142 20.7045 27.3339 20.7045C25.4536 20.7045 23.9238 22.2372 23.9238 24.1212C23.9238 26.0051 25.4536 27.5379 27.3339 27.5379ZM27.3339 23.0528C27.9219 23.0528 28.4002 23.532 28.4002 24.1212C28.4002 24.7103 27.9219 25.1896 27.3339 25.1896C26.7459 25.1896 26.2676 24.7103 26.2676 24.1212C26.2676 23.532 26.7459 23.0528 27.3339 23.0528Z" fill="#97D80F"/>
</g>
<defs>
<clipPath id="clip0_154_970">
<rect width="40" height="40" fill="white"/>
</clipPath>
</defs>
</svg>
