<svg width="40" height="40" viewBox="0 0 40 40" fill="none" xmlns="http://www.w3.org/2000/svg">
<path d="M30.4203 6.47969V3.51562C30.4203 1.57734 28.8438 0 26.9047 0H4.89062C2.95156 0 1.375 1.57734 1.375 3.51562V36.4844C1.375 38.4227 2.95156 40 4.89062 40H19.5758C20.5148 40 21.3977 39.6344 22.0617 38.9703L29.3906 31.6414C30.0547 30.9773 30.4203 30.0945 30.4203 29.1555V25.0828C35.0391 24.5047 38.6234 20.5539 38.6234 15.7812C38.6234 11.0086 35.0391 7.05781 30.4203 6.47969ZM4.89062 37.6562C4.24375 37.6562 3.71875 37.1305 3.71875 36.4844V3.51562C3.71875 2.86953 4.24375 2.34375 4.89062 2.34375H26.9047C27.5516 2.34375 28.0766 2.86953 28.0766 3.51562V6.47969C23.4586 7.05781 19.8734 11.0086 19.8734 15.7812C19.8734 20.5539 23.4586 24.5047 28.0766 25.0828V28.7758H21.775C20.568 28.7758 19.5859 29.7578 19.5859 30.9648V37.6562H4.89062ZM21.9297 35.7883V31.1195H26.5984L21.9297 35.7883ZM29.2484 22.8125C25.3802 22.8125 22.2172 19.6666 22.2172 15.7812C22.2172 11.8924 25.3837 8.75 29.2484 8.75C33.1177 8.75 36.2797 11.896 36.2797 15.7812C36.2797 19.6701 33.1141 22.8125 29.2484 22.8125Z" fill="#97D80F"/>
<path d="M31.3596 13.1054L28.1108 15.8253L27.3566 14.7065C26.9948 14.1698 26.2664 14.0281 25.7298 14.3899C25.1932 14.7517 25.0514 15.48 25.4132 16.0167L26.8944 18.2137C27.2816 18.7882 28.0838 18.9047 28.6183 18.4572L32.8641 14.9025C33.3605 14.487 33.4259 13.7479 33.0104 13.2517C32.5949 12.7554 31.8559 12.69 31.3596 13.1054Z" fill="#97D80F"/>
<path d="M7.30859 9.31311H18.3991C19.0463 9.31311 19.5709 8.78842 19.5709 8.14124C19.5709 7.49405 19.0463 6.96936 18.3991 6.96936H7.30859C6.66141 6.96936 6.13672 7.49405 6.13672 8.14124C6.13672 8.78842 6.66141 9.31311 7.30859 9.31311Z" fill="#97D80F"/>
<path d="M7.30859 15.1823H16.1334C16.7806 15.1823 17.3053 14.6576 17.3053 14.0104C17.3053 13.3632 16.7806 12.8385 16.1334 12.8385H7.30859C6.66141 12.8385 6.13672 13.3632 6.13672 14.0104C6.13672 14.6576 6.66141 15.1823 7.30859 15.1823Z" fill="#97D80F"/>
<path d="M7.30859 21.0514H16.1334C16.7806 21.0514 17.3053 20.5267 17.3053 19.8795C17.3053 19.2323 16.7806 18.7076 16.1334 18.7076H7.30859C6.66141 18.7076 6.13672 19.2323 6.13672 19.8795C6.13672 20.5267 6.66141 21.0514 7.30859 21.0514Z" fill="#97D80F"/>
<path d="M7.30859 26.9205H21.6022C22.2494 26.9205 22.7741 26.3958 22.7741 25.7487C22.7741 25.1015 22.2494 24.5768 21.6022 24.5768H7.30859C6.66141 24.5768 6.13672 25.1015 6.13672 25.7487C6.13672 26.3958 6.66141 26.9205 7.30859 26.9205Z" fill="#97D80F"/>
<path d="M16.1334 30.4459H7.30859C6.66141 30.4459 6.13672 30.9706 6.13672 31.6178C6.13672 32.265 6.66141 32.7897 7.30859 32.7897H16.1334C16.7806 32.7897 17.3053 32.265 17.3053 31.6178C17.3053 30.9706 16.7807 30.4459 16.1334 30.4459Z" fill="#97D80F"/>
</svg>
