<svg width="40" height="40" viewBox="0 0 40 40" fill="none" xmlns="http://www.w3.org/2000/svg">
<g clip-path="url(#clip0_148_1891)">
<path d="M38.8281 37.6562H37.5781V15.3906C37.5781 14.7434 37.0534 14.2188 36.4062 14.2188H31.7188C31.0716 14.2188 30.5469 14.7434 30.5469 15.3906V37.6562H28.2031V26.3281C28.2031 25.6809 27.6784 25.1562 27.0312 25.1562H22.3438C21.6966 25.1562 21.1719 25.6809 21.1719 26.3281V37.6562H18.8281V32.5781C18.8281 31.9309 18.3034 31.4062 17.6562 31.4062H12.9688C12.3216 31.4062 11.7969 31.9309 11.7969 32.5781V37.6562H9.45312V29.4531C9.45312 28.8059 8.92844 28.2812 8.28125 28.2812H3.59375C2.94656 28.2812 2.42188 28.8059 2.42188 29.4531V37.6562H1.17188C0.524687 37.6562 0 38.1809 0 38.8281C0 39.4753 0.524687 40 1.17188 40H38.8281C39.4753 40 40 39.4753 40 38.8281C40 38.1809 39.4753 37.6562 38.8281 37.6562ZM7.10938 37.6562H4.76562V30.625H7.10938V37.6562ZM16.4844 37.6562H14.1406V33.75H16.4844V37.6562ZM25.8594 37.6562H23.5156V27.5H25.8594V37.6562ZM35.2344 37.6562H32.8906V16.5625H35.2344V37.6562Z" fill="#97D80F"/>
<path d="M14.8421 7.13892C16.5066 7.73017 17.8162 9.03978 18.4074 10.7043C18.5734 11.1717 19.0156 11.4839 19.5116 11.4839H24.3743C25.1152 11.4839 25.67 10.805 25.5227 10.079V10.0788C25.0194 7.5997 23.803 5.339 22.0052 3.54119C20.2074 1.74337 17.9468 0.527124 15.4677 0.0238423C14.7415 -0.12358 14.0625 0.431342 14.0625 1.1722V6.0347C14.0625 6.53072 14.3747 6.9729 14.8421 7.13892ZM16.4062 2.70798C19.4163 3.76533 21.7811 6.13025 22.8384 9.14017H20.2938C19.4831 7.43064 18.1158 6.0633 16.4062 5.25267V2.70798Z" fill="#97D80F"/>
<path d="M12.8906 25.5465C15.8816 25.5465 18.7962 24.4987 21.0978 22.5961C23.3681 20.7194 24.9395 18.1044 25.5226 15.2327C25.67 14.5067 25.1151 13.8277 24.3742 13.8277H19.5116C19.0156 13.8277 18.5734 14.14 18.4073 14.6073C17.5773 16.9447 15.3602 18.5152 12.8906 18.5152C9.65977 18.5152 7.03125 15.8867 7.03125 12.6558C7.03125 10.1862 8.60172 7.9692 10.9391 7.13904C11.4065 6.97303 11.7188 6.53076 11.7188 6.03482V1.17232C11.7188 0.431464 11.0398 -0.123457 10.3138 0.0239644H10.3137C7.44211 0.606855 4.82711 2.17826 2.95031 4.44865C1.04781 6.75021 0 9.66482 0 12.6558C0 19.7637 5.78273 25.5465 12.8906 25.5465ZM14.0625 20.7742C16.7611 20.3817 19.1129 18.6529 20.2931 16.1715H22.8368C21.4983 19.9558 18.0721 22.6857 14.0625 23.136V20.7742ZM9.375 2.70967V5.25326C6.89359 6.43357 5.16477 8.78537 4.77227 11.484H2.41055C2.86078 7.47428 5.59063 4.0481 9.375 2.70967ZM4.77156 13.8277C5.28695 17.4149 8.13156 20.2595 11.7188 20.7749V23.1372C6.83758 22.5951 2.95133 18.7089 2.40922 13.8277H4.77156Z" fill="#97D80F"/>
</g>
<defs>
<clipPath id="clip0_148_1891">
<rect width="40" height="40" fill="white"/>
</clipPath>
</defs>
</svg>
