<svg width="40" height="40" viewBox="0 0 40 40" fill="none" xmlns="http://www.w3.org/2000/svg">
<g clip-path="url(#clip0_114_6146)">
<path d="M38.8281 12.5781H34.1406C33.4934 12.5781 32.9688 13.1028 32.9688 13.75C32.9688 14.3972 33.4934 14.9219 34.1406 14.9219H35.999L30.2886 20.6323C29.7743 18.2187 28.1953 16.1948 26.0685 15.0773C27.3258 14.0017 28.125 12.4054 28.125 10.625C28.125 7.39414 25.4965 4.76562 22.2656 4.76562C19.0348 4.76562 16.4062 7.39414 16.4062 10.625C16.4062 12.4054 17.2055 14.0017 18.4627 15.0772C16.5008 16.1081 15.0048 17.9102 14.3809 20.0781C14.2342 19.9101 14.0806 19.7469 13.9192 19.5897C13.3446 19.0298 12.7013 18.5639 12.0088 18.1999C13.2645 17.1244 14.0625 15.5291 14.0625 13.75C14.0625 10.5191 11.434 7.89062 8.20312 7.89062C4.97227 7.89062 2.34375 10.5191 2.34375 13.75C2.34375 15.5304 3.14297 17.1267 4.40023 18.2022C1.7868 19.5755 0 22.3172 0 25.4688V34.0625C0 34.7097 0.524687 35.2344 1.17188 35.2344H10.7031C11.014 35.2344 11.312 35.1109 11.5317 34.8911L20.0781 26.3448L23.1558 29.4224C23.6134 29.88 24.3554 29.88 24.813 29.4224L37.6562 16.5791V18.4375C37.6562 19.0847 38.1809 19.6094 38.8281 19.6094C39.4753 19.6094 40 19.0847 40 18.4375V13.75C40 13.1028 39.4753 12.5781 38.8281 12.5781ZM18.75 10.625C18.75 8.68648 20.3271 7.10938 22.2656 7.10938C24.2041 7.10938 25.7812 8.68648 25.7812 10.625C25.7812 12.5635 24.2041 14.1406 22.2656 14.1406C20.3271 14.1406 18.75 12.5635 18.75 10.625ZM4.6875 13.75C4.6875 11.8115 6.26461 10.2344 8.20312 10.2344C10.1416 10.2344 11.7188 11.8115 11.7188 13.75C11.7188 15.6885 10.1416 17.2656 8.20312 17.2656C6.26461 17.2656 4.6875 15.6885 4.6875 13.75ZM10.2177 32.8906H2.34375V25.4688C2.34375 22.2379 4.97227 19.6094 8.20312 19.6094C9.73664 19.6094 11.1857 20.1985 12.2835 21.2682C13.3791 22.3359 14.0074 23.7656 14.0526 25.2941C14.0538 25.3353 14.0573 25.3759 14.0626 25.4159V29.0458L10.2177 32.8906ZM23.9844 26.9365L20.9067 23.8588C20.4491 23.4013 19.7071 23.4013 19.2495 23.8588L16.4062 26.7021V22.3438C16.4062 19.1129 19.0348 16.4844 22.2656 16.4844C25.4965 16.4844 28.125 19.1129 28.125 22.3438V22.7959L23.9844 26.9365Z" fill="#97D80F"/>
</g>
<defs>
<clipPath id="clip0_114_6146">
<rect width="40" height="40" fill="white"/>
</clipPath>
</defs>
</svg>
