<svg width="40" height="40" viewBox="0 0 40 40" fill="none" xmlns="http://www.w3.org/2000/svg">
<g clip-path="url(#clip0_148_2659)">
<path d="M38.4307 12.3783H26.1437C25.3804 12.3783 24.7615 12.9972 24.7615 13.7606V19.3094H13.8567C13.0934 19.3094 12.4745 19.9283 12.4745 20.6917V26.2406H1.56977C0.806406 26.2406 0.1875 26.8595 0.1875 27.6229V38.6177C0.1875 39.381 0.806406 39.9999 1.56977 39.9999C2.31648 39.9999 37.7641 39.9999 38.4307 39.9999C39.1941 39.9999 39.813 39.381 39.813 38.6177V13.7606C39.813 12.9972 39.1941 12.3783 38.4307 12.3783ZM12.4745 37.2354H2.95203V29.0052H12.4745V37.2354ZM24.7615 37.2353H15.239C15.239 36.0898 15.239 22.4143 15.239 22.074H24.7615V37.2353ZM37.0484 37.2354H27.526C27.526 36.3453 27.526 16.0298 27.526 15.1428H37.0484V37.2354H37.0484Z" fill="#97D80F"/>
<path d="M30.7118 0.634887L26.2071 0.013715C25.0774 -0.142535 24.2532 1.06731 24.8144 2.06215L25.4885 3.25707L5.26973 14.6627C4.60488 15.0378 4.36988 15.8808 4.74504 16.5458C5.12035 17.2111 5.96363 17.4454 6.62816 17.0705L26.8468 5.66504L27.5208 6.85989C28.0836 7.85778 29.5434 7.77465 29.9943 6.72739L31.7926 2.55082C32.1554 1.70457 31.605 0.75809 30.7118 0.634887Z" fill="#97D80F"/>
</g>
<defs>
<clipPath id="clip0_148_2659">
<rect width="40" height="40" fill="white"/>
</clipPath>
</defs>
</svg>
