<svg width="40" height="40" viewBox="0 0 40 40" fill="none" xmlns="http://www.w3.org/2000/svg">
<path d="M30.6922 22.3585C30.6922 21.7073 30.1642 21.1793 29.513 21.1793C28.8617 21.1793 28.3337 21.7073 28.3337 22.3585C28.3337 26.9102 24.5954 30.6133 20.0004 30.6133C15.4053 30.6133 11.667 26.9103 11.667 22.3585C11.667 21.7073 11.1391 21.1793 10.4878 21.1793C9.83656 21.1793 9.30859 21.7073 9.30859 22.3585C9.30859 27.885 13.5787 32.3314 18.8212 32.9067V35.3303H15.2048C14.5536 35.3303 14.0256 35.8582 14.0256 36.5095C14.0256 37.1607 14.5536 37.6887 15.2048 37.6887H24.7961C25.4473 37.6887 25.9753 37.1607 25.9753 36.5095C25.9753 35.8582 25.4473 35.3303 24.7961 35.3303H21.1798V32.9067C26.4247 32.3311 30.6922 27.8824 30.6922 22.3585Z" fill="#97D80F"/>
<path d="M20.0002 2.31128C16.7405 2.31128 14.0254 4.94769 14.0254 8.20753V22.3585C14.0254 25.6183 16.7404 28.2548 20.0002 28.2548C23.2599 28.2548 25.9751 25.6185 25.9751 22.3585V8.20753C25.9751 4.94784 23.2602 2.31128 20.0002 2.31128ZM23.6166 22.3585C23.6166 24.2763 21.9605 25.8963 20.0002 25.8963C18.04 25.8963 16.3839 24.2762 16.3839 22.3585V8.20753C16.3839 6.28979 18.04 4.66979 20.0002 4.66979C21.9605 4.66979 23.6166 6.28987 23.6166 8.20753V22.3585Z" fill="#97D80F"/>
<path d="M36.2006 4.09794C35.7401 3.63748 34.9934 3.6374 34.5329 4.09794C34.0724 4.55849 34.0724 5.30513 34.5329 5.76568C36.5374 7.77021 37.6415 10.4354 37.6415 13.2704C37.6415 16.1053 36.5375 18.7705 34.5329 20.7751C34.0724 21.2356 34.0724 21.9823 34.5329 22.4428C34.9934 22.9034 35.7401 22.9034 36.2006 22.4429C38.6506 19.9927 39.9999 16.7353 39.9999 13.2704C39.9999 9.80544 38.6506 6.54794 36.2006 4.09794Z" fill="#97D80F"/>
<path d="M32.8627 7.43544C32.4022 6.97497 31.6555 6.97497 31.195 7.43544C30.7345 7.89599 30.7345 8.64263 31.195 9.1031C32.3102 10.2182 32.9242 11.6981 32.9242 13.2701C32.9242 14.8422 32.3101 16.322 31.195 17.4372C30.7345 17.8979 30.7345 18.6445 31.195 19.105C31.6555 19.5656 32.4021 19.5656 32.8627 19.105C34.4233 17.5444 35.2828 15.4723 35.2828 13.2703C35.2827 11.0682 34.4232 8.99606 32.8627 7.43544Z" fill="#97D80F"/>
<path d="M29.5286 10.7696C29.0681 10.3092 28.3214 10.3092 27.861 10.7698C27.4004 11.2303 27.4006 11.977 27.8611 12.4374C28.0844 12.6607 28.2074 12.9565 28.2074 13.2703C28.2074 13.5842 28.0844 13.88 27.861 14.1033C27.4006 14.5638 27.4005 15.3105 27.861 15.7709C28.3217 16.2317 29.0684 16.2314 29.5287 15.771C30.1975 15.1023 30.5658 14.2142 30.5658 13.2703C30.5658 12.3265 30.1974 11.4384 29.5286 10.7696Z" fill="#97D80F"/>
<path d="M2.35852 13.2704C2.35852 10.4354 3.46242 7.77029 5.46711 5.76568C5.92766 5.30513 5.92766 4.55849 5.46711 4.09794C5.00656 3.63748 4.25992 3.6374 3.79945 4.09794C1.3493 6.54794 0 9.80544 0 13.2704C0 16.7352 1.3493 19.9928 3.79938 22.4428C4.25984 22.9033 5.00664 22.9033 5.46703 22.4428C5.92758 21.9822 5.92758 21.2356 5.46703 20.7751C3.46242 18.7706 2.35852 16.1053 2.35852 13.2704Z" fill="#97D80F"/>
<path d="M7.07531 13.2703C7.07531 11.6983 7.68945 10.2184 8.80453 9.10328C9.26508 8.64273 9.26508 7.89609 8.80453 7.43562C8.34406 6.97507 7.59734 6.97507 7.13687 7.43562C5.57625 8.99617 4.7168 11.0684 4.7168 13.2703C4.7168 15.4723 5.57625 17.5444 7.13687 19.105C7.59734 19.5655 8.34414 19.5655 8.80453 19.105C9.26508 18.6444 9.26508 17.8978 8.80453 17.4373C7.68953 16.3223 7.07531 14.8423 7.07531 13.2703Z" fill="#97D80F"/>
<path d="M12.1384 14.1033C11.9151 13.88 11.792 13.5841 11.792 13.2703C11.792 12.9564 11.915 12.6607 12.1383 12.4373C12.5989 11.9768 12.5989 11.2301 12.1384 10.7696C11.6779 10.3091 10.9313 10.309 10.4707 10.7696C9.80188 11.4384 9.43359 12.3264 9.43359 13.2703C9.43359 14.2141 9.80188 15.1022 10.4707 15.771C10.9312 16.2315 11.678 16.2315 12.1384 15.771C12.5989 15.3105 12.5989 14.5639 12.1384 14.1033Z" fill="#97D80F"/>
</svg>
