<svg width="64" height="64" viewBox="0 0 64 64" fill="none" xmlns="http://www.w3.org/2000/svg">
<g clip-path="url(#clip0_154_3006)">
<path d="M16.0036 11.1526H22.2998C24.7847 11.0604 24.7829 7.49426 22.2998 7.40289H16.0036C13.5187 7.49501 13.5206 11.0613 16.0036 11.1526Z" fill="#97D80F"/>
<path d="M24.6349 52.5191H14.0031C11.5182 52.6113 11.5201 56.1775 14.0031 56.2688H24.6349C27.1198 56.1766 27.1179 52.6103 24.6349 52.5191Z" fill="#97D80F"/>
<path d="M62.125 22.6436C63.1605 22.6436 63.9999 21.8042 63.9999 20.7688V14.8125C63.9999 14.8052 63.9992 14.7981 63.9992 14.791C63.999 14.7736 63.9979 14.7565 63.9973 14.7392C63.9958 14.7 63.993 14.6611 63.9892 14.6223C63.9872 14.6023 63.9853 14.5824 63.9827 14.5626C63.9765 14.5166 63.9687 14.4711 63.9593 14.426C63.9552 14.4064 63.9503 14.387 63.9455 14.3676C63.9362 14.3291 63.9258 14.291 63.914 14.2534C63.9075 14.2328 63.9005 14.2124 63.8934 14.192C63.8818 14.1589 63.8692 14.1263 63.8557 14.0939C63.8484 14.0764 63.8415 14.0588 63.8338 14.0414C63.8125 13.9944 63.7897 13.9484 63.7648 13.9034C63.7583 13.8917 63.7509 13.8803 63.744 13.8687C63.7232 13.8329 63.7013 13.7978 63.6781 13.7635C63.6687 13.7497 63.659 13.7359 63.6493 13.7223C63.6241 13.687 63.5977 13.6527 63.5701 13.6192C63.5632 13.6108 63.5567 13.6022 63.5497 13.5939C63.5148 13.5531 63.4779 13.5138 63.4396 13.4759C63.4303 13.4668 63.4204 13.4582 63.4109 13.4493C63.3811 13.4211 63.3503 13.3938 63.3185 13.3676C63.3047 13.3562 63.2908 13.3449 63.2767 13.3338C63.2452 13.3093 63.2128 13.2859 63.1797 13.2634C63.1671 13.2548 63.1551 13.2457 63.1423 13.2374C63.0998 13.2099 63.0558 13.1843 63.0108 13.1602C62.9915 13.1498 62.9715 13.1405 62.9517 13.1308C62.934 13.1221 62.9169 13.1127 62.8987 13.1045C62.887 13.0991 62.875 13.095 62.8631 13.0898C62.8415 13.0806 62.8197 13.0716 62.7976 13.0631C62.7619 13.0493 62.726 13.0371 62.6897 13.0257C62.6744 13.0208 62.6594 13.0152 62.6438 13.0107C62.5923 12.9958 62.5403 12.984 62.4881 12.9737C62.4716 12.9705 62.4549 12.9678 62.4383 12.9651C62.3946 12.9577 62.3509 12.9518 62.3071 12.9476C62.2975 12.9467 62.2884 12.9446 62.2788 12.9438L56.6789 12.4843C55.6465 12.4 54.7416 13.1677 54.657 14.1996C54.5722 15.2316 55.3402 16.1369 56.3722 16.2216L57.567 16.3196L48.4309 24.3404C46.2229 20.8399 42.5003 18.1017 38.634 17.0317V5.66249C38.634 2.54247 36.0955 0.00402832 32.9755 0.00402832H5.66312C2.54297 0.00402832 0.00464984 2.54247 0.00464984 5.66249V52.335C-0.00209967 52.4229 -0.000974756 52.511 0.00464984 52.5991V58.3201C0.00464984 61.4402 2.54309 63.9785 5.66312 63.9785H32.975C36.0952 63.9785 38.6335 61.4401 38.6335 58.3201V50.3541C39.2496 50.1763 39.8574 49.9637 40.4544 49.7168L45.656 54.9071C45.663 54.9143 45.669 54.9222 45.6761 54.9293C45.6838 54.9371 45.6925 54.9437 45.7003 54.9513L52.8561 62.0914C55.4008 64.631 59.5415 64.6306 62.0863 62.0914C64.6209 59.6648 64.6209 55.2964 62.0863 52.8698L49.7533 40.5635C51.4792 36.6439 51.6262 31.8522 50.1492 27.8211L60.25 18.9533V20.7687C60.2502 21.8042 61.0896 22.6436 62.125 22.6436ZM45.5709 26.851L39.5789 32.1115L37.0215 29.0139C36.3626 28.2159 35.1817 28.1026 34.3833 28.7608L29.5224 32.7672L27.3629 30.4221C26.6777 29.6779 25.5257 29.6116 24.7595 30.2722L20.1468 34.2492C19.9873 30.4372 21.4214 26.7673 24.1285 24.0729C29.4476 18.7652 38.1026 18.7652 43.4218 24.0729C44.2657 24.9151 44.9845 25.8489 45.5709 26.851ZM5.66312 3.75376H32.975C34.0276 3.75376 34.8838 4.61007 34.8838 5.66249V16.3811C23.7188 15.5179 14.3261 26.0433 16.7364 37.1893L3.75425 48.3824V5.66249C3.75425 4.61007 4.61057 3.75376 5.66312 3.75376ZM34.8839 58.3201C34.8839 59.3726 34.0276 60.2288 32.9751 60.2288H5.66312C4.61057 60.2288 3.75438 59.3725 3.75438 58.3201V53.3334L18.0111 41.0414C20.885 47.442 28.1069 51.5794 34.884 51.005L34.8839 58.3201ZM60.2502 57.4806C60.2502 58.2194 59.9616 58.9144 59.4376 59.4371C58.3532 60.5193 56.5889 60.519 55.5046 59.4371L49.6588 53.604L53.586 49.6852L59.4376 55.5241C59.9617 56.047 60.2502 56.7418 60.2502 57.4806ZM50.9317 47.0366L47.0045 50.9555L43.869 47.8267C45.3585 46.7719 46.7384 45.4109 47.8203 43.9319L50.9317 47.0366ZM47.4152 33.693C47.4152 35.9356 46.8743 38.0951 45.8553 40.0243C45.8361 40.0581 45.8178 40.0924 45.8008 40.1273C45.1766 41.2847 44.3792 42.3575 43.4215 43.313C38.1024 48.6208 29.4475 48.6208 24.1283 43.313C22.7273 41.915 21.6696 40.2661 20.9954 38.4684L25.8335 34.2969L27.9661 36.6126C28.6405 37.3448 29.7695 37.4224 30.5377 36.7894L35.3225 32.8458L37.9178 35.9889C38.2406 36.38 38.7081 36.6236 39.2136 36.6641C39.7188 36.7051 40.2194 36.5388 40.6005 36.2042L47.0489 30.5429C47.2902 31.5632 47.4152 32.6184 47.4152 33.693Z" fill="#97D80F"/>
</g>
<defs>
<clipPath id="clip0_154_3006">
<rect width="64" height="64" fill="white"/>
</clipPath>
</defs>
</svg>
