<svg width="64" height="65" viewBox="0 0 64 65" fill="none" xmlns="http://www.w3.org/2000/svg">
<g clip-path="url(#clip0_154_3011)">
<path d="M9.625 34.4028C10.6605 34.4028 11.5 33.5634 11.5 32.5278C11.5 31.4923 10.6605 30.6528 9.625 30.6528C8.58947 30.6528 7.75 31.4923 7.75 32.5278C7.75 33.5634 8.58947 34.4028 9.625 34.4028Z" fill="#97D80F"/>
<path d="M47.125 15.6528C48.1605 15.6528 49 14.8134 49 13.7778C49 12.7423 48.1605 11.9028 47.125 11.9028C46.0895 11.9028 45.25 12.7423 45.25 13.7778C45.25 14.8134 46.0895 15.6528 47.125 15.6528Z" fill="#97D80F"/>
<path d="M54.625 15.6528C55.6605 15.6528 56.5 14.8134 56.5 13.7778C56.5 12.7423 55.6605 11.9028 54.625 11.9028C53.5895 11.9028 52.75 12.7423 52.75 13.7778C52.75 14.8134 53.5895 15.6528 54.625 15.6528Z" fill="#97D80F"/>
<path d="M64 6.27783C64 5.24233 63.1605 4.40283 62.125 4.40283H39.625C38.5895 4.40283 37.75 5.24233 37.75 6.27783V12.8678C35.9525 12.2336 34.0493 11.9028 32.125 11.9028C24.9155 11.9028 18.5679 16.4607 16.2103 23.1528H1.875C0.8395 23.1528 0 23.9923 0 25.0278V51.2778C0 52.2853 0.81975 53.1506 1.87213 53.1527C1.9645 53.1528 24.6121 53.1528 24.625 53.1528C25.6605 53.1528 26.5 52.3133 26.5 51.2778V44.6878C27.7106 45.115 28.9691 45.4035 30.25 45.5463V62.5278C30.25 63.5633 31.0895 64.4028 32.125 64.4028C33.1605 64.4028 34 63.5633 34 62.5278V45.5481C42.4258 44.6123 49 37.449 49 28.7778C49 26.8536 48.6693 24.9503 48.035 23.1528H53.8483L60.7991 30.1036C61.3374 30.642 62.1445 30.7992 62.8425 30.5101C63.5431 30.2198 64 29.5361 64 28.7778V6.27783ZM17.5853 26.9028C17.5898 26.9028 17.5944 26.9032 17.5989 26.9032C17.6022 26.9032 17.6056 26.9028 17.6091 26.9028H22.75V35.5012L17.125 41.1262L14.7008 38.702C13.9681 37.9693 12.7847 37.9833 12.0638 38.6875L3.75 46.8206V26.9028H17.5853ZM6.473 49.4028L13.3606 42.665L15.7992 45.1036C16.1652 45.4698 16.6451 45.6528 17.125 45.6528C17.6049 45.6528 18.0848 45.4698 18.4508 45.1036L22.75 40.8045V49.4028H6.473ZM45.25 28.7778C45.25 36.015 39.3621 41.9028 32.125 41.9028C30.1724 41.9028 28.2482 41.4668 26.5 40.6377V25.0278C26.5 23.9923 25.6605 23.1528 24.625 23.1528H20.2628C22.3989 18.6393 26.9784 15.6528 32.125 15.6528C34.0776 15.6528 36.0018 16.0888 37.75 16.918V21.2778C37.75 22.3133 38.5895 23.1528 39.625 23.1528H43.9849C44.814 24.9011 45.25 26.8251 45.25 28.7778ZM60.25 24.2512L55.9507 19.9521C55.5991 19.6005 55.1222 19.4028 54.625 19.4028H41.5V8.15283H60.25V24.2512Z" fill="#97D80F"/>
<path d="M0 9.77783C0 10.8133 0.8395 11.6528 1.875 11.6528H20.625C21.6605 11.6528 22.5 10.8133 22.5 9.77783V2.27783C22.5 1.24233 21.6605 0.402832 20.625 0.402832H1.875C0.8395 0.402832 0 1.24233 0 2.27783V9.77783ZM3.75 4.15283H18.75V7.90283H3.75V4.15283Z" fill="#97D80F"/>
<path d="M63.165 49.088C63.6866 48.7402 64 48.1549 64 47.5279C64 46.901 63.6868 46.3155 63.165 45.9677L51.9149 38.4677C51.3396 38.0842 50.5998 38.0484 49.9901 38.3747C49.3805 38.701 48.9999 39.3364 48.9999 40.0279V55.0279C48.9999 55.7194 49.3805 56.3547 49.9901 56.681C50.5984 57.0065 51.3381 56.9723 51.9149 56.588L63.165 49.088ZM52.7499 51.5245V43.5314L58.7448 47.5279L52.7499 51.5245Z" fill="#97D80F"/>
</g>
<defs>
<clipPath id="clip0_154_3011">
<rect width="64" height="64" fill="white" transform="translate(0 0.402832)"/>
</clipPath>
</defs>
</svg>
