<svg width="64" height="64" viewBox="0 0 64 64" fill="none" xmlns="http://www.w3.org/2000/svg">
<path d="M33.5691 22.1561C33.5626 22.139 33.556 22.1219 33.549 22.1049C33.2149 21.2927 32.432 20.7684 31.554 20.7684C31.5534 20.7684 31.5525 20.7684 31.5519 20.7684C30.673 20.7692 29.8901 21.2954 29.5574 22.1089C29.5516 22.123 29.546 22.1371 29.5406 22.1514L24.8659 34.4255C24.4972 35.3932 24.983 36.4765 25.9507 36.845C26.9185 37.2137 28.0017 36.7279 28.3702 35.7601L28.8377 34.5325H34.2316L34.6929 35.7547C34.9764 36.5056 35.6897 36.9682 36.4475 36.9682C36.6674 36.9682 36.8912 36.9292 37.1091 36.847C38.078 36.4814 38.567 35.3996 38.2014 34.4307L33.5691 22.1561ZM30.266 30.7825L31.547 27.419L32.8164 30.7825H30.266Z" fill="#97D80F"/>
<path d="M45.8453 20.9525H42.4237C41.9258 20.9525 41.4483 21.1505 41.0967 21.5029C40.745 21.8553 40.5477 22.3331 40.5487 22.831C40.5487 22.831 40.573 34.8715 40.5731 34.9154C40.575 35.4128 40.7741 35.889 41.1272 36.2394C41.4786 36.5881 41.9532 36.7836 42.4481 36.7836H42.4552C42.5587 36.7833 45.001 36.7739 45.9782 36.7568C49.8146 36.6898 52.5991 33.372 52.5991 28.8681C52.5991 26.7475 52.0435 24.8834 50.9922 23.477C49.7752 21.849 47.9473 20.9525 45.8453 20.9525ZM45.9126 33.0074C45.5381 33.0139 44.9248 33.0194 44.3168 33.0236C44.3125 31.6249 44.3045 26.1576 44.302 24.7025H45.8453C48.6325 24.7025 48.849 27.8909 48.849 28.8681C48.849 31.692 47.3742 32.9818 45.9126 33.0074Z" fill="#97D80F"/>
<path d="M63.9814 3.125C63.9814 1.40188 62.5795 0 60.8564 0H16.4858C14.7626 0 13.3608 1.40188 13.3608 3.125L13.3794 35.252C5.91438 35.7734 0 42.0125 0 49.6077C0 57.5435 6.45625 63.9997 14.392 63.9997C20.8444 63.9997 26.3185 59.7315 28.1396 53.8701H60.875C62.5981 53.8701 64 52.4683 64 50.7451L63.9814 3.125ZM60.2314 7.58813H56.4809V3.75H60.2314V7.58813ZM52.7309 3.75V7.58813H48.9804V3.75H52.7309ZM17.1108 3.75H45.2304V7.58813H17.1108V3.75ZM14.392 60.2497C8.524 60.2497 3.75 55.4757 3.75 49.6077C3.75 43.7397 8.524 38.9657 14.392 38.9657C20.26 38.9657 25.034 43.7397 25.034 49.6077C25.034 55.4757 20.26 60.2497 14.392 60.2497ZM60.25 50.1201H28.7739C28.7799 49.95 28.784 49.7794 28.784 49.6077C28.784 42.6079 23.7604 36.7602 17.1295 35.4781V11.3381H60.25V50.1201Z" fill="#97D80F"/>
<path d="M16.0897 47.7803C15.2812 47.4945 14.3004 47.1224 13.7656 46.7429C13.7621 46.6803 13.7722 46.573 13.8292 46.4622C13.8997 46.3252 13.981 46.3007 14.0116 46.2914C14.6565 46.0973 15.0745 46.3364 15.2241 46.4483C16.0536 47.0683 17.2286 46.8985 17.8486 46.069C18.4685 45.2395 18.2989 44.0645 17.4694 43.4445C17.2644 43.2913 16.8233 42.998 16.1985 42.7728C16.1708 41.7614 15.3442 40.9494 14.3261 40.9494C13.2906 40.9494 12.4511 41.7889 12.4511 42.8244V42.8808C11.2352 43.425 10.3486 44.5523 10.0893 45.928C9.81585 47.3793 10.306 48.7984 11.3684 49.6318C12.3005 50.3628 13.5876 50.8732 14.8399 51.3158C15.1302 51.4184 15.3884 51.5769 15.3109 52.0375C15.2584 52.3498 14.9892 52.8795 14.3135 52.884C13.3991 52.8904 13.245 52.8665 12.6116 52.452C11.745 51.885 10.583 52.128 10.016 52.9947C9.4491 53.8613 9.69198 55.0233 10.5586 55.5903C11.2695 56.0553 11.853 56.3194 12.4547 56.466C12.4944 57.4665 13.3157 58.266 14.326 58.266C15.3615 58.266 16.201 57.4265 16.201 56.391V56.2439C17.6477 55.6195 18.7335 54.2975 19.0089 52.6593C19.3744 50.4873 18.2011 48.5265 16.0897 47.7803Z" fill="#97D80F"/>
</svg>
