<svg width="65" height="64" viewBox="0 0 65 64" fill="none" xmlns="http://www.w3.org/2000/svg">
<g clip-path="url(#clip0_154_3032)">
<path d="M13.9214 7.625C10.8198 7.625 8.29639 10.1484 8.29639 13.25V20.75C8.29639 21.7855 9.13589 22.625 10.1714 22.625C11.2069 22.625 12.0464 21.7855 12.0464 20.75V18.875H15.7964V20.75C15.7964 21.7855 16.6359 22.625 17.6714 22.625C18.7069 22.625 19.5464 21.7855 19.5464 20.75V13.25C19.5464 10.1484 17.023 7.625 13.9214 7.625ZM12.0464 15.125V13.25C12.0464 12.2161 12.8875 11.375 13.9214 11.375C14.9553 11.375 15.7964 12.2161 15.7964 13.25V15.125H12.0464Z" fill="#97D80F"/>
<path d="M27.0464 7.625H25.1714C24.1359 7.625 23.2964 8.4645 23.2964 9.5V20.75C23.2964 21.7855 24.1359 22.625 25.1714 22.625H27.0464C31.1819 22.625 34.5464 19.2605 34.5464 15.125C34.5464 10.9895 31.1819 7.625 27.0464 7.625ZM27.0464 18.875V11.375C29.1141 11.375 30.7964 13.0573 30.7964 15.125C30.7964 17.1927 29.1141 18.875 27.0464 18.875Z" fill="#97D80F"/>
<path d="M62.9214 30.125C63.9569 30.125 64.7964 29.2855 64.7964 28.25V2C64.7964 0.9645 63.9569 0.125 62.9214 0.125H2.67139C1.63589 0.125 0.796387 0.9645 0.796387 2V28.25C0.796387 29.2855 1.63589 30.125 2.67139 30.125H34.0349L34.9973 33.875H28.9214C27.8859 33.875 27.0464 34.7145 27.0464 35.75V62C27.0464 63.0355 27.8859 63.875 28.9214 63.875H62.9214C63.9569 63.875 64.7964 63.0355 64.7964 62V35.75C64.7964 34.7145 63.9569 33.875 62.9214 33.875H55.692L48.0244 30.125H62.9214ZM4.54639 26.375V3.875H61.0464V26.375H40.3569L35.677 24.0861C34.2431 23.3849 32.6403 24.6898 33.037 26.2365L33.0725 26.3749H4.54639V26.375ZM61.0464 60.125H30.7964V37.625H35.9596L38.7565 48.5235C39.099 49.858 40.7201 50.3797 41.7768 49.4948L44.4448 47.2596L47.2868 50.6665C47.95 51.4616 49.1355 51.57 49.9319 50.9017L56.3976 45.4762C57.1893 44.812 57.2941 43.6324 56.6321 42.8389L53.7851 39.4259L55.9346 37.625H61.0464V60.125ZM49.7068 40.3913L52.5548 43.8054L48.9616 46.8204L46.1205 43.4146C45.455 42.6169 44.2695 42.514 43.4766 43.1784L41.649 44.7095L37.6791 29.2399L51.8381 36.1646L49.9423 37.7529C49.1499 38.4169 49.0444 39.5973 49.7068 40.3913Z" fill="#97D80F"/>
<path d="M21.4214 33.875H2.67139C1.63589 33.875 0.796387 34.7145 0.796387 35.75V62C0.796387 63.0355 1.63589 63.875 2.67139 63.875H21.4214C22.4569 63.875 23.2964 63.0355 23.2964 62V35.75C23.2964 34.7145 22.4569 33.875 21.4214 33.875ZM19.5464 60.125H4.54639V37.625H19.5464V60.125Z" fill="#97D80F"/>
<path d="M40.1714 13.25H55.1714C56.2069 13.25 57.0464 12.4105 57.0464 11.375C57.0464 10.3395 56.2069 9.5 55.1714 9.5H40.1714C39.1359 9.5 38.2964 10.3395 38.2964 11.375C38.2964 12.4105 39.1359 13.25 40.1714 13.25Z" fill="#97D80F"/>
<path d="M40.1714 20.75H55.1714C56.2069 20.75 57.0464 19.9105 57.0464 18.875C57.0464 17.8395 56.2069 17 55.1714 17H40.1714C39.1359 17 38.2964 17.8395 38.2964 18.875C38.2964 19.9105 39.1359 20.75 40.1714 20.75Z" fill="#97D80F"/>
</g>
<defs>
<clipPath id="clip0_154_3032">
<rect width="64" height="64" fill="white" transform="translate(0.796387)"/>
</clipPath>
</defs>
</svg>
