<svg width="65" height="64" viewBox="0 0 65 64" fill="none" xmlns="http://www.w3.org/2000/svg">
<g clip-path="url(#clip0_154_3039)">
<path d="M62.834 60.25H4.54639V1.875C4.54639 0.839355 3.70703 0 2.67139 0C1.63574 0 0.796387 0.839355 0.796387 1.875V62.125C0.796387 63.1606 1.63574 64 2.67139 64H62.834C63.8696 64 64.709 63.1606 64.709 62.125C64.709 61.0894 63.8696 60.25 62.834 60.25Z" fill="#97D80F"/>
<path d="M8.521 5.87939C8.79053 5.74365 9.07764 5.6792 9.36084 5.67969C10.0474 5.67969 10.7085 6.0581 11.0376 6.71338L19.479 23.5225L23.4829 14.4067C23.7729 13.7461 24.4165 13.3105 25.1377 13.2866C25.8628 13.2651 26.5298 13.6553 26.8628 14.2954L37.3672 34.4932L40.9849 25.9805C41.269 25.311 41.9155 24.8662 42.6426 24.8398C43.3706 24.8135 44.0459 25.21 44.3784 25.8574L50.9399 38.6362C51.2061 38.5439 51.478 38.4653 51.7554 38.4004V37.2754C51.7554 36.2397 52.5947 35.4004 53.6304 35.4004C54.666 35.4004 55.5054 36.2397 55.5054 37.2754V38.4004C58.542 39.1104 60.936 41.5049 61.6465 44.5415H62.7715C63.8071 44.5415 64.6465 45.3809 64.6465 46.4165C64.6465 47.4521 63.8071 48.2915 62.7715 48.2915H61.6465C60.936 51.3281 58.542 53.7222 55.5054 54.4326V55.5576C55.5054 56.5928 54.666 57.4326 53.6304 57.4326C52.5947 57.4326 51.7554 56.5928 51.7554 55.5576V54.4326C48.7187 53.7222 46.3247 51.3281 45.6143 48.2915H44.4893C43.4536 48.2915 42.6143 47.4521 42.6143 46.4165C42.6143 45.3809 43.4536 44.5415 44.4893 44.5415H45.6143C45.9634 43.0483 46.7192 41.71 47.7593 40.6509L42.8706 31.1309L39.2632 39.6187C38.9795 40.2866 38.3359 40.7305 37.6108 40.7588C36.8862 40.7886 36.209 40.3945 35.874 39.7505L25.3418 19.499L21.3091 28.6812C21.0171 29.3457 20.3667 29.7827 19.6406 29.8013C18.9194 29.8193 18.2427 29.4175 17.917 28.7681L7.68652 8.39648C7.22168 7.4707 7.59521 6.34424 8.521 5.87939ZM51.8242 50.519C52.042 49.7246 52.7671 49.1401 53.6304 49.1401C54.4941 49.1401 55.2192 49.7246 55.437 50.519C56.459 50.0674 57.2812 49.2451 57.7329 48.2231C56.939 48.0054 56.3545 47.2798 56.3545 46.4165C56.3545 45.5527 56.939 44.8276 57.7329 44.6099C57.2812 43.5879 56.459 42.7656 55.437 42.314C55.2192 43.1079 54.4937 43.6924 53.6304 43.6924C52.7671 43.6924 52.042 43.1079 51.8237 42.314C50.8018 42.7656 49.9795 43.5879 49.5278 44.6099C50.3218 44.8276 50.9062 45.5527 50.9062 46.4165C50.9062 47.2798 50.3218 48.0049 49.5278 48.2231C49.9795 49.2451 50.8018 50.0674 51.8242 50.519Z" fill="#97D80F"/>
</g>
<defs>
<clipPath id="clip0_154_3039">
<rect width="64" height="64" fill="white" transform="translate(0.796387)"/>
</clipPath>
</defs>
</svg>
