<svg width="65" height="64" viewBox="0 0 65 64" fill="none" xmlns="http://www.w3.org/2000/svg">
<g clip-path="url(#clip0_154_3042)">
<path d="M59.1935 7.625H19.486C19.127 5.8285 18.2543 4.1675 16.9406 2.8235C15.1606 1.00275 12.8011 0 10.2964 0C7.79226 0 5.41576 0.997375 3.60476 2.80837C1.79376 4.61937 0.796387 6.99587 0.796387 9.5C0.796387 12.0048 1.79914 14.3644 3.62001 16.1441C5.42151 17.9051 7.79264 18.875 10.2964 18.875C14.8239 18.875 18.6116 15.649 19.4828 11.375H59.1824C60.2275 11.3813 61.0464 12.195 61.0464 13.2279V28.25C61.0464 29.2839 60.2053 30.125 59.1714 30.125H56.198L56.7473 29.5758C57.4795 28.8435 57.4795 27.6564 56.7473 26.9241C56.0151 26.1919 54.8279 26.1919 54.0956 26.9241L50.3456 30.6741C49.6134 31.4064 49.6134 32.5935 50.3456 33.3257L54.0956 37.0757C54.8278 37.808 56.0151 37.808 56.7473 37.0757C57.4795 36.3435 57.4795 35.1564 56.7473 34.4241L56.198 33.875H59.1714C62.273 33.875 64.7964 31.3516 64.7964 28.25V13.2279C64.7964 10.1566 62.2879 7.64325 59.1935 7.625ZM10.2964 15.125C7.17951 15.125 4.54639 12.5491 4.54639 9.5C4.54639 6.38313 7.17951 3.75 10.2964 3.75C13.3455 3.75 15.9214 6.38313 15.9214 9.5C15.9214 12.6016 13.398 15.125 10.2964 15.125Z" fill="#97D80F"/>
<path d="M32.7964 18.875C25.5593 18.875 19.6714 24.7629 19.6714 32C19.6714 39.2371 25.5593 45.125 32.7964 45.125C40.1024 45.125 46.0464 39.2371 46.0464 32C46.0464 24.7629 40.1024 18.875 32.7964 18.875ZM32.7964 41.375C27.627 41.375 23.4214 37.1694 23.4214 32C23.4214 26.8306 27.627 22.625 32.7964 22.625C38.0346 22.625 42.2964 26.8306 42.2964 32C42.2964 37.1694 38.0346 41.375 32.7964 41.375Z" fill="#97D80F"/>
<path d="M36.6714 30.125H34.6714V28.25C34.6714 27.2145 33.8319 26.375 32.7964 26.375C31.7609 26.375 30.9214 27.2145 30.9214 28.25V32C30.9214 33.0355 31.7609 33.875 32.7964 33.875H36.6714C37.7069 33.875 38.5464 33.0355 38.5464 32C38.5464 30.9645 37.7069 30.125 36.6714 30.125Z" fill="#97D80F"/>
<path d="M55.4214 45.1251C50.8939 45.1251 47.1061 48.3511 46.235 52.6251H6.42139C5.38751 52.6251 4.54639 51.7839 4.54639 50.7501V35.7501C4.54639 34.7162 5.38751 33.8751 6.42139 33.8751H9.51976L8.97051 34.4243C8.23826 35.1566 8.23826 36.3437 8.97051 37.0759C9.70264 37.8082 10.89 37.8082 11.6221 37.0759L15.3721 33.3259C16.1044 32.5937 16.1044 31.4066 15.3721 30.6743L11.6221 26.9243C10.89 26.1921 9.70276 26.1921 8.97051 26.9243C8.23826 27.6566 8.23826 28.8437 8.97051 29.5759L9.51976 30.1251H6.42139C3.31976 30.1251 0.796387 32.6484 0.796387 35.7501V50.7501C0.796387 53.8517 3.31976 56.3751 6.42139 56.3751H46.2319C47.0788 60.6132 50.8154 64.0001 55.4214 64.0001C60.6043 64.0001 64.7964 59.6833 64.7964 54.5001C64.7964 49.3307 60.5908 45.1251 55.4214 45.1251ZM55.4214 60.2501C52.3723 60.2501 49.7964 57.6169 49.7964 54.5001C49.7964 51.3984 52.3198 48.8751 55.4214 48.8751C58.523 48.8751 61.0464 51.3984 61.0464 54.5001C61.0464 57.6169 58.4705 60.2501 55.4214 60.2501Z" fill="#97D80F"/>
</g>
<defs>
<clipPath id="clip0_154_3042">
<rect width="64" height="64" fill="white" transform="translate(0.796387)"/>
</clipPath>
</defs>
</svg>
