<svg width="64" height="64" viewBox="0 0 64 64" fill="none" xmlns="http://www.w3.org/2000/svg">
<g clip-path="url(#clip0_81_1745)">
<path d="M22.1211 27.75H41.8789C42.9524 27.75 43.947 27.2649 44.608 26.419C45.269 25.5731 45.499 24.4905 45.2393 23.4489L43.7638 17.5315C43.0566 14.6955 40.9374 12.5214 38.266 11.6774C39.0588 10.486 39.522 9.05725 39.522 7.522C39.522 3.37437 36.1476 0 32 0C27.8524 0 24.478 3.37437 24.478 7.52212C24.478 9.05737 24.9413 10.486 25.734 11.6775C23.0626 12.5215 20.9434 14.6956 20.2363 17.5316L18.7608 23.449C18.501 24.4906 18.7311 25.5731 19.392 26.4191C20.0529 27.2651 21.0476 27.75 22.1211 27.75ZM32 3.75C34.0799 3.75 35.772 5.44212 35.772 7.52212C35.772 9.602 34.0799 11.2941 32 11.2941C29.9201 11.2941 28.228 9.602 28.228 7.52212C28.228 5.44212 29.9201 3.75 32 3.75ZM23.8748 18.4387C24.3731 16.44 26.1599 15.0441 28.2196 15.0441H35.7803C37.8401 15.0441 39.6268 16.44 40.1251 18.4387L41.5119 24H22.4881L23.8748 18.4387Z" fill="#97D80F"/>
<path d="M63.9527 19.0215C63.9461 16.1658 61.8059 13.7339 58.9744 13.3647C57.3431 13.1514 55.6984 13.6524 54.4621 14.7378C53.2259 15.8234 52.5169 17.3894 52.5169 19.0345L52.517 28.1459C52.3991 28.1384 52.2804 28.1347 52.1612 28.1347C50.6807 28.1347 49.2889 28.7112 48.2421 29.758L43.3267 34.6733C43.2787 34.7212 43.2121 34.7439 43.1451 34.7365C43.1111 34.7327 43.0771 34.7297 43.0429 34.7277L40.8384 34.5959C39.0084 34.4023 37.2149 35.0355 35.9111 36.339L32.871 39.3793C32.5545 39.6957 32.2647 40.0315 32.0001 40.3827C31.7355 40.0314 31.4456 39.6957 31.1292 39.3793L28.089 36.3389C26.7854 35.0355 24.9926 34.4024 23.1619 34.5959L20.9574 34.7277C20.9232 34.7298 20.8891 34.7327 20.8551 34.7365C20.787 34.7442 20.7215 34.7212 20.6735 34.6734L15.7581 29.758C14.7112 28.7112 13.3195 28.1347 11.839 28.1347C11.7199 28.1347 11.6011 28.1384 11.4832 28.1459L11.4834 19.0345C11.4834 17.3894 10.7745 15.8234 9.53811 14.7378C8.30186 13.6522 6.65724 13.1513 5.02587 13.3647C2.19424 13.7339 0.0539898 16.1658 0.0473648 19.0215L-1.01713e-05 39.6883C-0.00488517 41.8438 0.86649 43.9543 2.39061 45.4784L14.375 57.4627V60.875C14.375 62.5982 15.7769 64 17.5 64H30.75C31.1944 64 31.6169 63.9062 32 63.7383C32.3831 63.9062 32.8056 64 33.25 64H46.5C48.2231 64 49.625 62.5982 49.625 60.875V57.4627L61.6094 45.4784C63.1335 43.9543 64.0049 41.8438 64 39.6883L63.9527 19.0215ZM58.9577 42.8268L46.4242 55.3603C46.0726 55.7119 45.875 56.1888 45.875 56.686V60.25H33.875V46.0087C33.875 44.506 34.4601 43.0935 35.5226 42.0312L38.5627 38.991C39.0656 38.4882 39.7591 38.246 40.4654 38.3277C40.4995 38.3315 40.5336 38.3347 40.568 38.3367L42.776 38.4685C43.9664 38.5888 45.1305 38.173 45.9785 37.3253L50.8939 32.4099C51.5929 31.7113 52.7299 31.711 53.4289 32.4099C54.1277 33.1089 54.1277 34.2459 53.4289 34.9449L46.4244 41.9494C45.6921 42.6815 45.6921 43.8688 46.4244 44.601C47.1565 45.3332 48.3437 45.3332 49.076 44.601L56.0805 37.5965C57.1274 36.5497 57.7039 35.1578 57.7039 33.6773C57.7039 32.2874 57.1957 30.9755 56.2672 29.954L56.2671 19.0348C56.2671 18.4602 56.5049 17.935 56.9365 17.556C57.3682 17.1769 57.9196 17.0095 58.4896 17.0834C59.4641 17.2105 60.2006 18.0475 60.203 19.0303L60.25 39.6968C60.2526 40.862 59.7816 42.0029 58.9577 42.8268ZM5.04237 42.8268C4.21849 42.0028 3.74749 40.8619 3.75011 39.6968L3.79736 19.0302C3.79961 18.0473 4.53624 17.2102 5.51074 17.0832C6.08062 17.0092 6.63199 17.1767 7.06374 17.5558C7.49549 17.9348 7.73312 18.4599 7.73312 19.0345L7.73299 29.9538C6.80449 30.9753 6.29636 32.2872 6.29636 33.677C6.29636 35.1575 6.87287 36.5494 7.91974 37.5963L14.9242 44.6008C15.6564 45.3329 16.8436 45.3329 17.5759 44.6008C18.3081 43.8687 18.3081 42.6814 17.5759 41.9492L10.5712 34.9448C9.87236 34.2458 9.87236 33.1088 10.5712 32.4098C11.2702 31.711 12.4072 31.7112 13.1062 32.4098L18.0217 37.3253C18.8695 38.173 20.0334 38.5888 21.2241 38.4685L23.4321 38.3367C23.4664 38.3345 23.5006 38.3315 23.5347 38.3277C24.2406 38.2468 24.9345 38.4882 25.4372 38.9909L28.4775 42.0312C29.54 43.0935 30.125 44.5062 30.125 46.0087V60.25H18.125V56.686C18.125 56.1887 17.9274 55.7118 17.5757 55.3603L5.04237 42.8268Z" fill="#97D80F"/>
</g>
<defs>
<clipPath id="clip0_81_1745">
<rect width="64" height="64" fill="white"/>
</clipPath>
</defs>
</svg>
