<svg width="64" height="64" viewBox="0 0 64 64" fill="none" xmlns="http://www.w3.org/2000/svg">
<g clip-path="url(#clip0_81_1707)">
<path d="M64 14.4935C64 6.50175 57.4982 0 49.5065 0C42.1314 0 36.0255 5.53725 35.127 12.6726H0V64H51.3274V28.873C58.4627 27.9746 64 21.8686 64 14.4935ZM27.5387 36.4613V31.9076C30.2476 31.5531 32.346 29.2299 32.346 26.4259C32.346 23.6219 30.2475 21.2986 27.5387 20.9441V16.4226H35.1416C36.0035 22.8744 41.1256 27.9965 47.5774 28.8584V36.4613H39.3527V39.4899C39.3527 40.4706 38.5549 41.2685 37.5741 41.2685C36.5934 41.2685 35.7955 40.4706 35.7955 39.4899V36.4613H27.5387ZM23.7887 16.4226V24.6472H26.8174C27.7981 24.6472 28.596 25.4451 28.596 26.4259C28.596 27.4066 27.7981 28.2045 26.8174 28.2045H23.7887V36.4613H18.7351C18.3806 33.7524 16.0574 31.654 13.2534 31.654C10.4494 31.654 8.12613 33.7525 7.7715 36.4613H3.75V16.4225L23.7887 16.4226ZM3.75 40.2113H11.4746V37.1826C11.4746 36.2019 12.2725 35.404 13.2533 35.404C14.234 35.404 15.0319 36.2019 15.0319 37.1826V40.2113H23.7886V45.2649C21.0798 45.6194 18.9814 47.9426 18.9814 50.7466C18.9814 53.5506 21.0799 55.8739 23.7886 56.2284V60.25H3.75V40.2113ZM27.5387 60.25V52.5254H24.51C23.5293 52.5254 22.7314 51.7275 22.7314 50.7467C22.7314 49.766 23.5293 48.9681 24.51 48.9681H27.5386V40.2113H32.0923C32.4468 42.9201 34.77 45.0185 37.574 45.0185C40.378 45.0185 42.7013 42.92 43.0558 40.2113H47.5773V60.25H27.5387ZM49.5065 25.237C43.5825 25.237 38.763 20.4175 38.763 14.4935C38.763 8.5695 43.5825 3.75 49.5065 3.75C55.4305 3.75 60.25 8.5695 60.25 14.4935C60.25 20.4175 55.4305 25.237 49.5065 25.237Z" fill="#97D80F"/>
<path d="M48.1942 14.534L45.7442 12.084L43.0926 14.7356L48.1942 19.8372L56.2595 11.772L53.6079 9.12036L48.1942 14.534Z" fill="#97D80F"/>
</g>
<defs>
<clipPath id="clip0_81_1707">
<rect width="64" height="64" fill="white"/>
</clipPath>
</defs>
</svg>
