<svg width="64" height="64" viewBox="0 0 64 64" fill="none" xmlns="http://www.w3.org/2000/svg">
<g clip-path="url(#clip0_154_1655)">
<path d="M58.375 0H54.625H32.125C29.7126 0 27.75 1.96263 27.75 4.375V7.5H20V4.375C20 1.96263 18.0374 0 15.625 0H4.375C1.96263 0 0 1.96263 0 4.375V45.875C0 48.9766 2.52338 51.5 5.625 51.5H21.1374C20.7861 54.4416 19.6167 57.2588 17.7566 59.5841L17.2239 60.25H14.375C13.3395 60.25 12.5 61.0895 12.5 62.125C12.5 63.1605 13.3395 64 14.375 64H44.625C45.6605 64 46.5 63.1605 46.5 62.125C46.5 61.0895 45.6605 60.25 44.625 60.25H41.7761L41.2434 59.5841C39.3831 57.2588 38.2139 54.4416 37.8626 51.5H53.375C56.4766 51.5 59 48.9766 59 45.875V24.9645C61.8085 24.6525 64 22.2654 64 19.375V5.625C64 2.52338 61.4766 0 58.375 0ZM31.5 4.375C31.5 4.03038 31.7804 3.75 32.125 3.75H52.75V21.25H32.125C31.7804 21.25 31.5 20.9696 31.5 20.625V4.375ZM27.75 11.25V20.625C27.75 23.0374 29.7126 25 32.125 25H55.25V40.25H3.75V30.9275C4.33687 31.1356 4.96763 31.25 5.625 31.25H14.375C17.4766 31.25 20 28.7266 20 25.625V11.25H27.75ZM3.75 23.75H16.25V25.625C16.25 26.6589 15.4089 27.5 14.375 27.5H5.625C4.59113 27.5 3.75 26.6589 3.75 25.625V23.75ZM3.75 4.375C3.75 4.03038 4.03038 3.75 4.375 3.75H15.625C15.9696 3.75 16.25 4.03038 16.25 4.375V20H3.75V4.375ZM37.1136 60.25H21.8864C23.5688 57.6196 24.6094 54.609 24.9096 51.5H34.0905C34.3906 54.609 35.4313 57.6196 37.1136 60.25ZM53.375 47.75H5.625C4.59113 47.75 3.75 46.9089 3.75 45.875V44H55.25V45.875C55.25 46.9089 54.4089 47.75 53.375 47.75ZM60.25 19.375C60.25 20.4089 59.4089 21.25 58.375 21.25H56.5V3.75H58.375C59.4089 3.75 60.25 4.59113 60.25 5.625V19.375Z" fill="#97D80F"/>
</g>
<defs>
<clipPath id="clip0_154_1655">
<rect width="64" height="64" fill="white"/>
</clipPath>
</defs>
</svg>
