<svg width="64" height="64" viewBox="0 0 64 64" fill="none" xmlns="http://www.w3.org/2000/svg">
<g clip-path="url(#clip0_154_1682)">
<path d="M57.6429 49.4703C58.8587 48.1472 59.6026 46.3838 59.6026 44.4494C59.6026 40.3535 56.2705 37.0214 52.1747 37.0214C48.079 37.0214 44.7469 40.3535 44.7469 44.4494C44.7469 46.3842 45.491 48.1478 46.7074 49.4711C45.129 50.2953 43.7491 51.4673 42.6816 52.9019C41.4502 50.991 39.7201 49.4308 37.6771 48.4053C39.0609 46.9793 39.9152 45.0369 39.9152 42.8978C39.9152 38.5332 36.3644 34.9824 31.9999 34.9824C27.6354 34.9824 24.0845 38.5332 24.0845 42.8978C24.0845 45.0371 24.9389 46.9794 26.3226 48.4053C24.3196 49.4107 22.618 50.9304 21.3916 52.7904C20.7372 51.931 19.9667 51.1587 19.1016 50.5063C18.5784 50.1117 18.0295 49.7647 17.4595 49.4659C18.6729 48.1433 19.4149 46.3817 19.4149 44.4495C19.4149 40.3537 16.0827 37.0215 11.987 37.0215C7.89111 37.0215 4.55898 40.3537 4.55898 44.4495C4.55898 46.3839 5.30286 48.1474 6.51886 49.4706C2.74386 51.4478 0.162109 55.4039 0.162109 59.9524V62.1249C0.162109 63.1604 1.00161 63.9999 2.03711 63.9999H21.1761H21.9371H42.2246H42.8231H62.1246C63.1601 63.9999 63.9996 63.1604 63.9996 62.1249V59.9524C63.9996 55.4039 61.4176 51.4475 57.6429 49.4703ZM11.9867 40.7715C14.0147 40.7715 15.6646 42.4214 15.6646 44.4495C15.6646 46.4775 14.0147 48.1274 11.9867 48.1274C9.95873 48.1274 8.30873 46.4775 8.30873 44.4495C8.30873 42.4214 9.95873 40.7715 11.9867 40.7715ZM19.3011 59.7617V60.2499H3.91211V59.9524C3.91211 55.4999 7.53448 51.8774 11.9871 51.8774C15.3619 51.8774 18.4127 54.0313 19.5676 57.1689C19.3932 58.0063 19.3011 58.8734 19.3011 59.7617ZM31.9996 38.7323C34.2965 38.7323 36.165 40.6009 36.165 42.8977C36.165 45.1944 34.2965 47.0632 31.9996 47.0632C29.7027 47.0632 27.8342 45.1946 27.8342 42.8978C27.8342 40.6011 29.7027 38.7323 31.9996 38.7323ZM40.9481 60.2499H23.0511V59.7617C23.0511 54.8274 27.0654 50.8132 31.9996 50.8132C36.9339 50.8132 40.9481 54.8274 40.9481 59.7617V60.2499ZM52.1746 40.7715C54.2026 40.7715 55.8525 42.4214 55.8525 44.4495C55.8525 46.4775 54.2026 48.1274 52.1746 48.1274C50.1466 48.1274 48.4967 46.4775 48.4967 44.4495C48.4967 42.4214 50.1466 40.7715 52.1746 40.7715ZM60.2496 60.2499H44.6981V59.7617C44.6981 58.9793 44.6265 58.2136 44.4904 57.4699C45.5565 54.1573 48.6581 51.8775 52.1746 51.8775C56.6272 51.8775 60.2496 55.4999 60.2496 59.9525V60.2499Z" fill="#97D80F"/>
<path d="M57.4016 0H6.59837C2.96 0 0 2.96012 0 6.59837V19.6894C0 23.3277 2.96 26.2878 6.59837 26.2878H24.7216L30.7919 31.4018C31.4896 31.9897 32.51 31.9899 33.208 31.4018L39.2783 26.2878H57.4015C61.0399 26.2878 63.9999 23.3277 63.9999 19.6894V6.59837C64 2.96012 61.04 0 57.4016 0ZM60.25 19.6894C60.25 21.2599 58.9723 22.5378 57.4016 22.5378H38.5938C38.1516 22.5378 37.7239 22.694 37.3856 22.9788L32 27.5161L26.6144 22.9788C26.2762 22.694 25.8484 22.5378 25.4062 22.5378H6.59837C5.02775 22.5378 3.75 21.2599 3.75 19.6894V6.59837C3.75 5.02787 5.02775 3.75 6.59837 3.75H57.4016C58.9723 3.75 60.25 5.02787 60.25 6.59837V19.6894Z" fill="#97D80F"/>
<path d="M54.6246 7.5H46.6221C45.5866 7.5 44.7471 8.3395 44.7471 9.375C44.7471 10.4105 45.5866 11.25 46.6221 11.25H54.6246C55.6601 11.25 56.4996 10.4105 56.4996 9.375C56.4996 8.3395 55.6601 7.5 54.6246 7.5Z" fill="#97D80F"/>
<path d="M40.9975 9.375C40.9975 8.3395 40.158 7.5 39.1225 7.5H9.375C8.3395 7.5 7.5 8.3395 7.5 9.375C7.5 10.4105 8.3395 11.25 9.375 11.25H39.1225C40.158 11.25 40.9975 10.4105 40.9975 9.375Z" fill="#97D80F"/>
<path d="M54.6251 15H30.4863C29.4508 15 28.6113 15.8395 28.6113 16.875C28.6113 17.9105 29.4508 18.75 30.4863 18.75H54.6251C55.6606 18.75 56.5001 17.9105 56.5001 16.875C56.5001 15.8395 55.6606 15 54.6251 15Z" fill="#97D80F"/>
<path d="M23.0478 15H9.375C8.3395 15 7.5 15.8395 7.5 16.875C7.5 17.9105 8.3395 18.75 9.375 18.75H23.0478C24.0833 18.75 24.9228 17.9105 24.9228 16.875C24.9228 15.8395 24.0833 15 23.0478 15Z" fill="#97D80F"/>
</g>
<defs>
<clipPath id="clip0_154_1682">
<rect width="64" height="64" fill="white"/>
</clipPath>
</defs>
</svg>
