<svg width="27" height="27" viewBox="0 0 27 27" fill="none" xmlns="http://www.w3.org/2000/svg">
<path d="M0 13.5C0 6.04416 6.04416 0 13.5 0C20.9558 0 27 6.04416 27 13.5C27 20.9558 20.9558 27 13.5 27C6.04416 27 0 20.9558 0 13.5Z" fill="#20D3E0"/>
<mask id="mask0_67_1355" style="mask-type:luminance" maskUnits="userSpaceOnUse" x="0" y="0" width="27" height="27">
<path fill-rule="evenodd" clip-rule="evenodd" d="M0 13.5C0 6.04416 6.04416 0 13.5 0C20.9558 0 27 6.04416 27 13.5C27 20.9558 20.9558 27 13.5 27C6.04416 27 0 20.9558 0 13.5Z" fill="white"/>
</mask>
<g mask="url(#mask0_67_1355)">
<path fill-rule="evenodd" clip-rule="evenodd" d="M13.5015 6.2998C11.546 6.2998 11.3006 6.30835 10.5326 6.34331C9.76612 6.37841 9.24291 6.49976 8.78511 6.67781C8.31155 6.86171 7.90985 7.10771 7.50964 7.50807C7.10914 7.90827 6.86314 8.30998 6.67864 8.78338C6.50013 9.24134 6.37863 9.76469 6.34413 10.5309C6.30978 11.2989 6.30078 11.5445 6.30078 13.4999C6.30078 15.4553 6.30948 15.7 6.34428 16.468C6.37953 17.2345 6.50088 17.7577 6.67879 18.2155C6.86284 18.689 7.10884 19.0907 7.50919 19.4909C7.90925 19.8914 8.31095 20.138 8.78421 20.3219C9.24231 20.5 9.76567 20.6214 10.532 20.6565C11.3 20.6914 11.5453 20.7 13.5006 20.7C15.4561 20.7 15.7008 20.6914 16.4688 20.6565C17.2353 20.6214 17.7591 20.5 18.2172 20.3219C18.6906 20.138 19.0917 19.8914 19.4918 19.4909C19.8923 19.0907 20.1383 18.689 20.3228 18.2156C20.4998 17.7577 20.6213 17.2343 20.6573 16.4681C20.6918 15.7001 20.7008 15.4553 20.7008 13.4999C20.7008 11.5445 20.6918 11.2991 20.6573 10.531C20.6213 9.76454 20.4998 9.24133 20.3228 8.78353C20.1383 8.30998 19.8923 7.90827 19.4918 7.50807C19.0913 7.10756 18.6908 6.86156 18.2168 6.67781C17.7578 6.49976 17.2342 6.37841 16.4677 6.34331C15.6997 6.30835 15.4552 6.2998 13.4992 6.2998H13.5015ZM13.2606 7.59725H13.2606L13.5006 7.59732C15.423 7.59732 15.6509 7.60422 16.41 7.63872C17.112 7.67082 17.4931 7.78812 17.7469 7.88667C18.0829 8.01717 18.3224 8.17317 18.5743 8.42518C18.8263 8.67718 18.9823 8.91718 19.1131 9.25319C19.2116 9.50669 19.3291 9.88769 19.361 10.5897C19.3955 11.3487 19.403 11.5767 19.403 13.4982C19.403 15.4198 19.3955 15.6478 19.361 16.4068C19.3289 17.1088 19.2116 17.4898 19.1131 17.7433C18.9826 18.0793 18.8263 18.3185 18.5743 18.5704C18.3223 18.8224 18.083 18.9784 17.7469 19.1089C17.4934 19.2079 17.112 19.3249 16.41 19.357C15.651 19.3915 15.423 19.399 13.5006 19.399C11.578 19.399 11.3502 19.3915 10.5912 19.357C9.88917 19.3246 9.50817 19.2073 9.25421 19.1087C8.91821 18.9782 8.67821 18.8222 8.42621 18.5702C8.1742 18.3182 8.0182 18.0788 7.8874 17.7427C7.78885 17.4892 7.6714 17.1082 7.63945 16.4062C7.60495 15.6472 7.59805 15.4192 7.59805 13.4964C7.59805 11.5737 7.60495 11.3469 7.63945 10.5879C7.67155 9.88589 7.78885 9.50489 7.8874 9.25109C8.0179 8.91508 8.1742 8.67508 8.42621 8.42308C8.67821 8.17107 8.91821 8.01507 9.25421 7.88427C9.50802 7.78527 9.88917 7.66827 10.5912 7.63602C11.2554 7.60602 11.5128 7.59702 12.8547 7.59552V7.59732C12.9801 7.59712 13.115 7.59718 13.2605 7.59725H13.2606H13.2606ZM16.482 9.65654C16.482 9.17939 16.869 8.79283 17.346 8.79283V8.79253C17.823 8.79253 18.21 9.17954 18.21 9.65654C18.21 10.1335 17.823 10.5206 17.346 10.5206C16.869 10.5206 16.482 10.1335 16.482 9.65654ZM13.4997 9.80234C11.4578 9.80242 9.80234 11.458 9.80234 13.4999C9.80234 15.5419 11.4579 17.1967 13.4999 17.1967C15.5419 17.1967 17.1968 15.5419 17.1968 13.4999C17.1968 11.4579 15.5417 9.80234 13.4997 9.80234ZM15.9032 13.4999C15.9032 12.1743 14.8286 11.0999 13.5031 11.0999C12.1776 11.0999 11.1031 12.1743 11.1031 13.4999C11.1031 14.8253 12.1776 15.8999 13.5031 15.8999C14.8286 15.8999 15.9032 14.8253 15.9032 13.4999Z" fill="#242424"/>
</g>
</svg>
