<svg width="64" height="65" viewBox="0 0 64 65" fill="none" xmlns="http://www.w3.org/2000/svg">
<g clip-path="url(#clip0_107_4710)">
<path d="M24.4346 11.8167C25.4701 11.8167 26.3096 10.9772 26.3096 9.9417V9.83008C26.3096 8.79458 25.4701 7.95508 24.4346 7.95508C23.3991 7.95508 22.5596 8.79458 22.5596 9.83008V9.9417C22.5596 10.9772 23.3991 11.8167 24.4346 11.8167Z" fill="#97D80F"/>
<path d="M16.9346 11.8167C17.9701 11.8167 18.8096 10.9772 18.8096 9.9417V9.83008C18.8096 8.79458 17.9701 7.95508 16.9346 7.95508C15.8991 7.95508 15.0596 8.79458 15.0596 9.83008V9.9417C15.0596 10.9772 15.8991 11.8167 16.9346 11.8167Z" fill="#97D80F"/>
<path d="M9.43457 11.8167C10.4701 11.8167 11.3096 10.9772 11.3096 9.9417V9.83008C11.3096 8.79458 10.4701 7.95508 9.43457 7.95508C8.39907 7.95508 7.55957 8.79458 7.55957 9.83008V9.9417C7.55957 10.9772 8.39907 11.8167 9.43457 11.8167Z" fill="#97D80F"/>
<path d="M1.875 0.514648C0.8395 0.514648 0 1.35415 0 2.38965V62.6101C0 63.6456 0.8395 64.4851 1.875 64.4851H62.125C63.1605 64.4851 64 63.6456 64 62.6101V2.38965C64 1.35415 63.1605 0.514648 62.125 0.514648H1.875ZM60.25 60.7351H3.75V19.2051H60.25V60.7351ZM60.25 15.4551H3.75V4.26465H60.25V15.4551Z" fill="#97D80F"/>
<path d="M9.25886 48.2729C9.73374 48.2729 10.209 48.0936 10.574 47.7341L25.0182 33.5156L38.67 47.6982C39.0235 48.0656 39.5112 48.2729 40.0209 48.2729H40.0286C40.541 48.2707 41.0302 48.0591 41.3824 47.6869L52.8659 35.5569V41.8947C52.8659 42.9302 53.7054 43.7697 54.7409 43.7697C55.7764 43.7697 56.6159 42.9302 56.6159 41.8947V30.8492C56.6159 29.8137 55.7764 28.9742 54.7409 28.9742H43.6954C42.6599 28.9742 41.8204 29.8137 41.8204 30.8492C41.8204 31.8847 42.6599 32.7242 43.6954 32.7242H50.3839L40.0096 43.6824L26.405 29.5489C26.0577 29.1879 25.5802 28.9812 25.0795 28.9743C24.5792 28.9633 24.0959 29.1614 23.7389 29.5131L7.94349 45.0617C6.74649 46.2336 7.60636 48.2828 9.25886 48.2729Z" fill="#97D80F"/>
</g>
<defs>
<clipPath id="clip0_107_4710">
<rect width="64" height="64" fill="white" transform="translate(0 0.5)"/>
</clipPath>
</defs>
</svg>
