<svg width="64" height="65" viewBox="0 0 64 65" fill="none" xmlns="http://www.w3.org/2000/svg">
<g clip-path="url(#clip0_107_4733)">
<path d="M54.3859 64.5H9.6143C6.51265 64.5 3.98926 61.9766 3.98926 58.875V6.12504C3.98926 3.02339 6.51265 0.5 9.6143 0.5H54.3859C57.4876 0.5 60.011 3.02339 60.011 6.12504V58.875C60.011 61.9767 57.4876 64.5 54.3859 64.5ZM9.6143 4.25003C8.58042 4.25003 7.73929 5.09116 7.73929 6.12504V58.875C7.73929 59.9088 8.58042 60.75 9.6143 60.75H54.3859C55.4198 60.75 56.2609 59.9088 56.2609 58.875V6.12504C56.2609 5.09116 55.4198 4.25003 54.3859 4.25003H9.6143Z" fill="#97D80F"/>
<path d="M18.8652 14.5071H47.6571C48.6926 14.5071 49.5321 13.6676 49.5321 12.6321C49.5321 11.5966 48.6926 10.7571 47.6571 10.7571H18.8652C17.8297 10.7571 16.9902 11.5966 16.9902 12.6321C16.9902 13.6676 17.8297 14.5071 18.8652 14.5071Z" fill="#97D80F"/>
<path d="M14.1818 30.6891L14.1499 34.0989C14.1441 34.7053 14.4321 35.2769 14.9226 35.6333C15.4134 35.9899 16.0462 36.0872 16.6209 35.8942L19.8539 34.8102L23.087 35.8942C23.2817 35.9594 23.4828 35.9914 23.683 35.9914C24.074 35.9914 24.4607 35.869 24.7851 35.6333C25.2757 35.2769 25.5637 34.7053 25.558 34.099L25.5261 30.6891L27.5562 27.9492C27.9173 27.4621 28.0203 26.8303 27.8329 26.2536C27.6455 25.677 27.1907 25.2265 26.6122 25.0445L23.3595 24.0211L21.3812 21.2437C21.0293 20.7498 20.4604 20.4565 19.8539 20.4565C19.2474 20.4565 18.6787 20.7498 18.3267 21.2437L16.3484 24.0211L13.0956 25.0445C12.5171 25.2265 12.0624 25.677 11.875 26.2536C11.6876 26.8303 11.7906 27.4621 12.1518 27.9492L14.1818 30.6891ZM18.0734 27.4096C18.4626 27.2872 18.8012 27.0412 19.0381 26.709L19.8539 25.5635L20.6698 26.709C20.9067 27.0412 21.2453 27.2872 21.6345 27.4096L22.976 27.8317L22.1387 28.9617C21.896 29.2895 21.7665 29.6876 21.7705 30.0954L21.7835 31.5019L20.4499 31.0549C20.2564 30.99 20.0552 30.9576 19.8538 30.9576C19.6524 30.9576 19.4512 30.9901 19.2577 31.0549L17.9242 31.5019L17.9373 30.0955C17.9412 29.6875 17.8118 29.2895 17.5689 28.9617L16.7317 27.8316L18.0734 27.4096Z" fill="#97D80F"/>
<path d="M31.6748 24.4739C31.6748 25.5094 32.5143 26.3489 33.5498 26.3489H50.3422C51.3777 26.3489 52.2172 25.5094 52.2172 24.4739C52.2172 23.4384 51.3777 22.5989 50.3422 22.5989H33.5498C32.5143 22.5989 31.6748 23.4384 31.6748 24.4739Z" fill="#97D80F"/>
<path d="M33.5498 33.8494H42.8416C43.8771 33.8494 44.7166 33.0099 44.7166 31.9744C44.7166 30.9389 43.8771 30.0994 42.8416 30.0994H33.5498C32.5143 30.0994 31.6748 30.9389 31.6748 31.9744C31.6748 33.0099 32.5143 33.8494 33.5498 33.8494Z" fill="#97D80F"/>
<path d="M14.1818 48.9405L14.1499 52.3502C14.1441 52.9566 14.4321 53.5284 14.9228 53.8846C15.2473 54.1205 15.6339 54.2428 16.0249 54.2428C16.225 54.2428 16.4263 54.2108 16.6209 54.1455L19.8539 53.0614L23.087 54.1455C23.6616 54.3384 24.2945 54.2413 24.7851 53.8848C25.2757 53.5283 25.5637 52.9566 25.558 52.3504L25.5261 48.9405L27.5562 46.2006C27.9173 45.7134 28.0203 45.0817 27.8329 44.5049C27.6455 43.9283 27.1907 43.4778 26.6124 43.2958L23.3595 42.2724L21.3812 39.4949C21.0293 39.001 20.4604 38.7078 19.8539 38.7078C19.2474 38.7078 18.6787 39.001 18.3267 39.4949L16.3484 42.2724L13.0955 43.2958C12.5171 43.4778 12.0624 43.9283 11.875 44.5051C11.6876 45.0817 11.7906 45.7134 12.1518 46.2006L14.1818 48.9405ZM18.0735 45.6609C18.4627 45.5386 18.8013 45.2926 19.0381 44.9603L19.8539 43.8148L20.6698 44.9603C20.9066 45.2926 21.2452 45.5386 21.6343 45.6609L22.9761 46.0831L22.1387 47.2132C21.896 47.541 21.7665 47.9391 21.7705 48.3468L21.7835 49.7533L20.4499 49.3062C20.2566 49.2413 20.0552 49.209 19.8538 49.209C19.6524 49.209 19.4511 49.2415 19.2577 49.3062L17.9242 49.7533L17.9373 48.347C17.9412 47.939 17.8118 47.541 17.5689 47.2132L16.7317 46.0831L18.0735 45.6609Z" fill="#97D80F"/>
<path d="M50.3422 40.8501H33.5498C32.5143 40.8501 31.6748 41.6896 31.6748 42.7251C31.6748 43.7606 32.5143 44.6001 33.5498 44.6001H50.3422C51.3777 44.6001 52.2172 43.7606 52.2172 42.7251C52.2172 41.6896 51.3778 40.8501 50.3422 40.8501Z" fill="#97D80F"/>
<path d="M42.8416 48.3508H33.5498C32.5143 48.3508 31.6748 49.1903 31.6748 50.2258C31.6748 51.2613 32.5143 52.1008 33.5498 52.1008H42.8416C43.8771 52.1008 44.7166 51.2613 44.7166 50.2258C44.7166 49.1903 43.8772 48.3508 42.8416 48.3508Z" fill="#97D80F"/>
</g>
<defs>
<clipPath id="clip0_107_4733">
<rect width="64" height="64" fill="white" transform="translate(0 0.5)"/>
</clipPath>
</defs>
</svg>
