<svg width="64" height="65" viewBox="0 0 64 65" fill="none" xmlns="http://www.w3.org/2000/svg">
<g clip-path="url(#clip0_107_4730)">
<path d="M58.375 0.5H54.625H32.125C29.7126 0.5 27.75 2.46263 27.75 4.875V8H20V4.875C20 2.46263 18.0374 0.5 15.625 0.5H4.375C1.96263 0.5 0 2.46263 0 4.875V46.375C0 49.4766 2.52338 52 5.625 52H21.1374C20.7861 54.9416 19.6167 57.7588 17.7566 60.0841L17.2239 60.75H14.375C13.3395 60.75 12.5 61.5895 12.5 62.625C12.5 63.6605 13.3395 64.5 14.375 64.5H44.625C45.6605 64.5 46.5 63.6605 46.5 62.625C46.5 61.5895 45.6605 60.75 44.625 60.75H41.7761L41.2434 60.0841C39.3831 57.7588 38.2139 54.9416 37.8626 52H53.375C56.4766 52 59 49.4766 59 46.375V25.4645C61.8085 25.1525 64 22.7654 64 19.875V6.125C64 3.02338 61.4766 0.5 58.375 0.5ZM31.5 4.875C31.5 4.53038 31.7804 4.25 32.125 4.25H52.75V21.75H32.125C31.7804 21.75 31.5 21.4696 31.5 21.125V4.875ZM27.75 11.75V21.125C27.75 23.5374 29.7126 25.5 32.125 25.5H55.25V40.75H3.75V31.4275C4.33687 31.6356 4.96763 31.75 5.625 31.75H14.375C17.4766 31.75 20 29.2266 20 26.125V11.75H27.75ZM3.75 24.25H16.25V26.125C16.25 27.1589 15.4089 28 14.375 28H5.625C4.59113 28 3.75 27.1589 3.75 26.125V24.25ZM3.75 4.875C3.75 4.53038 4.03038 4.25 4.375 4.25H15.625C15.9696 4.25 16.25 4.53038 16.25 4.875V20.5H3.75V4.875ZM37.1136 60.75H21.8864C23.5688 58.1196 24.6094 55.109 24.9096 52H34.0905C34.3906 55.109 35.4313 58.1196 37.1136 60.75ZM53.375 48.25H5.625C4.59113 48.25 3.75 47.4089 3.75 46.375V44.5H55.25V46.375C55.25 47.4089 54.4089 48.25 53.375 48.25ZM60.25 19.875C60.25 20.9089 59.4089 21.75 58.375 21.75H56.5V4.25H58.375C59.4089 4.25 60.25 5.09113 60.25 6.125V19.875Z" fill="#97D80F"/>
</g>
<defs>
<clipPath id="clip0_107_4730">
<rect width="64" height="64" fill="white" transform="translate(0 0.5)"/>
</clipPath>
</defs>
</svg>
