<svg width="64" height="65" viewBox="0 0 64 65" fill="none" xmlns="http://www.w3.org/2000/svg">
<path d="M57.6429 49.9703C58.8587 48.6472 59.6026 46.8838 59.6026 44.9494C59.6026 40.8535 56.2705 37.5214 52.1747 37.5214C48.079 37.5214 44.7469 40.8535 44.7469 44.9494C44.7469 46.8842 45.491 48.6478 46.7074 49.9711C45.129 50.7953 43.7491 51.9673 42.6816 53.4019C41.4502 51.491 39.7201 49.9308 37.6771 48.9053C39.0609 47.4793 39.9152 45.5369 39.9152 43.3978C39.9152 39.0332 36.3644 35.4824 31.9999 35.4824C27.6354 35.4824 24.0845 39.0332 24.0845 43.3978C24.0845 45.5371 24.9389 47.4794 26.3226 48.9053C24.3196 49.9107 22.618 51.4304 21.3916 53.2904C20.7372 52.431 19.9667 51.6587 19.1016 51.0063C18.5784 50.6117 18.0295 50.2647 17.4595 49.9659C18.6729 48.6433 19.4149 46.8817 19.4149 44.9495C19.4149 40.8537 16.0827 37.5215 11.987 37.5215C7.89111 37.5215 4.55898 40.8537 4.55898 44.9495C4.55898 46.8839 5.30286 48.6474 6.51886 49.9706C2.74386 51.9478 0.162109 55.9039 0.162109 60.4524V62.6249C0.162109 63.6604 1.00161 64.4999 2.03711 64.4999H21.1761H21.9371H42.2246H42.8231H62.1246C63.1601 64.4999 63.9996 63.6604 63.9996 62.6249V60.4524C63.9996 55.9039 61.4176 51.9475 57.6429 49.9703ZM11.9867 41.2715C14.0147 41.2715 15.6646 42.9214 15.6646 44.9495C15.6646 46.9775 14.0147 48.6274 11.9867 48.6274C9.95873 48.6274 8.30873 46.9775 8.30873 44.9495C8.30873 42.9214 9.95873 41.2715 11.9867 41.2715ZM19.3011 60.2617V60.7499H3.91211V60.4524C3.91211 55.9999 7.53448 52.3774 11.9871 52.3774C15.3619 52.3774 18.4127 54.5313 19.5676 57.6689C19.3932 58.5063 19.3011 59.3734 19.3011 60.2617ZM31.9996 39.2323C34.2965 39.2323 36.165 41.1009 36.165 43.3977C36.165 45.6944 34.2965 47.5632 31.9996 47.5632C29.7027 47.5632 27.8342 45.6946 27.8342 43.3978C27.8342 41.1011 29.7027 39.2323 31.9996 39.2323ZM40.9481 60.7499H23.0511V60.2617C23.0511 55.3274 27.0654 51.3132 31.9996 51.3132C36.9339 51.3132 40.9481 55.3274 40.9481 60.2617V60.7499ZM52.1746 41.2715C54.2026 41.2715 55.8525 42.9214 55.8525 44.9495C55.8525 46.9775 54.2026 48.6274 52.1746 48.6274C50.1466 48.6274 48.4967 46.9775 48.4967 44.9495C48.4967 42.9214 50.1466 41.2715 52.1746 41.2715ZM60.2496 60.7499H44.6981V60.2617C44.6981 59.4793 44.6265 58.7136 44.4904 57.9699C45.5565 54.6573 48.6581 52.3775 52.1746 52.3775C56.6272 52.3775 60.2496 55.9999 60.2496 60.4525V60.7499Z" fill="#97D80F"/>
<path d="M57.4016 0.5H6.59837C2.96 0.5 0 3.46012 0 7.09837V20.1894C0 23.8277 2.96 26.7878 6.59837 26.7878H24.7216L30.7919 31.9018C31.4896 32.4897 32.51 32.4899 33.208 31.9018L39.2783 26.7878H57.4015C61.0399 26.7878 63.9999 23.8277 63.9999 20.1894V7.09837C64 3.46012 61.04 0.5 57.4016 0.5ZM60.25 20.1894C60.25 21.7599 58.9723 23.0378 57.4016 23.0378H38.5938C38.1516 23.0378 37.7239 23.194 37.3856 23.4788L32 28.0161L26.6144 23.4788C26.2762 23.194 25.8484 23.0378 25.4062 23.0378H6.59837C5.02775 23.0378 3.75 21.7599 3.75 20.1894V7.09837C3.75 5.52787 5.02775 4.25 6.59837 4.25H57.4016C58.9723 4.25 60.25 5.52787 60.25 7.09837V20.1894Z" fill="#97D80F"/>
<path d="M54.6246 8H46.6221C45.5866 8 44.7471 8.8395 44.7471 9.875C44.7471 10.9105 45.5866 11.75 46.6221 11.75H54.6246C55.6601 11.75 56.4996 10.9105 56.4996 9.875C56.4996 8.8395 55.6601 8 54.6246 8Z" fill="#97D80F"/>
<path d="M40.9975 9.875C40.9975 8.8395 40.158 8 39.1225 8H9.375C8.3395 8 7.5 8.8395 7.5 9.875C7.5 10.9105 8.3395 11.75 9.375 11.75H39.1225C40.158 11.75 40.9975 10.9105 40.9975 9.875Z" fill="#97D80F"/>
<path d="M54.6251 15.5H30.4863C29.4508 15.5 28.6113 16.3395 28.6113 17.375C28.6113 18.4105 29.4508 19.25 30.4863 19.25H54.6251C55.6606 19.25 56.5001 18.4105 56.5001 17.375C56.5001 16.3395 55.6606 15.5 54.6251 15.5Z" fill="#97D80F"/>
<path d="M23.0478 15.5H9.375C8.3395 15.5 7.5 16.3395 7.5 17.375C7.5 18.4105 8.3395 19.25 9.375 19.25H23.0478C24.0833 19.25 24.9228 18.4105 24.9228 17.375C24.9228 16.3395 24.0833 15.5 23.0478 15.5Z" fill="#97D80F"/>
</svg>
