<svg width="64" height="64" viewBox="0 0 64 64" fill="none" xmlns="http://www.w3.org/2000/svg">
<path d="M54.3857 64H9.61406C6.51241 64 3.98901 61.4766 3.98901 58.375V5.62504C3.98901 2.52339 6.51241 0 9.61406 0H54.3857C57.4873 0 60.0107 2.52339 60.0107 5.62504V58.375C60.0107 61.4767 57.4873 64 54.3857 64ZM9.61406 3.75003C8.58017 3.75003 7.73904 4.59116 7.73904 5.62504V58.375C7.73904 59.4088 8.58017 60.25 9.61406 60.25H54.3857C55.4195 60.25 56.2607 59.4088 56.2607 58.375V5.62504C56.2607 4.59116 55.4195 3.75003 54.3857 3.75003H9.61406Z" fill="#97D80F"/>
<path d="M18.865 14.0071H47.6569C48.6924 14.0071 49.5319 13.1676 49.5319 12.1321C49.5319 11.0966 48.6924 10.2571 47.6569 10.2571H18.865C17.8295 10.2571 16.99 11.0966 16.99 12.1321C16.99 13.1676 17.8295 14.0071 18.865 14.0071Z" fill="#97D80F"/>
<path d="M14.1815 30.1891L14.1496 33.5989C14.1439 34.2053 14.4319 34.7769 14.9224 35.1333C15.4132 35.4899 16.0459 35.5872 16.6207 35.3942L19.8537 34.3102L23.0867 35.3942C23.2815 35.4594 23.4826 35.4914 23.6827 35.4914C24.0737 35.4914 24.4605 35.369 24.7849 35.1333C25.2755 34.7769 25.5635 34.2053 25.5577 33.599L25.5259 30.1891L27.556 27.4492C27.917 26.9621 28.02 26.3303 27.8326 25.7536C27.6453 25.177 27.1905 24.7265 26.612 24.5445L23.3592 23.5211L21.381 20.7437C21.0291 20.2498 20.4602 19.9565 19.8537 19.9565C19.2472 19.9565 18.6784 20.2498 18.3264 20.7437L16.3482 23.5211L13.0954 24.5445C12.5169 24.7265 12.0621 25.177 11.8748 25.7536C11.6874 26.3303 11.7904 26.9621 12.1515 27.4492L14.1815 30.1891ZM18.0732 26.9096C18.4623 26.7872 18.8009 26.5412 19.0378 26.209L19.8537 25.0635L20.6696 26.209C20.9065 26.5412 21.2451 26.7872 21.6342 26.9096L22.9757 27.3317L22.1385 28.4617C21.8957 28.7895 21.7662 29.1876 21.7702 29.5954L21.7832 31.0019L20.4497 30.5549C20.2562 30.49 20.0549 30.4576 19.8536 30.4576C19.6522 30.4576 19.4509 30.4901 19.2574 30.5549L17.9239 31.0019L17.9371 29.5955C17.9409 29.1875 17.8116 28.7895 17.5687 28.4617L16.7314 27.3316L18.0732 26.9096Z" fill="#97D80F"/>
<path d="M31.6746 23.9739C31.6746 25.0094 32.5141 25.8489 33.5496 25.8489H50.342C51.3775 25.8489 52.217 25.0094 52.217 23.9739C52.217 22.9384 51.3775 22.0989 50.342 22.0989H33.5496C32.5141 22.0989 31.6746 22.9384 31.6746 23.9739Z" fill="#97D80F"/>
<path d="M33.5496 33.3494H42.8413C43.8768 33.3494 44.7163 32.5099 44.7163 31.4744C44.7163 30.4389 43.8768 29.5994 42.8413 29.5994H33.5496C32.5141 29.5994 31.6746 30.4389 31.6746 31.4744C31.6746 32.5099 32.5141 33.3494 33.5496 33.3494Z" fill="#97D80F"/>
<path d="M14.1815 48.4405L14.1496 51.8502C14.1439 52.4566 14.4319 53.0284 14.9225 53.3846C15.247 53.6205 15.6337 53.7428 16.0247 53.7428C16.2248 53.7428 16.426 53.7108 16.6207 53.6455L19.8537 52.5614L23.0867 53.6455C23.6613 53.8384 24.2942 53.7413 24.7849 53.3848C25.2755 53.0283 25.5635 52.4566 25.5577 51.8504L25.5259 48.4405L27.556 45.7006C27.917 45.2134 28.02 44.5817 27.8326 44.0049C27.6453 43.4283 27.1905 42.9778 26.6121 42.7958L23.3592 41.7724L21.381 38.9949C21.0291 38.501 20.4602 38.2078 19.8537 38.2078C19.2472 38.2078 18.6784 38.501 18.3264 38.9949L16.3482 41.7724L13.0953 42.7958C12.5169 42.9778 12.0621 43.4283 11.8748 44.0051C11.6874 44.5817 11.7904 45.2134 12.1515 45.7006L14.1815 48.4405ZM18.0733 45.1609C18.4624 45.0386 18.8011 44.7926 19.0378 44.4603L19.8537 43.3148L20.6696 44.4603C20.9063 44.7926 21.245 45.0386 21.6341 45.1609L22.9758 45.5831L22.1385 46.7132C21.8957 47.041 21.7662 47.4391 21.7702 47.8468L21.7832 49.2533L20.4497 48.8062C20.2563 48.7413 20.0549 48.709 19.8536 48.709C19.6522 48.709 19.4508 48.7415 19.2574 48.8062L17.9239 49.2533L17.9371 47.847C17.9409 47.439 17.8116 47.041 17.5687 46.7132L16.7314 45.5831L18.0733 45.1609Z" fill="#97D80F"/>
<path d="M50.342 40.3501H33.5496C32.5141 40.3501 31.6746 41.1896 31.6746 42.2251C31.6746 43.2606 32.5141 44.1001 33.5496 44.1001H50.342C51.3775 44.1001 52.217 43.2606 52.217 42.2251C52.217 41.1896 51.3776 40.3501 50.342 40.3501Z" fill="#97D80F"/>
<path d="M42.8413 47.8508H33.5496C32.5141 47.8508 31.6746 48.6903 31.6746 49.7258C31.6746 50.7613 32.5141 51.6008 33.5496 51.6008H42.8413C43.8768 51.6008 44.7163 50.7613 44.7163 49.7258C44.7163 48.6903 43.8769 47.8508 42.8413 47.8508Z" fill="#97D80F"/>
</svg>
