<svg width="64" height="64" viewBox="0 0 64 64" fill="none" xmlns="http://www.w3.org/2000/svg">
<g clip-path="url(#clip0_154_1669)">
<path d="M24.4346 11.3167C25.4701 11.3167 26.3096 10.4772 26.3096 9.4417V9.33008C26.3096 8.29458 25.4701 7.45508 24.4346 7.45508C23.3991 7.45508 22.5596 8.29458 22.5596 9.33008V9.4417C22.5596 10.4772 23.3991 11.3167 24.4346 11.3167Z" fill="#97D80F"/>
<path d="M16.9346 11.3167C17.9701 11.3167 18.8096 10.4772 18.8096 9.4417V9.33008C18.8096 8.29458 17.9701 7.45508 16.9346 7.45508C15.8991 7.45508 15.0596 8.29458 15.0596 9.33008V9.4417C15.0596 10.4772 15.8991 11.3167 16.9346 11.3167Z" fill="#97D80F"/>
<path d="M9.43457 11.3167C10.4701 11.3167 11.3096 10.4772 11.3096 9.4417V9.33008C11.3096 8.29458 10.4701 7.45508 9.43457 7.45508C8.39907 7.45508 7.55957 8.29458 7.55957 9.33008V9.4417C7.55957 10.4772 8.39907 11.3167 9.43457 11.3167Z" fill="#97D80F"/>
<path d="M1.875 0.0146484C0.8395 0.0146484 0 0.854148 0 1.88965V62.1101C0 63.1456 0.8395 63.9851 1.875 63.9851H62.125C63.1605 63.9851 64 63.1456 64 62.1101V1.88965C64 0.854148 63.1605 0.0146484 62.125 0.0146484H1.875ZM60.25 60.2351H3.75V18.7051H60.25V60.2351ZM60.25 14.9551H3.75V3.76465H60.25V14.9551Z" fill="#97D80F"/>
<path d="M9.25911 47.7729C9.73398 47.7729 10.2092 47.5936 10.5742 47.2341L25.0185 33.0156L38.6702 47.1982C39.0237 47.5656 39.5115 47.7729 40.0211 47.7729H40.0289C40.5412 47.7707 41.0305 47.5591 41.3826 47.1869L52.8661 35.0569V41.3947C52.8661 42.4302 53.7056 43.2697 54.7411 43.2697C55.7766 43.2697 56.6161 42.4302 56.6161 41.3947V30.3492C56.6161 29.3137 55.7766 28.4742 54.7411 28.4742H43.6956C42.6601 28.4742 41.8206 29.3137 41.8206 30.3492C41.8206 31.3847 42.6601 32.2242 43.6956 32.2242H50.3841L40.0099 43.1824L26.4052 29.0489C26.058 28.6879 25.5805 28.4812 25.0797 28.4743C24.5795 28.4633 24.0961 28.6614 23.7391 29.0131L7.94373 44.5617C6.74673 45.7336 7.60661 47.7828 9.25911 47.7729Z" fill="#97D80F"/>
</g>
<defs>
<clipPath id="clip0_154_1669">
<rect width="64" height="64" fill="white"/>
</clipPath>
</defs>
</svg>
