<svg width="27" height="28" viewBox="0 0 27 28" fill="none" xmlns="http://www.w3.org/2000/svg">
<path d="M0 14.0938C0 6.63791 6.04416 0.59375 13.5 0.59375C20.9558 0.59375 27 6.63791 27 14.0938C27 21.5496 20.9558 27.5938 13.5 27.5938C6.04416 27.5938 0 21.5496 0 14.0938Z" fill="#20D3E0"/>
<path d="M17.9611 10.0769C17.8686 10.0279 17.7785 9.97421 17.6913 9.91601C17.4375 9.74416 17.2048 9.54167 16.9982 9.3129C16.4814 8.70716 16.2884 8.09265 16.2173 7.66241H16.2201C16.1607 7.30528 16.1853 7.07422 16.189 7.07422H13.8349V16.3981C13.8349 16.5233 13.8349 16.647 13.8298 16.7692C13.8298 16.7844 13.8284 16.7985 13.8275 16.8149C13.8275 16.8216 13.8275 16.8286 13.8261 16.8356C13.8261 16.8374 13.8261 16.8391 13.8261 16.8409C13.8013 17.1754 13.6966 17.4986 13.5212 17.782C13.3458 18.0653 13.1052 18.3002 12.8204 18.4659C12.5236 18.6389 12.1879 18.7296 11.8464 18.7292C10.7496 18.7292 9.86067 17.8131 9.86067 16.6818C9.86067 15.5504 10.7496 14.6344 11.8464 14.6344C12.054 14.6342 12.2603 14.6676 12.4577 14.7335L12.4606 12.2784C11.8613 12.1991 11.2525 12.2479 10.6726 12.4217C10.0927 12.5955 9.55418 12.8905 9.09112 13.2881C8.68537 13.6492 8.34426 14.08 8.08313 14.5613C7.98376 14.7368 7.60884 15.4419 7.56343 16.5864C7.53488 17.236 7.72534 17.909 7.81614 18.1872V18.1931C7.87325 18.3568 8.09455 18.9158 8.4552 19.387C8.74602 19.7649 9.0896 20.097 9.4749 20.3724V20.3665L9.48061 20.3724C10.6202 21.1656 11.8838 21.1135 11.8838 21.1135C12.1025 21.1045 12.8352 21.1135 13.6673 20.7096C14.5902 20.2618 15.1156 19.5946 15.1156 19.5946C15.4513 19.196 15.7182 18.7417 15.9049 18.2513C16.1179 17.6777 16.189 16.9898 16.189 16.7148V11.7683C16.2176 11.7859 16.5979 12.0435 16.5979 12.0435C16.5979 12.0435 17.1459 12.4033 18.0008 12.6376C18.6142 12.8043 19.4405 12.8394 19.4405 12.8394V10.4457C19.151 10.4779 18.5631 10.3843 17.9611 10.0769Z" fill="#242424"/>
</svg>
