<svg width="27" height="28" viewBox="0 0 27 28" fill="none" xmlns="http://www.w3.org/2000/svg">
<path d="M0 14.0938C0 6.63791 6.04416 0.59375 13.5 0.59375C20.9558 0.59375 27 6.63791 27 14.0938C27 21.5496 20.9558 27.5938 13.5 27.5938C6.04416 27.5938 0 21.5496 0 14.0938Z" fill="#20D3E0"/>
<path d="M20.3999 10.7597C20.2343 10.1235 19.7463 9.62258 19.1267 9.45255C18.0038 9.14355 13.5008 9.14355 13.5008 9.14355C13.5008 9.14355 8.99775 9.14355 7.8748 9.45255C7.25519 9.62258 6.76723 10.1235 6.60163 10.7597C6.30078 11.9128 6.30078 14.3186 6.30078 14.3186C6.30078 14.3186 6.30078 16.7243 6.60163 17.8774C6.76723 18.5136 7.25519 19.0145 7.8748 19.1846C8.99775 19.4936 13.5008 19.4936 13.5008 19.4936C13.5008 19.4936 18.0038 19.4936 19.1267 19.1846C19.7463 19.0145 20.2343 18.5136 20.3999 17.8774C20.7008 16.7243 20.7008 14.3186 20.7008 14.3186C20.7008 14.3186 20.7008 11.9128 20.3999 10.7597Z" fill="#242424"/>
<path d="M12.1504 16.7939V12.2939L15.7504 14.544L12.1504 16.7939Z" fill="#20D3E0"/>
</svg>
